<svg width="353.000000" height="59.000000" viewBox="0 0 353 59" fill="none" xmlns="http://www.w3.org/2000/svg" xmlns:xlink="http://www.w3.org/1999/xlink">
	<desc>
			Created with Pixso.
	</desc>
	<defs/>
	<rect id="Logo" width="353.000000" height="59.000000" fill="#FFFFFF" fill-opacity="0"/>
	<path id="загородный комплекс" d="M181.77 46C181.7 46.65 181.48 47.14 181.1 47.47C180.71 47.81 180.1 47.98 179.26 47.98C178.39 47.98 177.77 47.81 177.42 47.48C177.06 47.15 176.86 46.66 176.81 46L177.9 46C177.95 46.46 178.07 46.78 178.28 46.94C178.49 47.1 178.82 47.18 179.28 47.18Q179.89 47.18 180.24 46.93Q180.6 46.67 180.66 46L181.77 46ZM107.56 48.76Q108.78 48.76 109.51 49.24Q109.85 49.46 110.03 49.78Q110.23 50.13 110.23 50.59C110.23 51.02 110.11 51.36 109.87 51.6C109.63 51.85 109.3 52.03 108.89 52.15L108.89 52.2Q109.31 52.31 109.67 52.52C109.91 52.66 110.1 52.84 110.25 53.07C110.39 53.3 110.47 53.59 110.47 53.94Q110.47 54.28 110.36 54.57Q110.18 55.04 109.73 55.41Q108.99 56 107.43 56C106.91 56 106.45 55.96 106.03 55.88C105.61 55.79 105.27 55.68 105 55.54L105 54.51C105.3 54.65 105.65 54.78 106.06 54.89Q106.68 55.06 107.41 55.06C107.94 55.06 108.39 54.97 108.76 54.79C109.13 54.62 109.31 54.31 109.31 53.88Q109.31 53.58 109.18 53.36Q108.8 52.7 107.28 52.7L106.32 52.7L106.32 51.77L107.09 51.77Q108.01 51.77 108.56 51.53Q108.85 51.4 108.99 51.18Q109.11 50.98 109.11 50.7Q109.11 50.44 109 50.25Q108.89 50.07 108.69 49.96Q108.28 49.71 107.49 49.71C107.1 49.71 106.76 49.75 106.46 49.82C106.17 49.89 105.84 50 105.49 50.15L105.08 49.24Q106.19 48.76 107.56 48.76ZM131.45 52.36Q131.45 54.02 130.63 54.96L130.63 54.96Q130.59 55.01 130.55 55.05C129.95 55.68 129.15 56 128.13 56C127.5 56 126.94 55.86 126.45 55.58C125.96 55.29 125.57 54.88 125.29 54.34Q124.86 53.53 124.86 52.36C124.86 51.21 125.16 50.32 125.75 49.7C126.34 49.07 127.15 48.76 128.17 48.76Q129.11 48.76 129.83 49.16Q129.83 49.16 129.84 49.16Q129.86 49.17 129.87 49.18C130.37 49.46 130.75 49.87 131.03 50.41Q131.45 51.21 131.45 52.36ZM136.68 48.76C137.56 48.76 138.26 49.06 138.8 49.66C139.34 50.26 139.6 51.16 139.6 52.36C139.6 53.55 139.34 54.46 138.8 55.07C138.26 55.69 137.55 56 136.67 56C136.12 56 135.67 55.9 135.31 55.69Q134.77 55.39 134.46 54.98L134.38 54.98C134.4 55.13 134.42 55.32 134.44 55.54C134.46 55.77 134.46 55.96 134.46 56.13L134.46 59L133.29 59L133.29 48.89L134.25 48.89L134.41 49.84L134.46 49.84C134.68 49.53 134.95 49.28 135.3 49.07C135.64 48.86 136.11 48.76 136.68 48.76ZM147.65 52.36C147.65 53.52 147.35 54.41 146.75 55.05C146.16 55.68 145.35 56 144.33 56C143.7 56 143.14 55.86 142.65 55.58C142.16 55.29 141.77 54.88 141.49 54.34C141.2 53.8 141.06 53.14 141.06 52.36C141.06 51.21 141.36 50.32 141.95 49.7Q142.17 49.47 142.42 49.29L142.42 49.29Q143.22 48.76 144.37 48.76C145.02 48.76 145.58 48.9 146.08 49.18C146.57 49.46 146.95 49.87 147.23 50.41C147.51 50.94 147.65 51.59 147.65 52.36ZM201.22 52.36Q201.22 54.02 200.4 54.96L200.4 54.97Q200.36 55.01 200.33 55.05Q200.09 55.3 199.82 55.48Q199.04 56 197.9 56C197.28 56 196.71 55.86 196.22 55.58C195.73 55.29 195.34 54.88 195.06 54.34C194.78 53.8 194.64 53.14 194.64 52.36Q194.64 50.68 195.47 49.75L195.47 49.75Q195.5 49.72 195.52 49.7C196.12 49.07 196.93 48.76 197.94 48.76C198.59 48.76 199.16 48.9 199.65 49.18C200.14 49.46 200.53 49.87 200.81 50.41C201.09 50.94 201.22 51.59 201.22 52.36ZM231.69 48.76C232.3 48.76 232.82 48.89 233.26 49.15C233.7 49.41 234.04 49.78 234.27 50.25Q234.62 50.96 234.62 51.91L234.62 52.6L229.75 52.6C229.77 53.39 229.97 53.99 230.36 54.41C230.76 54.82 231.31 55.02 232.02 55.02C232.47 55.02 232.87 54.98 233.22 54.9C233.57 54.82 233.93 54.7 234.3 54.54L234.3 55.54C233.94 55.7 233.58 55.81 233.23 55.89C232.87 55.96 232.45 56 231.97 56C231.29 56 230.7 55.86 230.18 55.6C229.66 55.33 229.26 54.92 228.97 54.39Q228.54 53.59 228.54 52.43C228.54 51.67 228.67 51.01 228.93 50.46C229.19 49.92 229.56 49.5 230.03 49.2C230.51 48.91 231.06 48.76 231.69 48.76ZM246.04 56C245.41 56 244.85 55.87 244.36 55.62C243.87 55.37 243.49 54.98 243.21 54.45C242.93 53.92 242.79 53.24 242.79 52.42C242.79 51.56 242.93 50.86 243.23 50.32C243.52 49.78 243.92 49.39 244.42 49.14C244.92 48.88 245.48 48.76 246.12 48.76Q246.67 48.76 247.17 48.87C247.51 48.94 247.78 49.03 248 49.13L247.64 50.08C247.42 50.01 247.18 49.94 246.89 49.87C246.61 49.8 246.34 49.76 246.1 49.76C244.7 49.76 244 50.64 244 52.4C244 53.25 244.17 53.89 244.51 54.34C244.85 54.79 245.36 55.01 246.03 55.01C246.42 55.01 246.76 54.97 247.06 54.89C247.35 54.81 247.63 54.72 247.88 54.61L247.88 55.62C247.64 55.74 247.37 55.84 247.08 55.9C246.8 55.97 246.45 56 246.04 56ZM114.89 48.77Q116.19 48.77 116.81 49.33Q116.83 49.34 116.84 49.36L116.84 49.36Q117.44 49.92 117.44 51.11L117.44 55.87L116.59 55.87L116.36 54.88L116.31 54.88C116 55.26 115.68 55.54 115.33 55.73Q114.82 56 113.92 56C113.27 56 112.74 55.83 112.31 55.5Q112.2 55.41 112.11 55.31Q111.67 54.82 111.67 53.93C111.67 53.23 111.95 52.7 112.51 52.32C113.07 51.94 113.93 51.74 115.09 51.7L116.3 51.66L116.3 51.25C116.3 50.66 116.17 50.26 115.91 50.03Q115.53 49.69 114.82 49.69C114.45 49.69 114.1 49.75 113.76 49.86C113.42 49.97 113.11 50.09 112.82 50.23L112.46 49.37C112.77 49.2 113.14 49.06 113.56 48.95Q114.2 48.77 114.89 48.77ZM123.99 48.89L123.99 49.85L120.81 49.85L120.81 55.87L119.64 55.87L119.64 48.89L123.99 48.89ZM154.78 48.89L154.78 54.91L155.82 54.91L155.82 58.29L154.69 58.29L154.69 55.87L149.74 55.87L149.74 58.29L148.62 58.29L148.62 54.91L149.19 54.91C149.8 54.08 150.26 53.14 150.57 52.08C150.87 51.03 151.03 49.96 151.03 48.89L154.78 48.89ZM158.38 48.89L158.38 51.79L162.25 51.79L162.25 48.89L163.41 48.89L163.41 55.87L162.25 55.87L162.25 52.76L158.38 52.76L158.38 55.87L157.21 55.87L157.21 48.89L158.38 48.89ZM165.67 55.87L165.67 48.89L166.84 48.89L166.84 51.75L168.69 51.75C169.61 51.75 170.29 51.92 170.73 52.25C171.17 52.58 171.4 53.07 171.4 53.73C171.4 54.38 171.18 54.9 170.74 55.29C170.31 55.68 169.61 55.87 168.63 55.87L165.67 55.87ZM172.58 55.87L172.58 48.89L173.75 48.89L173.75 55.87L172.58 55.87ZM177.1 53.15C177.1 53.25 177.1 53.41 177.09 53.62C177.08 53.83 177.07 54.03 177.06 54.24C177.05 54.45 177.04 54.61 177.03 54.74L180.84 48.89L182.27 48.89L182.27 55.87L181.18 55.87L181.18 51.75C181.18 51.61 181.19 51.43 181.19 51.21C181.19 50.98 181.2 50.76 181.21 50.54C181.22 50.31 181.23 50.15 181.23 50.03L177.45 55.87L176 55.87L176 48.89L177.1 48.89L177.1 53.15ZM192.49 48.89L193.76 48.89L190.72 52.25L194.01 55.87L192.66 55.87L189.45 52.33L189.45 55.87L188.28 55.87L188.28 48.89L189.45 48.89L189.45 52.28L192.49 48.89ZM210.7 48.89L210.7 55.87L209.66 55.87L209.66 51.41C209.66 51.23 209.66 51.04 209.68 50.84C209.69 50.64 209.7 50.45 209.72 50.26L209.68 50.26L207.36 55.87L206.38 55.87L204.12 50.26L204.08 50.26C204.11 50.65 204.12 51.04 204.12 51.45L204.12 55.87L203.07 55.87L203.07 48.89L204.62 48.89L206.87 54.5L209.15 48.89L210.7 48.89ZM218.99 48.89L218.99 55.87L217.82 55.87L217.82 49.87L214.15 49.87L214.15 55.87L212.98 55.87L212.98 48.89L218.99 48.89ZM226.68 55.87L225.5 55.87L225.5 49.84L223.4 49.84Q223.23 52.04 222.92 53.39C222.72 54.29 222.45 54.94 222.11 55.35C221.78 55.76 221.35 55.96 220.84 55.96C220.72 55.96 220.61 55.95 220.5 55.94C220.39 55.93 220.3 55.9 220.23 55.87L220.23 55.01C220.28 55.03 220.34 55.04 220.4 55.05Q220.49 55.06 220.59 55.06C221.06 55.06 221.45 54.56 221.73 53.56Q222.17 52.07 222.39 48.89L226.68 48.89L226.68 55.87ZM240.64 48.89L241.91 48.89L238.87 52.25L242.17 55.87L240.81 55.87L237.6 52.33L237.6 55.87L236.43 55.87L236.43 48.89L237.6 48.89L237.6 52.28L240.64 48.89ZM231.67 49.69C231.12 49.69 230.68 49.87 230.35 50.22C230.03 50.57 229.84 51.06 229.77 51.69L233.4 51.69C233.39 51.1 233.25 50.62 232.97 50.25C232.7 49.88 232.27 49.69 231.67 49.69ZM126.07 52.36C126.07 53.19 126.24 53.84 126.57 54.33C126.9 54.81 127.43 55.05 128.16 55.05C128.87 55.05 129.4 54.81 129.73 54.33C130.07 53.84 130.24 53.19 130.24 52.36C130.24 51.54 130.07 50.89 129.73 50.42C129.4 49.96 128.87 49.72 128.14 49.72Q127.31 49.72 126.83 50.13Q126.68 50.26 126.56 50.42C126.23 50.89 126.07 51.54 126.07 52.36ZM136.47 49.72C135.74 49.72 135.23 49.92 134.94 50.32C134.64 50.72 134.48 51.33 134.46 52.15L134.46 52.36C134.46 53.23 134.61 53.89 134.9 54.35C135.18 54.82 135.72 55.05 136.49 55.05C136.93 55.05 137.28 54.93 137.56 54.7Q137.57 54.7 137.57 54.69Q137.98 54.34 138.19 53.74Q138.39 53.13 138.39 52.35Q138.39 51.15 137.92 50.44C137.61 49.96 137.12 49.72 136.47 49.72ZM142.27 52.36C142.27 53.19 142.44 53.84 142.77 54.33C143.1 54.81 143.63 55.05 144.36 55.05C145.07 55.05 145.6 54.81 145.94 54.33C146.27 53.84 146.44 53.19 146.44 52.36C146.44 51.54 146.27 50.89 145.94 50.42C145.6 49.96 145.07 49.72 144.34 49.72Q143.51 49.72 143.03 50.13Q142.88 50.26 142.76 50.42C142.44 50.89 142.27 51.54 142.27 52.36ZM195.85 52.36C195.85 53.19 196.01 53.84 196.34 54.33C196.67 54.81 197.2 55.05 197.93 55.05C198.65 55.05 199.17 54.81 199.51 54.33C199.85 53.84 200.02 53.19 200.02 52.36C200.02 51.54 199.85 50.89 199.51 50.42C199.17 49.96 198.64 49.72 197.92 49.72C197.19 49.72 196.66 49.96 196.34 50.42Q195.85 51.13 195.85 52.36ZM152.07 49.79Q152.02 50.67 151.79 51.62C151.64 52.25 151.45 52.85 151.21 53.42C150.98 53.99 150.71 54.49 150.4 54.91L153.65 54.91L153.65 49.79L152.07 49.79ZM115.23 52.5C114.35 52.53 113.74 52.67 113.4 52.91C113.05 53.16 112.88 53.5 112.88 53.94C112.88 54.33 113 54.62 113.25 54.8Q113.61 55.07 114.19 55.07C114.79 55.07 115.29 54.91 115.68 54.59Q115.78 54.51 115.86 54.42Q116.28 53.94 116.28 53.08L116.28 52.46L115.23 52.5ZM168.53 54.94C169.03 54.94 169.44 54.86 169.76 54.69C170.08 54.52 170.24 54.22 170.24 53.8C170.24 53.37 170.09 53.08 169.8 52.93C169.51 52.78 169.09 52.7 168.54 52.7L166.84 52.7L166.84 54.94L168.53 54.94Z" fill="#55DB91" fill-opacity="1.000000" fill-rule="evenodd"/>
	<path id="Форма 1" d="M52.87 35.7C52.87 36.48 53 37.15 53.26 37.68C53.52 38.22 53.94 38.5 54.54 38.5C55.35 38.5 56.13 38.21 56.85 37.64C57.58 37.08 58.35 36.14 59.13 34.82C59.88 33.52 60.45 32 60.86 30.28C61.27 28.57 61.47 26.92 61.47 25.35C61.47 24.36 61.28 23.32 60.91 22.24C60.54 21.17 60.07 20.12 59.51 19.12C58.96 18.11 58.37 17.17 57.76 16.3C57.14 15.42 56.6 14.68 56.12 14.07C55.79 13.63 55.56 13.24 55.45 12.89C55.33 12.54 55.3 12.14 55.35 11.67C55.42 11.08 55.7 10.41 56.21 9.66C56.72 8.9 57.53 8.04 58.64 7.08C59.36 6.44 60.02 5.86 60.61 5.37C61.22 4.88 61.85 4.41 62.53 3.98C63.2 3.54 63.97 3.11 64.82 2.69C65.68 2.27 66.74 1.79 67.99 1.27C69.1 0.77 70.22 0.44 71.35 0.26C72.47 0.08 73.37 0 74.03 0C74.63 0 75.08 0.02 75.38 0.08C75.68 0.14 75.8 0.4 75.74 0.87C75.74 0.99 75.7 1.15 75.63 1.36C75.55 1.56 75.46 1.76 75.35 1.95C75.25 2.14 75.13 2.3 74.99 2.43C74.86 2.57 74.71 2.63 74.57 2.63C74.24 2.63 73.74 2.59 73.08 2.5C72.42 2.41 71.75 2.37 71.05 2.37C70.75 2.37 70.39 2.36 69.97 2.35C69.55 2.34 69.06 2.38 68.49 2.48C67.92 2.58 67.26 2.77 66.51 3.05C65.76 3.32 64.9 3.75 63.94 4.33C61.93 5.56 60.53 6.62 59.75 7.52C58.97 8.42 58.58 9.3 58.58 10.14C58.58 10.52 58.62 10.84 58.71 11.1C58.81 11.37 58.94 11.65 59.12 11.97C59.57 12.76 60.1 13.61 60.72 14.51C61.34 15.41 61.92 16.41 62.47 17.5C63.03 18.59 63.5 19.79 63.89 21.08C64.28 22.38 64.47 23.8 64.47 25.35C64.47 26.66 64.16 28.19 63.55 29.94C62.93 31.69 62 33.43 60.73 35.18C59.35 37.1 58.03 38.54 56.75 39.48C55.47 40.43 54.18 40.91 52.86 40.91C51.78 40.91 50.89 40.58 50.18 39.93C49.47 39.27 49.12 38.1 49.12 36.4C49.12 36.08 49.14 35.73 49.18 35.38C49.2 35.37 49.21 35.36 49.22 35.35L49.19 35.31C49.26 34.74 49.39 34.15 49.57 33.52C49.87 32.48 50.22 31.45 50.63 30.47C51.03 29.48 51.44 28.58 51.84 27.78C52.24 26.97 52.57 26.4 52.81 26.05C53.86 24.39 54.83 23.07 55.73 22.08C56.63 21.09 57.34 20.59 57.85 20.59C58.18 20.59 58.39 20.69 58.48 20.88C58.57 21.07 58.62 21.42 58.62 21.95C58.62 22.53 58.44 23.23 58.1 24.05C57.75 24.86 57.32 25.71 56.81 26.58C56.3 27.45 55.75 28.32 55.17 29.16C54.59 30 54.06 30.73 53.57 31.35C53.42 31.78 53.26 32.37 53.1 33.1C52.94 33.82 52.87 34.67 52.87 35.7ZM49.19 35.31C49.19 35.33 49.18 35.35 49.18 35.38C48.67 35.73 47.96 36.18 47.03 36.77C46.09 37.36 45.08 37.96 44 38.58C43.22 39.01 42.53 39.37 41.95 39.67C41.37 39.96 40.85 40.18 40.42 40.32C39.99 40.46 39.61 40.57 39.3 40.63C38.98 40.69 38.69 40.71 38.42 40.71C37.92 40.71 37.58 40.58 37.41 40.3C37.25 40.02 37.17 39.75 37.17 39.49C37.17 39.11 37.26 38.64 37.44 38.09C37.62 37.54 37.82 36.98 38.05 36.43C38.27 35.88 38.48 35.38 38.66 34.93C38.84 34.48 38.93 34.16 38.93 33.99C38.93 33.9 38.9 33.83 38.86 33.79C38.82 33.75 38.77 33.7 38.71 33.64C38.62 33.61 38.55 33.58 38.48 33.55C38.12 33.95 37.64 34.5 37.02 35.17C36.4 35.84 35.51 36.67 34.34 37.66C33.55 38.32 32.85 38.85 32.22 39.23C31.59 39.6 31.02 39.9 30.51 40.1C30 40.31 29.55 40.44 29.15 40.5C28.76 40.56 28.4 40.59 28.07 40.59C27.57 40.59 27.16 40.49 26.86 40.3C26.56 40.11 26.33 39.89 26.19 39.65C26.03 39.4 25.93 39.15 25.89 38.88C25.84 38.62 25.82 38.41 25.82 38.27C25.82 37.8 25.91 37.36 26.09 36.96C26.26 36.55 26.5 36.19 26.76 35.89C27.04 35.58 27.31 35.33 27.6 35.12C27.88 34.92 28.14 34.79 28.38 34.73C28.35 34.93 28.35 35.21 28.36 35.54C28.38 35.88 28.45 36.21 28.57 36.55C28.68 36.88 28.88 37.17 29.15 37.42C29.42 37.67 29.81 37.79 30.32 37.79C31.01 37.79 31.69 37.65 32.37 37.36C33.04 37.07 33.73 36.66 34.42 36.13C35.07 35.64 35.71 35.09 36.33 34.49C36.95 33.89 37.4 33.44 37.71 33.12C37.34 32.85 36.92 32.58 36.44 32.28C35.96 31.99 35.51 31.64 35.09 31.24C34.67 30.83 34.32 30.34 34.03 29.75C33.74 29.17 33.6 28.46 33.6 27.61C33.6 26.48 33.93 25.46 34.59 24.54C35.25 23.62 36.04 22.85 36.93 22.22C37.84 21.59 38.76 21.11 39.7 20.78C40.65 20.44 41.41 20.27 41.98 20.27C43.15 20.27 43.94 20.51 44.36 20.97C44.78 21.44 44.99 22.13 44.99 23.03C44.99 24.03 44.76 25 44.3 25.96C43.84 26.92 43.33 27.8 42.79 28.58C42.16 29.51 41.44 30.4 40.63 31.24C41.02 31.45 41.42 31.65 41.82 31.86C42.23 32.06 42.43 32.48 42.43 33.12C42.43 33.44 42.37 33.78 42.25 34.13C42.13 34.48 41.99 34.84 41.84 35.2C41.69 35.57 41.56 35.91 41.44 36.23C41.32 36.55 41.25 36.84 41.25 37.1C41.25 37.3 41.28 37.51 41.35 37.73C41.4 37.95 41.63 38.06 42.02 38.06C42.68 38.06 43.63 37.74 44.85 37.1C46.09 36.46 47.41 35.7 48.82 34.82L49.19 35.31ZM123.04 8.87C123.04 8.64 123.04 8.38 123.02 8.13C123.01 7.86 122.93 7.61 122.8 7.38C122.67 7.15 122.44 6.96 122.13 6.82C121.81 6.67 121.37 6.6 120.8 6.6C119.42 6.6 117.8 7.27 115.96 8.63C114.12 9.98 112.1 12.22 109.91 15.34C109.51 15.89 109.09 16.6 108.62 17.45C108.16 18.31 107.68 19.24 107.18 20.23C106.69 21.21 106.2 22.23 105.72 23.28C105.24 24.33 104.82 25.31 104.46 26.21C104.25 26.3 104.08 26.4 103.96 26.52C103.63 26.72 103.46 26.93 103.46 27.13C103.46 27.51 103.66 27.59 104.04 27.4C103.78 28.18 103.5 29 103.23 29.84C102.96 30.68 102.72 31.5 102.51 32.28C102.3 33.07 102.12 33.81 101.99 34.49C101.95 34.7 101.91 34.89 101.88 35.08C100.93 35.78 99.93 36.39 98.89 36.92C97.93 37.42 96.84 37.88 95.65 38.3C94.45 38.72 93.26 38.93 92.09 38.93C90.71 38.93 89.64 38.59 88.89 37.9C88.14 37.22 87.82 35.96 87.94 34.12C88.81 33.34 89.68 32.56 90.55 31.81C91.27 31.14 92.05 30.44 92.87 29.71C93.69 28.98 94.42 28.33 95.05 27.74C96.64 26.29 97.94 25 98.94 23.88C99.95 22.75 100.45 21.85 100.45 21.14C100.45 20.59 100.28 20.21 99.95 19.99C99.62 19.77 99.02 19.66 98.15 19.66C97.61 19.66 96.96 19.77 96.19 19.99C95.43 20.21 94.61 20.55 93.74 21.02C92.87 21.49 91.96 22.1 91.02 22.85C90.07 23.61 89.14 24.52 88.25 25.56C86.69 27.37 85.56 29.16 84.85 30.94C84.19 32.58 83.84 33.99 83.8 35.16C82.87 35.83 81.91 36.41 80.91 36.92C79.95 37.42 78.87 37.88 77.67 38.3C76.47 38.72 75.29 38.93 74.12 38.93C72.74 38.93 71.67 38.59 70.92 37.9C70.17 37.21 69.85 35.96 69.97 34.12C70.84 33.33 71.71 32.56 72.58 31.81C73.3 31.14 74.08 30.44 74.9 29.71C75.72 28.98 76.45 28.33 77.08 27.74C78.67 26.29 79.97 25 80.97 23.88C81.97 22.75 82.48 21.85 82.48 21.14C82.48 20.59 82.31 20.21 81.98 19.99C81.65 19.77 81.05 19.66 80.18 19.66C79.64 19.66 78.99 19.77 78.22 19.99C77.46 20.21 76.64 20.55 75.77 21.02C74.9 21.48 73.99 22.09 73.04 22.85C72.1 23.61 71.18 24.52 70.27 25.56C68.72 27.37 67.58 29.16 66.88 30.94C66.17 32.71 65.82 34.21 65.82 35.44C65.82 37.33 66.29 38.71 67.24 39.59C68.18 40.46 69.6 40.9 71.49 40.9C72.99 40.9 74.5 40.65 76.03 40.16C77.56 39.66 78.95 39.1 80.2 38.47C81.45 37.85 82.46 37.26 83.24 36.7C83.46 36.54 83.66 36.4 83.82 36.28C83.95 37.75 84.41 38.85 85.21 39.59C86.15 40.46 87.57 40.9 89.46 40.9C90.96 40.9 92.47 40.65 94 40.16C95.54 39.66 96.92 39.1 98.17 38.47C99.41 37.85 100.43 37.26 101.21 36.7C101.43 36.54 101.62 36.4 101.78 36.28C101.79 36.84 101.82 37.43 101.9 38.05C101.97 38.7 102.15 39.28 102.44 39.8C102.72 40.33 103.15 40.76 103.72 41.12C104.29 41.46 105.05 41.64 106.01 41.64C106.58 41.64 107.16 41.56 107.72 41.4C108.29 41.24 108.84 41.03 109.37 40.77C109.89 40.5 110.38 40.22 110.83 39.9C111.28 39.58 111.67 39.27 112 38.98C112.82 38.92 113.66 38.78 114.55 38.56C115.43 38.35 116.29 38.07 117.12 37.75C117.95 37.43 118.72 37.09 119.43 36.7C119.76 36.53 120.06 36.37 120.35 36.2C120.41 37.82 120.84 38.99 121.63 39.72C122.48 40.5 123.61 40.9 125.11 40.9C126.62 40.9 128.17 40.62 129.77 40.07C131.38 39.52 132.85 38.89 134.18 38.19C135.52 37.49 136.61 36.83 137.47 36.22C137.67 36.08 137.85 35.95 138 35.83C137.89 36.12 137.77 36.43 137.64 36.75C137.28 37.68 137.02 38.35 136.88 38.76C136.73 39.17 136.65 39.45 136.65 39.59C136.65 39.82 136.72 39.99 136.86 40.07C136.99 40.16 137.24 40.2 137.6 40.2C137.96 40.2 138.4 40.08 138.92 39.83C139.45 39.58 139.83 39.34 140.08 39.11C140.29 38.9 140.48 38.63 140.64 38.3C140.81 37.96 141.02 37.46 141.29 36.79C141.44 36.41 141.61 36.02 141.79 35.61C141.93 35.27 142.1 34.87 142.28 34.42C142.47 33.97 142.66 33.52 142.87 33.08C143.11 32.53 143.34 32.1 143.56 31.79C143.79 31.49 144.02 31.17 144.26 30.86C144.4 31.38 144.57 32.09 144.73 32.97C144.89 33.86 145.18 35.17 145.6 36.88C145.87 37.96 146.21 38.84 146.59 39.5C146.99 40.17 147.41 40.69 147.88 41.06C148.34 41.42 148.84 41.67 149.36 41.8C149.89 41.93 150.44 42 151 42C151.82 42 152.68 41.85 153.59 41.56C154.5 41.27 155.42 40.87 156.34 40.38C157.25 39.89 158.16 39.33 159.06 38.72C159.69 38.29 160.32 37.84 160.92 37.38C160.96 38.32 161.14 39.09 161.44 39.68C161.8 40.38 162.55 40.73 163.69 40.73C164.92 40.73 166.3 40.25 167.81 39.31C169.33 38.36 170.76 37.07 172.11 35.44L172.29 35.44C172.23 35.68 172.17 35.98 172.09 36.34C172.01 36.7 171.95 37.08 171.89 37.47C171.83 37.86 171.77 38.26 171.73 38.67C171.68 39.08 171.66 39.43 171.66 39.72C171.66 40.27 171.78 40.74 172.02 41.1C172.27 41.46 172.61 41.64 173.06 41.64C173.63 41.64 174.39 41.4 175.35 40.92C176.31 40.44 177.33 39.85 178.41 39.15C179.37 38.53 180.31 37.88 181.23 37.2C181.12 37.54 181.06 37.89 181.06 38.27C181.06 38.41 181.08 38.62 181.13 38.88C181.17 39.15 181.27 39.4 181.43 39.65C181.57 39.89 181.8 40.11 182.1 40.3C182.4 40.49 182.81 40.59 183.31 40.59C183.64 40.59 184 40.56 184.39 40.5C184.79 40.44 185.24 40.31 185.74 40.1C186.25 39.9 186.82 39.6 187.45 39.23C188.08 38.85 188.79 38.32 189.57 37.66C190.74 36.67 191.63 35.84 192.25 35.17C192.87 34.5 193.35 33.95 193.72 33.55C193.78 33.58 193.85 33.61 193.94 33.64L194.1 33.79C194.14 33.83 194.17 33.9 194.17 33.99C194.17 34.16 194.07 34.48 193.89 34.93C193.71 35.38 193.51 35.88 193.28 36.43C193.06 36.98 192.85 37.54 192.67 38.09C192.49 38.64 192.4 39.11 192.4 39.49C192.4 39.75 192.49 40.02 192.65 40.3C192.82 40.58 193.16 40.71 193.66 40.71C193.93 40.71 194.22 40.69 194.54 40.63C194.85 40.57 195.22 40.46 195.66 40.32C196.09 40.18 196.61 39.96 197.19 39.67C197.77 39.37 198.46 39.01 199.24 38.58C200.32 37.96 201.33 37.36 202.27 36.77C203.22 36.17 203.96 35.7 204.47 35.35L204.06 34.82C202.65 35.7 201.33 36.46 200.1 37.1C198.86 37.74 197.92 38.06 197.27 38.06C196.87 38.06 196.65 37.95 196.59 37.73C196.53 37.51 196.5 37.3 196.5 37.1C196.5 36.84 196.56 36.55 196.68 36.23C196.8 35.91 196.94 35.57 197.09 35.2C197.24 34.84 197.38 34.48 197.5 34.13C197.62 33.78 197.68 33.44 197.68 33.12C197.68 32.48 197.48 32.06 197.07 31.86C196.66 31.65 196.27 31.45 195.88 31.24C196.69 30.4 197.41 29.51 198.04 28.58C198.58 27.8 199.08 26.92 199.55 25.96C200.01 25 200.24 24.03 200.24 23.03C200.24 22.13 200.03 21.44 199.61 20.97C199.19 20.51 198.39 20.27 197.22 20.27C196.66 20.27 195.9 20.44 194.95 20.78C194 21.11 193.08 21.59 192.18 22.22C191.28 22.85 190.5 23.62 189.84 24.54C189.18 25.46 188.85 26.48 188.85 27.61C188.85 28.46 188.99 29.17 189.28 29.75C189.56 30.34 189.91 30.83 190.34 31.24C190.76 31.64 191.2 31.99 191.68 32.28C192.16 32.58 192.58 32.85 192.94 33.12C192.64 33.44 192.19 33.89 191.57 34.49C190.95 35.09 190.31 35.64 189.65 36.13C188.97 36.66 188.28 37.07 187.61 37.36C186.93 37.65 186.25 37.79 185.56 37.79C185.05 37.79 184.66 37.67 184.39 37.42C184.11 37.17 183.92 36.88 183.8 36.55C183.69 36.21 183.62 35.88 183.6 35.54C183.6 35.48 183.6 35.42 183.6 35.36C183.8 35.19 183.99 35.03 184.17 34.87L183.76 34.36C183.07 34.86 182.37 35.38 181.64 35.91C180.92 36.45 180.21 36.94 179.53 37.38C178.83 37.81 178.16 38.17 177.52 38.45C176.87 38.73 176.29 38.86 175.75 38.86C175.5 38.86 175.3 38.77 175.13 38.58C174.97 38.39 174.89 37.97 174.89 37.33C174.89 37.04 175.12 36.23 175.58 34.93C176.05 33.62 176.63 32.05 177.32 30.21C177.67 29.28 178.01 28.54 178.33 28C178.64 27.46 178.92 26.87 179.16 26.23C179.46 25.97 179.72 25.73 179.93 25.53C180.14 25.33 180.3 25.14 180.42 24.96C180.54 24.79 180.63 24.59 180.67 24.37C180.72 24.15 180.74 23.88 180.74 23.56C180.74 23.07 180.58 22.66 180.27 22.34C179.96 22.02 179.58 21.76 179.15 21.57C178.71 21.38 178.27 21.25 177.82 21.18C177.37 21.1 177 21.07 176.7 21.07C175.05 21.07 173.35 21.41 171.61 22.1C169.87 22.79 168.03 24.03 166.08 25.84C165.27 26.59 164.55 27.44 163.92 28.37C163.29 29.3 162.75 30.26 162.3 31.25C161.84 32.24 161.5 33.22 161.26 34.2C161.08 34.94 160.97 35.63 160.92 36.26C160.58 36.54 160.2 36.83 159.77 37.13C159.2 37.54 158.57 37.94 157.9 38.31C157.23 38.69 156.51 39.01 155.76 39.25C155.01 39.5 154.23 39.63 153.42 39.63C152.27 39.63 151.38 39.2 150.72 38.36C150.06 37.51 149.56 36.36 149.23 34.91C148.99 33.97 148.77 32.98 148.58 31.91C148.38 30.85 148.21 29.91 148.06 29.09C148 28.74 147.88 28.52 147.72 28.42C147.56 28.32 147.4 28.27 147.25 28.27C147.19 28.27 147.12 28.27 147.03 28.29C146.94 28.3 146.86 28.31 146.8 28.31L146.53 28.31C146.83 27.96 147.17 27.58 147.57 27.17C147.9 26.82 148.31 26.43 148.8 25.99C149.3 25.56 149.88 25.09 150.53 24.6C151.52 23.84 152.46 23.3 153.33 22.96C154.2 22.62 154.88 22.45 155.39 22.45C156 22.45 156.29 22.66 156.29 23.07C156.29 23.36 156.19 23.78 155.98 24.33C155.77 24.88 155.37 25.37 154.81 25.78L155.07 26.17C156.78 25.15 157.98 24.22 158.65 23.37C159.32 22.53 159.66 21.86 159.66 21.36C159.66 21.1 159.6 20.9 159.48 20.75C159.36 20.61 159.22 20.5 159.05 20.42C158.88 20.35 158.71 20.31 158.53 20.29C158.35 20.28 158.2 20.27 158.08 20.27C157.61 20.27 157.05 20.34 156.44 20.47C155.82 20.6 155.19 20.8 154.53 21.06C153.87 21.33 153.21 21.65 152.55 22.02C151.89 22.4 151.26 22.83 150.65 23.29C149.84 23.93 149.14 24.51 148.53 25.01C147.93 25.52 147.39 26.02 146.89 26.5C146.4 26.97 145.93 27.46 145.48 27.94C145.03 28.42 144.53 28.94 143.99 29.49L143.77 29.45C144.1 28.52 144.47 27.53 144.89 26.46C145.31 25.39 145.77 24.25 146.28 23.02C146.49 22.56 146.7 22.06 146.92 21.54C147.13 21.02 147.23 20.65 147.23 20.45C147.23 20.13 147.13 19.97 146.92 19.97C146.7 19.97 146.45 19.99 146.15 20.06C145.85 20.12 145.54 20.19 145.22 20.29C144.91 20.4 144.61 20.53 144.33 20.69C144.04 20.85 143.81 21.03 143.63 21.23C143.39 21.46 143.2 21.78 143.05 22.17C142.9 22.57 142.72 23.04 142.51 23.6C142.27 24.21 141.88 25.26 141.34 26.74C140.8 28.23 140.17 29.93 139.44 31.86C139.26 32.35 139.1 32.8 138.95 33.21C138.8 33.62 138.65 34.01 138.52 34.39C138.5 34.45 138.48 34.5 138.46 34.56C138.37 34.55 138.29 34.55 138.22 34.55C138.15 34.55 137.99 34.65 137.72 34.85C137.45 35.06 137.07 35.31 136.57 35.61C136.08 35.92 135.48 36.26 134.79 36.64C134.11 37.02 133.34 37.39 132.5 37.73C131.96 37.97 131.24 38.2 130.34 38.43C129.43 38.67 128.55 38.78 127.68 38.78C126.94 38.78 126.34 38.63 125.91 38.32C125.47 38.02 125.14 37.63 124.92 37.17C124.69 36.7 124.55 36.18 124.49 35.61C124.43 35.05 124.4 34.52 124.4 34.02C124.4 32.63 124.65 31.22 125.16 29.81C125.68 28.4 126.33 27.12 127.12 25.99C127.92 24.86 128.8 23.93 129.78 23.21C130.75 22.5 131.72 22.15 132.68 22.15C133.04 22.15 133.29 22.22 133.43 22.36C133.56 22.51 133.63 22.75 133.63 23.07C133.63 23.21 133.62 23.41 133.59 23.66C133.55 23.9 133.42 24.29 133.18 24.82L132.73 25.78C132.82 25.95 132.94 26.04 133.09 26.04C133.3 26.04 133.62 25.97 134.06 25.84C134.49 25.71 134.96 25.44 135.47 25.03C136.07 24.54 136.48 23.94 136.69 23.24C136.9 22.54 137 21.99 137 21.58C137 20.79 136.79 20.32 136.37 20.16C135.95 20 135.49 19.92 134.98 19.92C134.53 19.92 133.95 20.02 133.26 20.23C132.58 20.43 131.82 20.74 130.99 21.17C130.16 21.59 129.32 22.1 128.45 22.7C127.58 23.3 126.75 23.98 125.97 24.77C125.1 25.65 124.31 26.57 123.61 27.53C122.9 28.49 122.31 29.45 121.83 30.41C121.35 31.37 120.98 32.31 120.73 33.23C120.52 33.97 120.4 34.68 120.36 35.34C120.11 35.48 119.84 35.63 119.55 35.79C118.84 36.17 118.11 36.52 117.32 36.84C116.54 37.16 115.78 37.43 115.03 37.65C114.28 37.87 113.63 37.98 113.09 37.98C113.9 37.28 114.63 36.5 115.27 35.64C115.92 34.78 116.45 33.92 116.87 33.04C117.29 32.17 117.62 31.32 117.84 30.51C118.06 29.69 118.18 28.98 118.18 28.37C118.18 27.18 117.92 26.2 117.41 25.44C116.9 24.69 115.91 24.3 114.44 24.3C113.99 24.3 113.43 24.4 112.75 24.59C112.07 24.78 111.37 25.07 110.63 25.46C109.89 25.85 109.16 26.36 108.43 26.97C107.69 27.58 107.04 28.29 106.47 29.1L106.34 29.1C106.43 28.85 106.56 28.49 106.74 28.04C106.93 27.59 107.09 27.16 107.24 26.75C107.42 26.25 107.63 25.74 107.87 25.22C108.74 24.52 109.68 23.76 110.68 22.94C111.69 22.13 112.64 21.34 113.54 20.59C115.31 19.13 116.8 17.78 118.02 16.54C119.23 15.3 120.2 14.19 120.94 13.2C121.68 12.21 122.21 11.35 122.54 10.62C122.87 9.89 123.04 9.31 123.04 8.87ZM183.6 35.36C183.02 35.84 182.35 36.37 181.58 36.94C181.47 37.03 181.35 37.11 181.23 37.2C181.26 37.12 181.29 37.04 181.33 36.96C181.5 36.55 181.74 36.19 182 35.89C182.28 35.58 182.55 35.33 182.84 35.12C183.12 34.92 183.38 34.79 183.62 34.73C183.6 34.9 183.59 35.1 183.6 35.36ZM138.46 34.56C138.5 34.57 138.55 34.58 138.6 34.59C138.74 34.61 138.78 34.81 138.75 35.13C138.75 35.22 138.5 35.46 138 35.83C138.04 35.73 138.08 35.63 138.11 35.53C138.23 35.2 138.34 34.88 138.46 34.56ZM120.36 35.34C120.71 35.13 121.02 34.93 121.28 34.74L121.33 35.61C121.03 35.81 120.7 36 120.35 36.2C120.35 36.07 120.34 35.93 120.34 35.78C120.34 35.64 120.35 35.49 120.36 35.34ZM83.82 36.28C83.8 36.01 83.79 35.73 83.79 35.44C83.79 35.35 83.79 35.25 83.8 35.16C83.93 35.06 84.06 34.97 84.2 34.87C84.32 35.04 84.39 35.17 84.42 35.26C84.45 35.35 84.45 35.49 84.42 35.7C84.42 35.78 84.22 35.98 83.82 36.28ZM101.78 36.28C101.78 36.26 101.78 36.24 101.78 36.21C101.78 35.89 101.82 35.51 101.88 35.08C101.98 35.01 102.07 34.94 102.17 34.87C102.29 35.04 102.37 35.17 102.39 35.26C102.42 35.35 102.41 35.49 102.38 35.7C102.38 35.78 102.18 35.97 101.78 36.28ZM119.98 10.26C119.98 10.88 119.85 11.49 119.59 12.1C119.34 12.71 118.96 13.35 118.47 14C117.97 14.66 117.37 15.36 116.65 16.12C115.92 16.88 115.1 17.71 114.17 18.61C112.88 19.86 111.72 20.88 110.71 21.65C109.69 22.42 108.89 23.05 108.32 23.55C109.25 21.19 110.19 19.07 111.13 17.22C112.08 15.35 112.99 13.78 113.86 12.52C114.73 11.25 115.56 10.28 116.35 9.61C117.15 8.94 117.87 8.6 118.53 8.6C119.1 8.6 119.49 8.73 119.68 9C119.88 9.26 119.98 9.68 119.98 10.26ZM29.96 14.81C29.96 16.36 29.46 17.86 28.47 19.31C27.49 20.77 26.18 22.08 24.56 23.27C22.94 24.45 21.1 25.43 19.05 26.2C16.99 26.97 14.9 27.43 12.77 27.57C12.29 29.06 11.86 30.31 11.48 31.33C11.11 32.35 10.85 33.34 10.7 34.3C10.55 35.14 10.5 35.81 10.54 36.29C10.59 36.77 10.62 37.21 10.62 37.62C10.62 37.74 10.52 38.01 10.32 38.43C10.12 38.86 9.96 39.17 9.8 39.37C9.47 39.81 9.11 40.18 8.72 40.49C8.33 40.8 7.85 40.95 7.28 40.95C7.1 40.95 6.9 40.84 6.67 40.64C6.45 40.44 6.34 40.09 6.34 39.59C6.34 38.57 6.53 37.39 6.92 36.05C7.31 34.71 7.76 33.34 8.27 31.94C8.38 31.6 8.54 31.19 8.71 30.72C8.89 30.25 9.06 29.81 9.21 29.41C9.39 28.91 9.57 28.4 9.75 27.88C8.94 27.85 8.31 27.75 7.84 27.57C7.37 27.4 7.14 27.15 7.14 26.83C7.14 26.57 7.17 26.27 7.23 25.93C7.3 25.59 7.49 25.41 7.82 25.39C8.08 25.39 8.28 25.5 8.4 25.73C8.52 25.97 8.74 26.16 9.07 26.3C9.37 26.44 9.64 26.52 9.89 26.52C10 26.54 10.16 26.54 10.33 26.52C11.09 24.56 11.84 22.56 12.61 20.51C13.37 18.46 14.23 16.18 15.2 13.67C15.62 13.29 16.04 13.03 16.48 12.86C16.91 12.7 17.3 12.59 17.63 12.54C18.02 12.48 18.41 12.48 18.8 12.54C18.65 13 18.36 13.78 17.92 14.87C17.49 15.96 16.99 17.18 16.44 18.52C15.88 19.86 15.32 21.24 14.75 22.65C14.18 24.06 13.69 25.32 13.31 26.43C14.87 26.4 16.44 26.1 18.02 25.51C19.59 24.92 21.01 24.16 22.27 23.21C23.53 22.27 24.55 21.16 25.35 19.89C26.15 18.63 26.55 17.28 26.55 15.85C26.55 14.34 25.96 13.14 24.79 12.27C23.62 11.39 21.82 10.96 19.39 10.96C17.77 10.96 16.12 11.1 14.44 11.39C12.75 11.69 11.16 12.09 9.65 12.59C8.13 13.1 6.76 13.71 5.53 14.4C4.3 15.1 3.33 15.85 2.6 16.63C2.37 16.9 2.21 17.16 2.16 17.44C2.09 17.72 2.04 17.97 2 18.2C1.96 18.43 1.89 18.63 1.8 18.77C1.71 18.91 1.53 18.99 1.26 18.99C0.93 18.99 0.63 18.95 0.38 18.88C0.13 18.8 0 18.52 0 18.03C0 17.68 0.28 17.21 0.83 16.63C1.38 16.04 2.16 15.43 3.17 14.77C4.18 14.12 5.35 13.45 6.71 12.78C8.06 12.12 9.53 11.5 11.12 10.94C12.71 10.39 14.37 9.94 16.11 9.61C17.85 9.28 19.63 9.11 21.42 9.11C23.02 9.11 24.36 9.24 25.45 9.52C26.55 9.8 27.43 10.19 28.11 10.7C28.78 11.21 29.27 11.82 29.55 12.51C29.83 13.21 29.96 14 29.96 14.81ZM309.09 34.39L309.47 34.87C309.28 35.01 309.05 35.16 308.79 35.32C308.86 35.13 308.92 34.95 308.96 34.79L309.09 34.39ZM330.29 34.72C329.84 34.99 329.38 35.26 328.92 35.54C328.21 35.95 327.52 36.33 326.85 36.66C326.17 37 325.52 37.27 324.91 37.48C324.29 37.69 323.72 37.79 323.18 37.79C322.92 37.79 322.77 37.7 322.74 37.48C322.71 37.28 322.7 37.07 322.7 36.88C322.7 36.58 322.76 36.11 322.9 35.5C323.03 34.88 323.22 34.18 323.47 33.4C323.73 32.62 324 31.77 324.31 30.85C324.62 29.92 324.96 29.01 325.31 28.08C326.31 26.75 327.11 25.49 327.7 24.33C328.28 23.18 328.58 22.21 328.58 21.46C328.58 21.16 328.52 20.96 328.39 20.86C328.25 20.76 328.08 20.71 327.87 20.71C327.72 20.71 327.54 20.72 327.34 20.75C327.12 20.78 326.91 20.86 326.67 20.97C326.32 21.13 326.06 21.27 325.88 21.37C325.71 21.46 325.46 21.66 325.13 21.97C324.55 22.55 324.1 23.23 323.81 24C323.52 24.77 323.21 25.63 322.89 26.58C322.7 27.09 322.58 27.44 322.51 27.63C322.42 27.83 322.3 28.14 322.13 28.56C321.95 28.81 321.4 29.17 320.47 29.63C319.55 30.09 318.2 30.43 316.43 30.65C315.82 30.74 315.28 30.78 314.84 30.78L314.17 30.78C314.41 30.11 314.65 29.42 314.88 28.72C315.09 28.13 315.32 27.51 315.57 26.84C315.82 26.16 316.06 25.52 316.3 24.91C316.42 24.57 316.55 24.22 316.72 23.84C316.88 23.46 317.04 23.11 317.18 22.79C317.32 22.47 317.44 22.18 317.53 21.95C317.62 21.71 317.66 21.55 317.66 21.46C317.66 21.16 317.56 21.01 317.35 21.01C316.94 21.01 316.41 21.14 315.74 21.42C315.08 21.71 314.5 22.25 314 23.06C313.82 23.34 313.63 23.71 313.44 24.17C313.26 24.63 313.05 25.14 312.83 25.72C312.6 26.29 312.38 26.88 312.14 27.52C311.91 28.14 311.66 28.75 311.39 29.34L310.99 30.26C310.5 30.32 310.09 30.46 309.78 30.68C309.47 30.9 309.32 31.17 309.32 31.48C309.32 31.85 309.33 32.06 309.36 32.13C309.38 32.2 309.5 32.34 309.71 32.57L309.09 34.39L309.07 34.37C307.69 35.21 306.39 35.93 305.18 36.55C303.97 37.16 303.05 37.47 302.4 37.47C302.02 37.47 301.8 37.37 301.74 37.16C301.67 36.95 301.64 36.75 301.64 36.56C301.64 36.3 301.7 36.02 301.82 35.72C301.93 35.41 302.06 35.09 302.22 34.74C302.36 34.39 302.49 34.05 302.62 33.72C302.73 33.39 302.79 33.06 302.79 32.75C302.79 32.14 302.6 31.73 302.2 31.54C301.8 31.34 301.41 31.15 301.03 30.95C301.82 30.14 302.53 29.29 303.15 28.39C303.68 27.64 304.18 26.8 304.63 25.88C305.08 24.96 305.32 24.02 305.32 23.08C305.32 22.21 305.11 21.56 304.7 21.11C304.29 20.67 303.51 20.44 302.36 20.44C301.8 20.44 301.06 20.61 300.13 20.93C299.21 21.25 298.3 21.71 297.41 22.31C296.53 22.91 295.76 23.65 295.12 24.53C294.47 25.4 294.14 26.4 294.14 27.49C294.14 28.3 294.28 28.99 294.56 29.54C294.84 30.1 295.19 30.57 295.6 30.96C296.01 31.35 296.45 31.69 296.92 31.96C297.39 32.25 297.8 32.51 298.16 32.76C297.87 33.07 297.42 33.51 296.82 34.09C296.21 34.66 295.59 35.19 294.94 35.65C294.26 36.16 293.6 36.55 292.93 36.83C292.26 37.11 291.6 37.25 290.92 37.25C290.42 37.25 290.04 37.13 289.77 36.89C289.5 36.66 289.31 36.37 289.19 36.05C289.08 35.73 289.01 35.41 289 35.09C289 34.99 289 34.89 289 34.8C289.2 34.67 289.37 34.55 289.5 34.46L289.13 33.97C288.46 34.39 287.77 34.81 287.08 35.22C286.38 35.64 285.72 36.02 285.07 36.35C284.42 36.68 283.83 36.96 283.28 37.17C282.74 37.38 282.26 37.48 281.85 37.48C281.47 37.48 281.26 37.36 281.25 37.12C281.23 36.88 281.23 36.66 281.23 36.47C281.23 36.25 281.32 35.76 281.5 35.02C281.68 34.28 281.9 33.44 282.16 32.51C282.43 31.58 282.72 30.61 283.05 29.62C283.38 28.63 283.69 27.76 284.02 27C284.29 26.5 284.57 25.96 284.84 25.39C285.12 24.81 285.38 24.26 285.61 23.71C285.85 23.17 286.04 22.67 286.19 22.22C286.34 21.78 286.41 21.44 286.41 21.22C286.41 20.83 286.26 20.64 285.93 20.64C285.78 20.64 285.56 20.65 285.26 20.69C284.97 20.74 284.65 20.82 284.31 20.93C283.97 21.05 283.63 21.17 283.29 21.33C282.95 21.47 282.68 21.68 282.47 21.93C282.06 22.65 281.67 23.44 281.32 24.3C280.96 25.14 280.65 26.03 280.35 26.95C280.08 27.35 279.79 27.74 279.49 28.13C279.18 28.52 278.83 28.95 278.43 29.42C278.03 29.9 277.57 30.44 277.03 31.02C276.5 31.61 275.88 32.28 275.18 33.03C274.44 33.81 273.82 34.42 273.32 34.84C272.82 35.25 272.38 35.57 272.04 35.76C271.69 35.95 271.39 36.06 271.15 36.09C270.92 36.12 270.69 36.13 270.49 36.13C270.13 36.13 269.86 36 269.69 35.75C269.5 35.51 269.38 35.21 269.31 34.87C269.22 34.54 269.2 34.2 269.21 33.85C269.23 33.5 269.23 33.23 269.23 33.03C268.95 33.12 268.64 33.24 268.31 33.39C267.98 33.55 267.7 33.74 267.47 33.96C267.29 34.15 267.14 34.39 267.01 34.67C266.94 34.8 266.89 34.94 266.84 35.08C265.47 35.96 264.14 36.67 262.83 37.2C261.23 37.85 259.79 38.18 258.52 38.18C258.05 38.18 257.68 38.16 257.41 38.12C257.14 38.09 257 38.05 256.97 38.02C258.12 37.38 259.18 36.55 260.15 35.55C261.13 34.54 261.98 33.45 262.72 32.3C263.46 31.14 264.03 29.96 264.44 28.75C264.85 27.56 265.06 26.45 265.06 25.44C265.06 23.8 264.68 22.63 263.93 21.94Q263.58 21.62 263.17 21.4Q262.28 20.92 261.13 20.92C260.24 20.92 259.46 21.03 258.79 21.23C258.11 21.44 257.48 21.71 256.91 22.03C256.33 22.35 255.8 22.71 255.3 23.12C254.79 23.53 254.31 23.94 253.84 24.35L253.71 24.35C253.61 24.27 253.51 24.19 253.38 24.1C253.25 24.01 253.03 23.97 252.74 23.97C252.33 23.97 251.96 24.05 251.63 24.21C251.31 24.36 251.05 24.54 250.83 24.73C250.57 24.99 250.28 25.34 249.97 25.8C249.66 26.26 249.36 26.78 249.07 27.35C248.77 27.93 248.48 28.54 248.21 29.19C247.93 29.84 247.68 30.51 247.48 31.19C247.21 32.02 247.01 32.78 246.86 33.45C246.79 33.79 246.73 34.14 246.69 34.51C246.31 34.74 245.93 34.97 245.54 35.21C244.82 35.63 244.14 36.02 243.51 36.35C242.88 36.68 242.29 36.97 241.74 37.19C241.2 37.41 240.77 37.52 240.44 37.52C240.14 37.52 240.01 37.46 240.02 37.36C240.04 37.25 240.04 37.09 240.04 36.9C240.04 36.75 240.13 36.4 240.3 35.83C240.48 35.25 240.68 34.62 240.92 33.92C241.16 33.22 241.38 32.54 241.61 31.89C241.82 31.22 241.98 30.73 242.07 30.4C242.66 28.55 243.19 26.92 243.64 25.51C244.09 24.1 244.35 23.04 244.41 22.31C244.44 22.09 244.42 21.9 244.35 21.75C244.28 21.59 244.12 21.51 243.89 21.51C243.57 21.51 243.08 21.65 242.41 21.93C241.75 22.21 240.92 22.7 239.93 23.4C238.95 24.1 237.79 25.02 236.45 26.16C235.1 27.31 233.62 28.73 232 30.44L231.87 30.44C232.04 29.97 232.2 29.53 232.33 29.14C232.46 28.75 232.61 28.33 232.77 27.91C232.94 27.47 233.11 26.99 233.29 26.46C233.47 25.93 233.69 25.27 233.95 24.49C234.16 23.91 234.36 23.29 234.59 22.67C234.81 22.05 234.94 21.62 234.97 21.4C234.97 21.09 234.87 20.94 234.66 20.94C234.45 20.94 234.17 21 233.8 21.1C233.43 21.22 233.05 21.38 232.65 21.59C232.25 21.8 231.88 22.08 231.54 22.41C231.2 22.75 230.97 23.14 230.85 23.59C230.79 23.72 230.72 23.96 230.63 24.3C230.54 24.63 230.43 25.01 230.32 25.42C230.21 25.84 230.08 26.27 229.97 26.7C229.86 27.14 229.73 27.54 229.62 27.9L227.86 33.68C227.7 34.02 227.57 34.32 227.46 34.6C227.33 34.87 227.16 35.25 226.92 35.73C226.59 36.37 226.37 36.92 226.26 37.37C226.14 37.81 226.08 38.18 226.08 38.49C226.08 38.57 226.1 38.73 226.14 38.95C226.19 39.18 226.36 39.28 226.66 39.28C226.89 39.28 227.12 39.24 227.34 39.16C227.57 39.07 227.8 38.9 228.05 38.65C228.31 38.4 228.58 38.03 228.89 37.54C229.2 37.04 229.56 36.38 229.97 35.55C230.38 34.74 230.83 33.95 231.31 33.2C231.81 32.44 232.46 31.59 233.29 30.64C233.93 29.88 234.61 29.16 235.3 28.46C235.98 27.77 236.63 27.16 237.22 26.62C237.81 26.1 238.32 25.67 238.79 25.37C239.25 25.06 239.57 24.91 239.74 24.91C240.07 24.91 240.24 24.96 240.25 25.05C240.27 25.15 240.27 25.28 240.27 25.41C240.24 25.69 240.16 26.08 240.03 26.56C239.89 27.05 239.74 27.61 239.55 28.26C239.35 28.9 239.12 29.59 238.88 30.35C238.63 31.1 238.38 31.89 238.11 32.69C237.9 33.37 237.7 34.06 237.47 34.79C237.26 35.52 237.05 36.2 236.86 36.84C236.67 37.48 236.51 38.06 236.39 38.56C236.28 39.07 236.22 39.43 236.22 39.65C236.22 39.88 236.25 40.07 236.31 40.26C236.36 40.44 236.53 40.53 236.79 40.53C237.24 40.53 237.97 40.29 239.02 39.82C240.06 39.34 241.34 38.65 242.84 37.73C243.2 37.5 243.62 37.24 244.12 36.95C244.61 36.66 245.12 36.36 245.62 36.07C245.97 35.87 246.31 35.66 246.64 35.45C246.64 35.51 246.64 35.57 246.64 35.63C246.64 36.47 246.75 37.18 246.99 37.77C247.22 38.36 247.54 38.84 247.94 39.2C248.34 39.56 248.79 39.82 249.28 39.97C249.79 40.13 250.3 40.21 250.83 40.21C252.36 40.21 253.82 39.86 255.21 39.16C255.55 39.26 256.05 39.32 256.66 39.32C258.87 39.32 260.87 38.91 262.65 38.11C263.94 37.52 265.26 36.81 266.6 35.97C266.57 36.12 266.55 36.27 266.52 36.42C266.48 36.7 266.46 36.93 266.46 37.09C266.46 37.69 266.58 38.22 266.81 38.71C267.04 39.2 267.5 39.44 268.18 39.44C268.57 39.44 268.99 39.38 269.44 39.25C269.9 39.13 270.42 38.88 271.01 38.52C271.6 38.16 272.26 37.66 273 37.02C273.73 36.37 274.57 35.52 275.51 34.46C276.37 33.5 277.15 32.6 277.83 31.73C278.52 30.86 279.12 30.18 279.62 29.68L279.79 29.76L279.35 31.44C278.79 33.53 278.37 35.15 278.09 36.29C277.81 37.44 277.67 38.3 277.67 38.85C277.67 39.11 277.73 39.37 277.84 39.63C277.96 39.9 278.21 40.03 278.59 40.03C278.83 40.03 279.1 40 279.39 39.94C279.68 39.9 280.04 39.78 280.47 39.61C280.9 39.45 281.43 39.21 282.04 38.92C282.67 38.63 283.42 38.23 284.3 37.73C284.71 37.5 285.16 37.24 285.66 36.93C286.09 36.67 286.5 36.41 286.91 36.15C286.86 36.24 286.81 36.34 286.76 36.44C286.59 36.83 286.5 37.25 286.5 37.7C286.5 37.83 286.52 38.03 286.56 38.28C286.6 38.53 286.7 38.78 286.84 39.01C286.99 39.24 287.21 39.46 287.51 39.64C287.81 39.83 288.2 39.92 288.7 39.92C289.03 39.92 289.38 39.89 289.76 39.83C290.14 39.77 290.58 39.64 291.08 39.45C291.59 39.25 292.14 38.97 292.76 38.61C293.38 38.25 294.08 37.75 294.84 37.1C295.99 36.15 296.86 35.36 297.47 34.72C298.07 34.08 298.54 33.56 298.9 33.17C298.96 33.2 299.04 33.23 299.13 33.26L299.28 33.4C299.32 33.44 299.34 33.51 299.34 33.59C299.34 33.75 299.25 34.06 299.08 34.49C298.9 34.92 298.7 35.41 298.48 35.94C298.26 36.48 298.06 37.01 297.89 37.54C297.71 38.08 297.62 38.51 297.62 38.88C297.62 39.14 297.7 39.39 297.87 39.66C298.03 39.92 298.36 40.06 298.86 40.06C299.13 40.06 299.42 40.03 299.72 39.97C300.03 39.92 300.4 39.82 300.83 39.68C301.26 39.55 301.76 39.33 302.33 39.05C302.9 38.77 303.57 38.42 304.34 38C305.4 37.41 306.39 36.83 307.33 36.26C307.9 35.9 308.39 35.59 308.79 35.32C308.74 35.49 308.68 35.67 308.61 35.86C308.47 36.27 308.32 36.66 308.19 37.03C308.07 37.41 307.94 37.76 307.84 38.09C307.74 38.41 307.69 38.64 307.69 38.78C307.69 39.14 307.74 39.41 307.84 39.57C307.94 39.74 308.24 39.83 308.74 39.83C309.09 39.83 309.45 39.75 309.82 39.61C310.19 39.47 310.62 39.17 311.13 38.69C311.42 38.41 311.7 38.01 311.95 37.47C312.2 36.95 312.43 36.38 312.63 35.8C312.84 35.21 313.02 34.63 313.17 34.08C313.31 33.51 313.41 33.06 313.48 32.73C313.71 32.73 313.98 32.7 314.28 32.65C314.51 32.59 314.79 32.54 315.12 32.5C315.45 32.45 315.78 32.37 316.13 32.27C317.1 32.01 317.94 31.74 318.63 31.45C319.31 31.16 319.9 30.89 320.37 30.67C320.89 30.39 321.36 30.12 321.74 29.83L321.34 30.96C321.22 31.27 321.11 31.58 321.01 31.91C320.91 32.23 320.82 32.49 320.76 32.68C320.56 33.36 320.35 34.05 320.13 34.78C319.91 35.51 319.7 36.19 319.51 36.83C319.32 37.47 319.16 38.05 319.05 38.55C318.93 39.06 318.87 39.42 318.87 39.64C318.87 39.87 318.91 40.08 319.01 40.28C319.1 40.47 319.33 40.57 319.71 40.57C320.16 40.57 320.92 40.35 321.97 39.93C323.04 39.52 324.36 38.91 325.95 38.13C327.2 37.52 328.29 36.91 329.25 36.29C329.58 36.08 329.89 35.88 330.16 35.69C330.15 35.9 330.14 36.09 330.14 36.29C330.14 37.43 330.32 38.34 330.67 39.01C331.02 39.68 331.76 40.01 332.88 40.01C334.09 40.01 335.44 39.56 336.92 38.65C338.41 37.75 339.82 36.51 341.14 34.94L341.32 34.94C341.26 35.17 341.19 35.45 341.12 35.8C341.05 36.15 340.98 36.51 340.93 36.89C340.87 37.27 340.81 37.65 340.77 38.04C340.73 38.43 340.71 38.77 340.71 39.04C340.71 39.57 340.82 40.01 341.06 40.36C341.3 40.71 341.64 40.89 342.08 40.89C342.64 40.89 343.39 40.65 344.33 40.2C345.28 39.74 346.27 39.17 347.34 38.5C348.4 37.83 349.44 37.13 350.46 36.39C351.48 35.65 352.32 35.01 353 34.42L352.6 33.91C351.92 34.39 351.23 34.88 350.52 35.4C349.81 35.92 349.13 36.38 348.45 36.8C347.77 37.22 347.12 37.56 346.48 37.82C345.84 38.09 345.27 38.22 344.73 38.22C344.5 38.22 344.3 38.13 344.14 37.95C343.97 37.76 343.89 37.37 343.89 36.75C343.89 36.47 344.12 35.7 344.58 34.45C345.03 33.19 345.61 31.68 346.28 29.92C346.63 29.03 346.97 28.32 347.28 27.81C347.59 27.29 347.86 26.73 348.1 26.12C348.4 25.86 348.64 25.64 348.85 25.44C349.05 25.25 349.22 25.06 349.33 24.9C349.44 24.73 349.53 24.54 349.58 24.33C349.62 24.12 349.64 23.87 349.64 23.56C349.64 23.08 349.49 22.69 349.18 22.38C348.87 22.07 348.5 21.82 348.07 21.65C347.64 21.46 347.21 21.34 346.77 21.27C346.32 21.2 345.96 21.16 345.66 21.16C344.04 21.16 342.37 21.49 340.66 22.14C338.96 22.8 337.14 23.99 335.22 25.73C334.43 26.46 333.72 27.26 333.1 28.16C332.47 29.05 331.95 29.98 331.51 30.92C331.06 31.88 330.73 32.81 330.49 33.75C330.41 34.09 330.34 34.41 330.29 34.72ZM330.29 34.72C330.52 34.57 330.76 34.43 330.99 34.28L331.43 34.79C331.11 35.04 330.68 35.34 330.16 35.69C330.19 35.38 330.23 35.06 330.29 34.72ZM266.6 35.97C266.63 35.83 266.66 35.69 266.7 35.55C266.74 35.38 266.78 35.23 266.84 35.08C267.14 34.88 267.45 34.67 267.76 34.46L268.16 34.96C267.64 35.32 267.12 35.65 266.6 35.97ZM286.91 36.15C287.06 35.88 287.23 35.64 287.43 35.42C287.7 35.13 287.97 34.88 288.25 34.69C288.53 34.49 288.78 34.37 289.02 34.31C289.01 34.44 289 34.61 289 34.8C288.85 34.9 288.69 35.01 288.51 35.13C288.07 35.41 287.62 35.7 287.14 36C287.07 36.05 286.99 36.1 286.91 36.15ZM246.64 35.45C246.64 35.13 246.66 34.81 246.69 34.51C247.01 34.31 247.33 34.12 247.64 33.93L248.05 34.42C247.82 34.64 247.48 34.9 247.04 35.2C246.91 35.28 246.77 35.37 246.64 35.45ZM42.52 24.6C42.52 25.01 42.45 25.48 42.33 26.02C42.22 26.56 42.03 27.11 41.77 27.68C41.52 28.25 41.22 28.81 40.88 29.36C40.53 29.92 40.13 30.43 39.68 30.9C39.14 30.55 38.69 30.23 38.31 29.94C37.94 29.64 37.64 29.33 37.41 29C37.19 28.66 37.02 28.28 36.91 27.86C36.81 27.44 36.76 26.92 36.76 26.31C36.76 24.96 37.14 23.9 37.91 23.09C38.67 22.29 39.6 21.89 40.68 21.89C40.83 21.89 41.01 21.92 41.22 21.98C41.43 22.04 41.63 22.17 41.83 22.36C42.03 22.55 42.19 22.82 42.33 23.19C42.46 23.55 42.52 24.01 42.52 24.6ZM197.76 24.6C197.76 25.01 197.69 25.48 197.57 26.02C197.45 26.56 197.27 27.11 197.01 27.68C196.76 28.25 196.46 28.81 196.12 29.36C195.77 29.92 195.37 30.43 194.92 30.9C194.38 30.55 193.93 30.23 193.55 29.94C193.18 29.64 192.87 29.33 192.65 29C192.43 28.66 192.26 28.28 192.15 27.86C192.05 27.44 192 26.92 192 26.31C192 24.96 192.38 23.9 193.15 23.09C193.91 22.29 194.84 21.89 195.92 21.89C196.07 21.89 196.25 21.92 196.46 21.98C196.67 22.04 196.87 22.17 197.07 22.36C197.27 22.55 197.43 22.82 197.57 23.19C197.7 23.55 197.76 24.01 197.76 24.6ZM302.72 25.93C302.83 25.41 302.89 24.96 302.89 24.57C302.89 24.01 302.84 23.58 302.71 23.23C302.58 22.87 302.42 22.61 302.23 22.43C302.03 22.24 301.84 22.13 301.63 22.07C301.43 22.01 301.24 21.98 301.1 21.98C300.03 21.98 299.13 22.36 298.38 23.13C297.63 23.89 297.25 24.92 297.25 26.2C297.25 26.79 297.3 27.28 297.4 27.69C297.51 28.1 297.66 28.46 297.89 28.78C298.1 29.1 298.4 29.4 298.77 29.69C299.14 29.97 299.58 30.28 300.11 30.61C300.55 30.16 300.94 29.68 301.28 29.14C301.62 28.61 301.92 28.07 302.17 27.53C302.42 26.98 302.61 26.45 302.72 25.93ZM78.66 23.11C78.66 22.65 78.53 22.36 78.26 22.24C77.99 22.13 77.69 22.06 77.36 22.06C76.79 22.06 76.07 22.28 75.22 22.72C74.36 23.15 73.56 23.84 72.81 24.77C72.48 25.18 72.15 25.68 71.82 26.26C71.49 26.84 71.19 27.48 70.9 28.18C70.61 28.88 70.37 29.62 70.18 30.39C69.98 31.15 69.87 31.92 69.84 32.68C70.44 32.18 71.05 31.67 71.68 31.15C72.22 30.68 72.81 30.17 73.44 29.62C74.07 29.06 74.66 28.49 75.24 27.91C76.23 26.93 77.05 26.03 77.7 25.25C78.34 24.46 78.66 23.75 78.66 23.11ZM96.62 23.11C96.62 22.65 96.49 22.36 96.21 22.24C95.95 22.13 95.65 22.06 95.32 22.06C94.75 22.06 94.03 22.28 93.18 22.72C92.32 23.15 91.52 23.84 90.77 24.77C90.44 25.18 90.11 25.68 89.78 26.26C89.45 26.84 89.14 27.48 88.86 28.18C88.57 28.88 88.33 29.62 88.13 30.39C87.94 31.15 87.82 31.92 87.8 32.68C88.4 32.18 89.01 31.67 89.64 31.15C90.18 30.68 90.76 30.17 91.39 29.62C92.03 29.06 92.62 28.49 93.2 27.91C94.19 26.93 95.01 26.03 95.65 25.25C96.3 24.46 96.62 23.75 96.62 23.11ZM177.73 23.98C177.67 23.78 177.53 23.59 177.32 23.42C177.11 23.24 176.87 23.09 176.6 22.96C176.33 22.83 176.06 22.74 175.79 22.68C175.52 22.62 175.32 22.59 175.2 22.59C174.43 22.59 173.69 22.68 173 22.85C172.31 23.02 171.64 23.3 171 23.7C170.35 24.09 169.71 24.61 169.08 25.25C168.45 25.89 167.8 26.69 167.15 27.65C166.79 28.18 166.45 28.81 166.14 29.53C165.82 30.26 165.53 31 165.28 31.74C165.03 32.48 164.83 33.2 164.7 33.88C164.56 34.57 164.49 35.12 164.49 35.56C164.49 36.49 164.68 37.13 165.05 37.46C165.43 37.79 165.83 37.96 166.25 37.96C167.26 37.96 168.42 37.47 169.71 36.5C171 35.53 172.17 33.95 173.23 31.76C173.68 30.83 174.03 29.96 174.29 29.16C174.54 28.36 174.82 27.62 175.12 26.95C175.21 26.72 175.35 26.43 175.55 26.08C175.75 25.73 175.97 25.41 176.22 25.1C176.47 24.79 176.73 24.54 176.99 24.31C177.24 24.09 177.49 23.98 177.73 23.98ZM345.96 24.3C346.2 24.09 346.45 23.98 346.68 23.98C346.62 23.79 346.49 23.59 346.28 23.42C346.08 23.25 345.84 23.11 345.58 22.98C345.31 22.86 345.04 22.77 344.78 22.71C344.51 22.65 344.31 22.62 344.2 22.62C343.43 22.62 342.71 22.71 342.04 22.87C341.36 23.04 340.7 23.31 340.06 23.69C339.43 24.07 338.8 24.57 338.19 25.18C337.57 25.79 336.93 26.56 336.29 27.49C335.93 27.99 335.6 28.59 335.29 29.29C334.99 29.98 334.7 30.69 334.45 31.4C334.21 32.11 334.01 32.8 333.88 33.45C333.74 34.12 333.68 34.65 333.68 35.07C333.68 35.96 333.87 36.57 334.24 36.89C334.61 37.21 335 37.38 335.41 37.38C336.41 37.38 337.55 36.91 338.81 35.97C340.09 35.04 341.23 33.52 342.26 31.43C342.7 30.53 343.05 29.71 343.3 28.94C343.55 28.18 343.82 27.47 344.12 26.83C344.21 26.6 344.34 26.32 344.54 25.99C344.73 25.65 344.96 25.34 345.21 25.04C345.45 24.75 345.71 24.51 345.96 24.3ZM56.74 22.98C56.5 22.98 56.22 23.28 55.91 23.88C55.59 24.48 55.28 25.16 54.98 25.91C54.68 26.67 54.43 27.4 54.22 28.12C54.01 28.83 53.89 29.3 53.86 29.54C54.1 29.31 54.36 28.98 54.62 28.56C54.89 28.14 55.16 27.7 55.44 27.23C55.7 26.76 55.95 26.29 56.16 25.8C56.37 25.32 56.53 24.89 56.66 24.52C56.78 24.11 56.9 23.75 57.02 23.45C57.14 23.14 57.04 22.98 56.74 22.98ZM261.11 29.8C261.38 28.71 261.53 27.72 261.53 26.83C261.53 25.82 261.32 24.98 260.88 24.32C260.44 23.67 259.66 23.34 258.54 23.34C258.21 23.34 257.74 23.43 257.1 23.59C256.47 23.76 255.9 24.04 255.4 24.43C255.1 24.66 254.77 24.99 254.43 25.43Q253.9 26.11 253.41 27.07C253.08 27.71 252.79 28.45 252.55 29.31C252.29 30.16 252.13 31.11 252.03 32.14C252.03 32.39 252.04 32.79 252.05 33.34C252.07 33.88 252.18 34.46 252.38 35.06C252.59 35.65 252.93 36.22 253.4 36.73C253.87 37.25 254.56 37.58 255.47 37.72C256.42 37.27 257.27 36.62 258.02 35.77C258.77 34.92 259.4 33.99 259.92 32.97C260.43 31.94 260.83 30.89 261.11 29.8ZM114.71 29.75C114.71 30.07 114.67 30.51 114.58 31.06C114.49 31.61 114.34 32.22 114.13 32.87C113.92 33.52 113.66 34.2 113.34 34.88C113.03 35.57 112.63 36.21 112.15 36.83C111.79 37.32 111.43 37.71 111.07 38C110.44 38.03 109.87 37.99 109.36 37.88C108.85 37.76 108.41 37.53 108.05 37.17C107.7 36.82 107.41 36.35 107.2 35.75C106.99 35.15 106.88 34.4 106.88 33.5C106.88 32.25 107.08 31.18 107.47 30.29C107.86 29.4 108.33 28.67 108.88 28.08C109.44 27.5 110.03 27.07 110.66 26.8C111.29 26.52 111.86 26.38 112.37 26.38C113.18 26.38 113.77 26.62 114.14 27.1C114.52 27.59 114.71 28.47 114.71 29.75ZM252.52 38.4L252.96 38.4C252.25 37.98 251.74 37.46 251.4 36.82C251.06 36.18 250.82 35.51 250.71 34.83C250.6 34.13 250.56 33.47 250.6 32.83C250.64 32.19 250.69 31.64 250.75 31.2L250.62 31.2C250.54 31.45 250.42 31.8 250.29 32.25C250.16 32.69 250.06 33.39 250 34.34C249.94 35.21 250 35.9 250.2 36.43C250.39 36.97 250.63 37.38 250.93 37.67C251.21 37.96 251.52 38.15 251.83 38.25C252.14 38.35 252.37 38.4 252.52 38.4ZM109.77 39.06C109.58 39.2 109.37 39.34 109.13 39.46C108.92 39.57 108.69 39.67 108.44 39.74C108.19 39.82 107.92 39.85 107.65 39.85C107.05 39.85 106.5 39.56 106.01 38.98C105.52 38.39 105.3 37.6 105.36 36.57L105.49 36.53C105.82 37.24 106.32 37.84 106.96 38.37C107.61 38.9 108.54 39.11 109.77 39.06Z" fill="#008B45" fill-opacity="1.000000" fill-rule="evenodd"/>
</svg>
