<svg width="88.000000" height="88.000000" viewBox="0 0 88 88" fill="none" xmlns="http://www.w3.org/2000/svg" xmlns:xlink="http://www.w3.org/1999/xlink">
	<desc>
			Created with Pixso.
	</desc>
	<defs>
		<clipPath id="clip69_14330">
			<rect id="country-house" width="88.000000" height="88.000000" fill="white" fill-opacity="0"/>
		</clipPath>
	</defs>
	<g clip-path="url(#clip69_14330)">
		<path id="path19" d="M12.26 49.11L12.24 49.13C12.24 49.97 12.9 50.63 13.74 50.63C14.58 50.63 15.24 49.97 15.24 49.13L15.22 49.11L12.26 49.11ZM17.76 45.84L17.74 45.86C17.74 46.7 18.4 47.36 19.24 47.36C20.08 47.36 20.74 46.7 20.74 45.86L20.72 45.84L17.76 45.84Z" fill="#000000" fill-opacity="0" fill-rule="nonzero"/>
		<path id="path19" d="M13.74 49.13L13.74 40.19L19.24 40.19L19.24 45.86" stroke="#55DB91" stroke-opacity="1.000000" stroke-width="3.000000" stroke-linejoin="round" stroke-linecap="round"/>
		<path id="path31" d="M19.75 40.19L13.22 40.19C12.84 40.19 12.54 39.89 12.54 39.51L12.54 35.73C12.54 35.35 12.84 35.04 13.22 35.04L19.75 35.04C20.13 35.04 20.44 35.35 20.44 35.73L20.44 39.51C20.44 39.89 20.13 40.19 19.75 40.19Z" fill="#000000" fill-opacity="0" fill-rule="nonzero"/>
		<path id="path31" d="M13.22 40.19C12.84 40.19 12.54 39.89 12.54 39.51L12.54 35.73C12.54 35.35 12.84 35.04 13.22 35.04L19.75 35.04C20.13 35.04 20.44 35.35 20.44 35.73L20.44 39.51C20.44 39.89 20.13 40.19 19.75 40.19L13.22 40.19Z" stroke="#55DB91" stroke-opacity="1.000000" stroke-width="3.000000" stroke-linejoin="round"/>
		<path id="path35" d="M55.17 83.08L55.19 83.1C56.03 83.1 56.69 82.44 56.69 81.6C56.69 80.76 56.03 80.1 55.19 80.1L55.17 80.12L55.17 83.08ZM61.15 80.12L61.13 80.1C60.29 80.1 59.63 80.76 59.63 81.6C59.63 82.44 60.29 83.1 61.13 83.1L61.15 83.08L61.15 80.12Z" fill="#000000" fill-opacity="0" fill-rule="nonzero"/>
		<path id="path35" d="M55.19 81.6L4.03 81.6C2.51 81.6 1.28 80.37 1.28 78.85C1.28 77.33 2.51 76.1 4.03 76.1L83.91 76.1C85.43 76.1 86.66 77.33 86.66 78.85C86.66 80.37 85.43 81.6 83.91 81.6L61.13 81.6" stroke="#55DB91" stroke-opacity="1.000000" stroke-width="3.000000" stroke-linejoin="round" stroke-linecap="round"/>
		<path id="path39" d="M51.12 56.99L51.14 56.97C51.14 56.13 50.48 55.47 49.64 55.47C48.8 55.47 48.14 56.13 48.14 56.97L48.16 56.99L51.12 56.99ZM12.3 56.99L12.32 56.97C12.32 56.13 11.66 55.47 10.82 55.47C9.98 55.47 9.32 56.13 9.32 56.97L9.34 56.99L12.3 56.99Z" fill="#000000" fill-opacity="0" fill-rule="nonzero"/>
		<path id="path39" d="M49.64 56.97L49.64 76.1L10.82 76.1L10.82 56.97" stroke="#55DB91" stroke-opacity="1.000000" stroke-width="3.000000" stroke-linejoin="round" stroke-linecap="round"/>
		<path id="path43" d="M28.17 76.1L17.86 76.1L17.86 60.12C17.86 59.74 18.17 59.43 18.55 59.43L27.48 59.43C27.86 59.43 28.17 59.74 28.17 60.12L28.17 76.1Z" fill="#000000" fill-opacity="0" fill-rule="nonzero"/>
		<path id="path43" d="M17.86 76.1L17.86 60.12C17.86 59.74 18.17 59.43 18.55 59.43L27.48 59.43C27.86 59.43 28.17 59.74 28.17 60.12L28.17 76.1L17.86 76.1Z" stroke="#55DB91" stroke-opacity="1.000000" stroke-width="3.000000" stroke-linejoin="round"/>
		<path id="path47" d="M42.77 67.77L33.84 67.77C33.46 67.77 33.15 67.46 33.15 67.08L33.15 60.12C33.15 59.74 33.46 59.43 33.84 59.43L42.77 59.43C43.15 59.43 43.46 59.74 43.46 60.12L43.46 67.08C43.46 67.46 43.15 67.77 42.77 67.77Z" fill="#000000" fill-opacity="0" fill-rule="nonzero"/>
		<path id="path47" d="M33.84 67.77C33.46 67.77 33.15 67.46 33.15 67.08L33.15 60.12C33.15 59.74 33.46 59.43 33.84 59.43L42.77 59.43C43.15 59.43 43.46 59.74 43.46 60.12L43.46 67.08C43.46 67.46 43.15 67.77 42.77 67.77L33.84 67.77Z" stroke="#55DB91" stroke-opacity="1.000000" stroke-width="3.000000" stroke-linejoin="round"/>
		<path id="path51" d="M32.81 53.08C32.81 54.5 31.65 55.66 30.23 55.66C28.81 55.66 27.65 54.5 27.65 53.08C27.65 51.66 28.81 50.5 30.23 50.5C31.65 50.5 32.81 51.66 32.81 53.08Z" fill="#000000" fill-opacity="0" fill-rule="nonzero"/>
		<path id="path51" d="M30.23 55.66C28.81 55.66 27.65 54.5 27.65 53.08C27.65 51.66 28.81 50.5 30.23 50.5C31.65 50.5 32.81 51.66 32.81 53.08C32.81 54.5 31.65 55.66 30.23 55.66Z" stroke="#55DB91" stroke-opacity="1.000000" stroke-width="3.000000" stroke-linejoin="round"/>
		<path id="path55" d="M80.24 38.62L80.26 38.59C80 37.79 79.17 37.36 78.37 37.62C77.57 37.87 77.14 38.7 77.4 39.5L77.42 39.52L80.24 38.62ZM74.22 35.78L74.22 35.81C74.98 36.18 75.86 35.89 76.23 35.13C76.61 34.38 76.31 33.5 75.56 33.12L75.53 33.13L74.22 35.78Z" fill="#000000" fill-opacity="0" fill-rule="nonzero"/>
		<path id="path55" d="M78.83 39.05C79.06 39.79 79.19 40.58 79.19 41.4C79.19 43.03 78.69 44.54 77.82 45.79C77.71 45.94 77.76 46.16 77.92 46.27C81.07 48.36 83.14 51.94 83.14 56C83.14 62.51 77.82 67.78 71.28 67.68C65.1 67.59 60 62.6 59.79 56.42C59.64 52.18 61.75 48.42 65.01 46.26C65.16 46.16 65.2 45.94 65.1 45.79C64.17 44.44 63.65 42.79 63.74 41.01C63.93 37.03 67.19 33.82 71.16 33.67C72.51 33.62 73.77 33.91 74.89 34.47" stroke="#008B45" stroke-opacity="1.000000" stroke-width="3.000000" stroke-linejoin="round" stroke-linecap="round"/>
		<path id="path59" d="M69.98 76.08L69.96 76.1C69.96 76.94 70.62 77.6 71.46 77.6C72.3 77.6 72.96 76.94 72.96 76.1L72.94 76.08L69.98 76.08ZM72.94 41.42L72.96 41.4C72.96 40.56 72.3 39.9 71.46 39.9C70.62 39.9 69.96 40.56 69.96 41.4L69.98 41.42L72.94 41.42Z" fill="#000000" fill-opacity="0" fill-rule="nonzero"/>
		<path id="path59" d="M71.46 76.1L71.46 41.4" stroke="#008B45" stroke-opacity="1.000000" stroke-width="3.000000" stroke-linejoin="round" stroke-linecap="round"/>
		<path id="path63" d="M71.44 61.72L71.46 61.74C72.3 61.74 72.96 61.08 72.96 60.24C72.96 59.4 72.3 58.74 71.46 58.74L71.44 58.76L71.44 61.72ZM64.92 55.64L64.92 55.61C64.32 55.01 63.39 55.01 62.8 55.61C62.2 56.2 62.2 57.14 62.8 57.73L62.82 57.73L64.92 55.64Z" fill="#000000" fill-opacity="0" fill-rule="nonzero"/>
		<path id="path63" d="M71.46 60.24L68.77 60.24C67.91 60.24 67.08 59.9 66.48 59.29L63.86 56.67" stroke="#008B45" stroke-opacity="1.000000" stroke-width="3.000000" stroke-linejoin="round" stroke-linecap="round"/>
		<path id="path67" d="M71.48 52.37L71.46 52.35C70.62 52.35 69.96 53.01 69.96 53.85C69.96 54.69 70.62 55.35 71.46 55.35L71.48 55.33L71.48 52.37ZM78.66 52.44L78.69 52.44C79.29 51.84 79.29 50.91 78.69 50.32C78.1 49.72 77.17 49.72 76.57 50.32L76.57 50.34L78.66 52.44Z" fill="#000000" fill-opacity="0" fill-rule="nonzero"/>
		<path id="path67" d="M71.46 53.85L74.13 53.85C74.79 53.85 75.42 53.59 75.89 53.12L77.63 51.38" stroke="#008B45" stroke-opacity="1.000000" stroke-width="3.000000" stroke-linejoin="round" stroke-linecap="round"/>
		<path id="path71" d="M56 18.72C56 22.23 53.15 25.08 49.64 25.08C46.13 25.08 43.29 22.23 43.29 18.72C43.29 15.21 46.13 12.36 49.64 12.36C53.15 12.36 56 15.21 56 18.72Z" fill="#000000" fill-opacity="0" fill-rule="nonzero"/>
		<path id="path71" d="M49.64 25.08C46.13 25.08 43.29 22.23 43.29 18.72C43.29 15.21 46.13 12.36 49.64 12.36C53.15 12.36 56 15.21 56 18.72C56 22.23 53.15 25.08 49.64 25.08Z" stroke="#008B45" stroke-opacity="1.000000" stroke-width="3.000000" stroke-linejoin="round"/>
		<path id="path75" d="M48.16 8.05L48.14 8.07C48.14 8.91 48.8 9.57 49.64 9.57C50.48 9.57 51.14 8.91 51.14 8.07L51.12 8.05L48.16 8.05ZM51.12 6.37L51.14 6.35C51.14 5.51 50.48 4.85 49.64 4.85C48.8 4.85 48.14 5.51 48.14 6.35L48.16 6.37L51.12 6.37Z" fill="#000000" fill-opacity="0" fill-rule="nonzero"/>
		<path id="path75" d="M49.64 8.07L49.64 6.35" stroke="#008B45" stroke-opacity="1.000000" stroke-width="3.000000" stroke-linejoin="round" stroke-linecap="round"/>
		<path id="path79" d="M48.16 31.07L48.14 31.09C48.14 31.93 48.8 32.59 49.64 32.59C50.48 32.59 51.14 31.93 51.14 31.09L51.12 31.07L48.16 31.07ZM51.12 29.39L51.14 29.37C51.14 28.53 50.48 27.87 49.64 27.87C48.8 27.87 48.14 28.53 48.14 29.37L48.16 29.39L51.12 29.39Z" fill="#000000" fill-opacity="0" fill-rule="nonzero"/>
		<path id="path79" d="M49.64 31.09L49.64 29.37" stroke="#008B45" stroke-opacity="1.000000" stroke-width="3.000000" stroke-linejoin="round" stroke-linecap="round"/>
		<path id="path83" d="M56.14 10.13L56.11 10.13C55.52 10.72 55.52 11.66 56.11 12.25C56.71 12.84 57.64 12.84 58.23 12.25L58.23 12.22L56.14 10.13ZM59.42 11.03L59.45 11.03C60.04 10.44 60.04 9.51 59.45 8.91C58.86 8.32 57.92 8.32 57.33 8.91L57.33 8.94L59.42 11.03Z" fill="#000000" fill-opacity="0" fill-rule="nonzero"/>
		<path id="path83" d="M57.17 11.19L58.39 9.97" stroke="#008B45" stroke-opacity="1.000000" stroke-width="3.000000" stroke-linejoin="round" stroke-linecap="round"/>
		<path id="path87" d="M39.86 26.41L39.84 26.41C39.24 27 39.24 27.93 39.84 28.53C40.43 29.12 41.36 29.12 41.96 28.53L41.96 28.5L39.86 26.41ZM43.14 27.31L43.17 27.31C43.77 26.72 43.77 25.79 43.17 25.19C42.58 24.6 41.64 24.6 41.05 25.19L41.05 25.22L43.14 27.31Z" fill="#000000" fill-opacity="0" fill-rule="nonzero"/>
		<path id="path87" d="M40.9 27.47L42.11 26.25" stroke="#008B45" stroke-opacity="1.000000" stroke-width="3.000000" stroke-linejoin="round" stroke-linecap="round"/>
		<path id="path91" d="M60.31 17.24L60.29 17.22C59.45 17.22 58.79 17.88 58.79 18.72C58.79 19.56 59.45 20.22 60.29 20.22L60.31 20.2L60.31 17.24ZM61.99 20.2L62.01 20.22C62.85 20.22 63.51 19.56 63.51 18.72C63.51 17.88 62.85 17.22 62.01 17.22L61.99 17.24L61.99 20.2Z" fill="#000000" fill-opacity="0" fill-rule="nonzero"/>
		<path id="path91" d="M60.29 18.72L62.01 18.72" stroke="#008B45" stroke-opacity="1.000000" stroke-width="3.000000" stroke-linejoin="round" stroke-linecap="round"/>
		<path id="path95" d="M37.29 17.24L37.27 17.22C36.43 17.22 35.77 17.88 35.77 18.72C35.77 19.56 36.43 20.22 37.27 20.22L37.29 20.2L37.29 17.24ZM38.97 20.2L38.99 20.22C39.83 20.22 40.49 19.56 40.49 18.72C40.49 17.88 39.83 17.22 38.99 17.22L38.97 17.24L38.97 20.2Z" fill="#000000" fill-opacity="0" fill-rule="nonzero"/>
		<path id="path95" d="M37.27 18.72L38.99 18.72" stroke="#008B45" stroke-opacity="1.000000" stroke-width="3.000000" stroke-linejoin="round" stroke-linecap="round"/>
		<path id="path99" d="M58.23 25.22L58.23 25.19C57.64 24.6 56.71 24.6 56.11 25.19C55.52 25.79 55.52 26.72 56.11 27.31L56.14 27.31L58.23 25.22ZM57.33 28.5L57.33 28.53C57.92 29.12 58.86 29.12 59.45 28.53C60.04 27.93 60.04 27 59.45 26.41L59.42 26.41L57.33 28.5Z" fill="#000000" fill-opacity="0" fill-rule="nonzero"/>
		<path id="path99" d="M57.17 26.25L58.39 27.47" stroke="#008B45" stroke-opacity="1.000000" stroke-width="3.000000" stroke-linejoin="round" stroke-linecap="round"/>
		<path id="path103" d="M41.96 8.94L41.96 8.91C41.36 8.32 40.43 8.32 39.84 8.91C39.24 9.51 39.24 10.44 39.84 11.03L39.86 11.03L41.96 8.94ZM41.05 12.22L41.05 12.25C41.64 12.84 42.58 12.84 43.17 12.25C43.77 11.66 43.77 10.72 43.17 10.13L43.14 10.13L41.05 12.22Z" fill="#000000" fill-opacity="0" fill-rule="nonzero"/>
		<path id="path103" d="M40.9 9.97L42.11 11.19" stroke="#008B45" stroke-opacity="1.000000" stroke-width="3.000000" stroke-linejoin="round" stroke-linecap="round"/>
		<path id="path107" d="M20.17 49.77L20.14 49.76C19.42 50.19 19.18 51.09 19.61 51.82C20.03 52.54 20.94 52.78 21.66 52.35L21.67 52.32L20.17 49.77ZM16.45 55.39L16.47 55.39C17.2 54.97 17.43 54.06 17.01 53.34C16.58 52.62 15.68 52.38 14.96 52.8L14.95 52.83L16.45 55.39Z" fill="#000000" fill-opacity="0" fill-rule="nonzero"/>
		<path id="path107" d="M20.9 51.06L30.23 45.59L51.77 58.22C52.18 58.46 52.63 58.58 53.08 58.58C53.96 58.58 54.82 58.12 55.3 57.3C56.02 56.07 55.61 54.5 54.38 53.78L31.53 40.38C30.73 39.9 29.73 39.9 28.93 40.38L6.08 53.78C4.85 54.5 4.44 56.07 5.16 57.3C5.88 58.53 7.46 58.94 8.69 58.22L15.72 54.1" stroke="#55DB91" stroke-opacity="1.000000" stroke-width="3.000000" stroke-linejoin="round" stroke-linecap="round"/>
		<path id="path111" d="M36.82 67.66L36.8 67.68C36.8 68.52 37.46 69.18 38.3 69.18C39.14 69.18 39.8 68.52 39.8 67.68L39.78 67.66L36.82 67.66ZM39.78 59.45L39.8 59.43C39.8 58.59 39.14 57.93 38.3 57.93C37.46 57.93 36.8 58.59 36.8 59.43L36.82 59.45L39.78 59.45Z" fill="#000000" fill-opacity="0" fill-rule="nonzero"/>
		<path id="path111" d="M38.3 67.68L38.3 59.43" stroke="#55DB91" stroke-opacity="1.000000" stroke-width="3.000000" stroke-linejoin="round" stroke-linecap="round"/>
	</g>
</svg>
