<svg width="88.000000" height="88.000000" viewBox="0 0 88 88" fill="none" xmlns="http://www.w3.org/2000/svg" xmlns:xlink="http://www.w3.org/1999/xlink">
	<desc>
			Created with Pixso.
	</desc>
	<defs>
		<clipPath id="clip69_14411">
			<rect id="nature" width="88.000000" height="88.000000" fill="white" fill-opacity="0"/>
		</clipPath>
	</defs>
	<g clip-path="url(#clip69_14411)">
		<path id="path291" d="M21.37 86.34L21.35 86.36C21.35 87.2 22.01 87.86 22.85 87.86C23.69 87.86 24.35 87.2 24.35 86.36L24.33 86.34L21.37 86.34ZM24.33 45.98L24.35 45.96C24.35 45.12 23.69 44.46 22.85 44.46C22.01 44.46 21.35 45.12 21.35 45.96L21.37 45.98L24.33 45.98Z" fill="#000000" fill-opacity="0" fill-rule="nonzero"/>
		<path id="path291" d="M22.85 86.36L22.85 45.96" stroke="#55DB91" stroke-opacity="1.000000" stroke-width="3.000000" stroke-linejoin="round" stroke-linecap="round"/>
		<path id="path295" d="M21.82 61.86L21.79 61.86C21.2 62.45 21.2 63.38 21.79 63.98C22.39 64.57 23.32 64.57 23.92 63.98L23.92 63.95L21.82 61.86ZM32.22 55.63L32.25 55.63C32.84 55.03 32.84 54.1 32.25 53.51C31.65 52.91 30.72 52.92 30.13 53.51L30.13 53.54L32.22 55.63Z" fill="#000000" fill-opacity="0" fill-rule="nonzero"/>
		<path id="path295" d="M22.85 62.92L31.19 54.57" stroke="#55DB91" stroke-opacity="1.000000" stroke-width="3.000000" stroke-linejoin="round" stroke-linecap="round"/>
		<path id="path299" d="M17.63 48.17L17.63 48.14C17.04 47.55 16.1 47.55 15.51 48.14C14.92 48.73 14.91 49.67 15.51 50.26L15.54 50.26L17.63 48.17ZM21.79 56.53L21.79 56.56C22.39 57.15 23.32 57.15 23.91 56.56C24.51 55.96 24.51 55.03 23.92 54.44L23.89 54.44L21.79 56.53Z" fill="#000000" fill-opacity="0" fill-rule="nonzero"/>
		<path id="path299" d="M16.57 49.2L22.85 55.5" stroke="#55DB91" stroke-opacity="1.000000" stroke-width="3.000000" stroke-linejoin="round" stroke-linecap="round"/>
		<path id="path311" d="M42.49 85.3L42.47 85.32C42.47 86.16 43.13 86.82 43.97 86.82C44.81 86.82 45.47 86.16 45.47 85.32L45.45 85.3L42.49 85.3ZM45.45 18.25L45.47 18.23C45.47 17.39 44.81 16.73 43.97 16.73C43.13 16.73 42.47 17.39 42.47 18.23L42.49 18.25L45.45 18.25Z" fill="#000000" fill-opacity="0" fill-rule="nonzero"/>
		<path id="path311" d="M43.97 85.32L43.97 18.23" stroke="#55DB91" stroke-opacity="1.000000" stroke-width="3.000000" stroke-linejoin="round" stroke-linecap="round"/>
		<path id="path315" d="M42.98 28.59L42.95 28.59C42.36 29.18 42.36 30.12 42.95 30.71C43.54 31.3 44.48 31.3 45.07 30.71L45.07 30.68L42.98 28.59ZM50.79 24.95L50.82 24.95C51.41 24.36 51.41 23.43 50.82 22.83C50.22 22.24 49.29 22.24 48.7 22.83L48.7 22.86L50.79 24.95Z" fill="#000000" fill-opacity="0" fill-rule="nonzero"/>
		<path id="path315" d="M44.01 29.65L49.76 23.89" stroke="#55DB91" stroke-opacity="1.000000" stroke-width="3.000000" stroke-linejoin="round" stroke-linecap="round"/>
		<path id="path319" d="M37.84 29.51L37.84 29.48C37.25 28.89 36.32 28.89 35.72 29.48C35.13 30.08 35.13 31.01 35.72 31.6L35.75 31.6L37.84 29.51ZM42.58 38.45L42.58 38.47C43.18 39.07 44.11 39.07 44.7 38.48C45.3 37.88 45.3 36.95 44.71 36.35L44.68 36.35L42.58 38.45Z" fill="#000000" fill-opacity="0" fill-rule="nonzero"/>
		<path id="path319" d="M36.78 30.54L43.64 37.41" stroke="#55DB91" stroke-opacity="1.000000" stroke-width="3.000000" stroke-linejoin="round" stroke-linecap="round"/>
		<path id="path335" d="M62.52 86.34L62.5 86.36C62.5 87.2 63.16 87.86 64 87.86C64.84 87.86 65.5 87.2 65.5 86.36L65.48 86.34L62.52 86.34ZM65.48 51.17L65.5 51.15C65.5 50.31 64.84 49.65 64 49.65C63.16 49.65 62.5 50.31 62.5 51.15L62.52 51.17L65.48 51.17Z" fill="#000000" fill-opacity="0" fill-rule="nonzero"/>
		<path id="path335" d="M64 86.36L64 51.15" stroke="#008B45" stroke-opacity="1.000000" stroke-width="3.000000" stroke-linejoin="round" stroke-linecap="round"/>
		<path id="path339" d="M62.97 57.96L62.94 57.96C62.35 58.56 62.35 59.49 62.94 60.08C63.54 60.68 64.47 60.68 65.06 60.08L65.06 60.05L62.97 57.96ZM72.3 52.81L72.33 52.81C72.92 52.21 72.92 51.28 72.33 50.69C71.73 50.09 70.8 50.09 70.21 50.69L70.21 50.72L72.3 52.81Z" fill="#000000" fill-opacity="0" fill-rule="nonzero"/>
		<path id="path339" d="M64 59.02L71.27 51.75" stroke="#008B45" stroke-opacity="1.000000" stroke-width="3.000000" stroke-linejoin="round" stroke-linecap="round"/>
		<path id="path343" d="M58.23 57.71L58.23 57.69C57.63 57.09 56.7 57.09 56.1 57.68C55.51 58.28 55.51 59.21 56.1 59.81L56.13 59.81L58.23 57.71ZM62.94 66.63L62.94 66.65C63.53 67.25 64.47 67.25 65.06 66.66C65.66 66.06 65.66 65.13 65.06 64.53L65.04 64.53L62.94 66.63Z" fill="#000000" fill-opacity="0" fill-rule="nonzero"/>
		<path id="path343" d="M57.16 58.75L64 65.59" stroke="#008B45" stroke-opacity="1.000000" stroke-width="3.000000" stroke-linejoin="round" stroke-linecap="round"/>
		<path id="path347" d="M1.73 84.88L1.71 84.86C0.87 84.86 0.21 85.52 0.21 86.36C0.21 87.2 0.87 87.86 1.71 87.86L1.73 87.84L1.73 84.88ZM86.21 87.84L86.23 87.86C87.07 87.86 87.73 87.2 87.73 86.36C87.73 85.52 87.07 84.86 86.23 84.86L86.21 84.88L86.21 87.84Z" fill="#000000" fill-opacity="0" fill-rule="nonzero"/>
		<path id="path347" d="M1.71 86.36L86.23 86.36" stroke="#55DB91" stroke-opacity="1.000000" stroke-width="3.000000" stroke-linejoin="round" stroke-linecap="round"/>
		<path id="path351" d="M86.23 10.26C86.23 14.98 82.41 18.81 77.7 18.81C72.99 18.81 69.17 14.98 69.17 10.26C69.17 5.54 72.99 1.72 77.7 1.72C82.41 1.72 86.23 5.54 86.23 10.26Z" fill="#000000" fill-opacity="0" fill-rule="nonzero"/>
		<path id="path351" d="M77.7 18.81C72.99 18.81 69.17 14.98 69.17 10.26C69.17 5.54 72.99 1.72 77.7 1.72C82.41 1.72 86.23 5.54 86.23 10.26C86.23 14.98 82.41 18.81 77.7 18.81Z" stroke="#008B45" stroke-opacity="1.000000" stroke-width="3.000000" stroke-linejoin="round"/>
		<path id="path355" d="M4.51 57.92L4.52 57.89C4.22 57.11 3.37 56.73 2.58 57.03C1.8 57.33 1.42 58.19 1.72 58.97L1.75 58.98L4.51 57.92ZM45.29 53.72L45.31 53.71C45.42 52.87 44.85 52.13 44.01 52.03C43.18 51.92 42.44 52.49 42.34 53.33L42.36 53.35L45.29 53.72Z" fill="#000000" fill-opacity="0" fill-rule="nonzero"/>
		<path id="path355" d="M3.12 58.43C6.17 66.37 13.86 71.99 22.85 71.99C33.62 71.99 42.5 63.94 43.83 53.52" stroke="#55DB91" stroke-opacity="1.000000" stroke-width="3.000000" stroke-linejoin="round" stroke-linecap="round"/>
		<path id="path359" d="M28.7 32.01L28.72 32.04C29.52 32.29 30.34 31.86 30.59 31.05C30.85 30.25 30.41 29.43 29.61 29.18L29.59 29.19L28.7 32.01ZM1.75 42.66L1.72 42.67C1.42 43.45 1.8 44.31 2.58 44.61C3.37 44.91 4.22 44.53 4.52 43.75L4.51 43.72L1.75 42.66Z" fill="#000000" fill-opacity="0" fill-rule="nonzero"/>
		<path id="path359" d="M29.16 30.61C27.17 29.98 25.05 29.65 22.85 29.65C13.86 29.65 6.17 35.28 3.12 43.21" stroke="#55DB91" stroke-opacity="1.000000" stroke-width="3.000000" stroke-linejoin="round" stroke-linecap="round"/>
		<path id="path363" d="M57.18 31.56L57.16 31.57C57.05 32.41 57.61 33.15 58.44 33.26C59.27 33.38 60.02 32.82 60.13 31.98L60.12 31.96L57.18 31.56ZM53.57 47.25L53.59 47.25C54.12 46.59 54.01 45.66 53.36 45.14C52.7 44.61 51.77 44.72 51.25 45.38L51.25 45.41L53.57 47.25Z" fill="#000000" fill-opacity="0" fill-rule="nonzero"/>
		<path id="path363" d="M58.65 31.78C58.83 30.43 58.93 29.06 58.93 27.66C58.93 16.57 52.91 6.89 43.97 1.72C35.03 6.89 29.02 16.57 29.02 27.66C29.02 38.75 35.03 48.42 43.97 53.6C47.23 51.72 50.09 49.24 52.42 46.31" stroke="#55DB91" stroke-opacity="1.000000" stroke-width="3.000000" stroke-linejoin="round" stroke-linecap="round"/>
		<path id="path367" d="" fill="#000000" fill-opacity="0" fill-rule="nonzero"/>
		<path id="path367" d="" stroke="#55DB91" stroke-opacity="1.000000" stroke-width="3.000000" stroke-linejoin="round"/>
		<path id="path331" d="M77.79 46.52C78.07 45.46 78.21 44.35 78.21 43.21C78.21 35.96 72.34 30.08 65.1 30.08C57.86 30.08 52 35.96 52 43.21C52 45.3 52.48 47.27 53.35 49.03C47.97 50.36 43.97 55.24 43.97 61.04C43.97 67.88 49.51 73.42 56.33 73.42C59.23 73.42 61.89 72.42 64 70.74C66.31 72.43 69.16 73.42 72.23 73.42C79.96 73.42 86.23 67.14 86.23 59.4C86.23 53.63 82.76 48.68 77.79 46.52Z" fill="#000000" fill-opacity="0" fill-rule="nonzero"/>
		<path id="path331" d="M78.21 43.21C78.21 35.96 72.34 30.08 65.1 30.08C57.86 30.08 52 35.96 52 43.21C52 45.3 52.48 47.27 53.35 49.03C47.97 50.36 43.97 55.24 43.97 61.04C43.97 67.88 49.51 73.42 56.33 73.42C59.23 73.42 61.89 72.42 64 70.74C66.31 72.43 69.16 73.42 72.23 73.42C79.96 73.42 86.23 67.14 86.23 59.4C86.23 53.63 82.76 48.68 77.79 46.52C78.07 45.46 78.21 44.35 78.21 43.21Z" stroke="#008B45" stroke-opacity="1.000000" stroke-width="3.000000" stroke-linejoin="round"/>
	</g>
</svg>
