<svg width="40.038086" height="40.000000" viewBox="0 0 40.0381 40" fill="none" xmlns="http://www.w3.org/2000/svg" xmlns:xlink="http://www.w3.org/1999/xlink">
	<desc>
			Created with Pixso.
	</desc>
	<defs/>
	<circle id="Эллипс 1" r="12.500000" transform="matrix(-1 0 0 -1 20.0381 20)" fill="#FFFFFF" fill-opacity="1.000000"/>
	<path id="path" d="M19.99 40C29.32 40 37.64 33.31 39.59 24.2C40.57 19.65 39.91 14.81 37.74 10.69C35.64 6.73 32.21 3.52 28.1 1.71C23.83 -0.18 18.93 -0.51 14.44 0.78C10.11 2.02 6.27 4.75 3.66 8.41C-1.81 16.06 -1.08 26.8 5.35 33.66C9.12 37.68 14.47 40 19.99 40ZM10.37 18.93L15.84 13.35C17.22 11.93 19.41 14.08 18.03 15.48L15.27 18.3L28.34 18.3C29.27 18.3 30.04 19.07 30.04 20C30.04 20.92 29.27 21.7 28.34 21.7L15.34 21.7L18.15 24.5C19.55 25.89 17.38 28.06 15.98 26.66L10.39 21.08C9.79 20.49 9.79 19.53 10.37 18.93Z" fill="#008B45" fill-opacity="1.000000" fill-rule="nonzero"/>
</svg>
