<svg width="21.998383" height="23.998535" viewBox="0 0 21.9984 23.9985" fill="none" xmlns="http://www.w3.org/2000/svg" xmlns:xlink="http://www.w3.org/1999/xlink">
	<desc>
			Created with Pixso.
	</desc>
	<defs/>
	<path id="path" d="M21.8 6.05C21.66 3.67 19.73 1.81 17.41 1.81L16.27 1.81L16.27 0.9C16.27 0.4 15.88 0 15.39 0C14.91 0 14.51 0.4 14.51 0.9L14.51 1.81L7.47 1.81L7.47 0.9C7.47 0.4 7.08 0 6.59 0C6.11 0 5.71 0.4 5.71 0.9L5.71 1.81L4.58 1.81C2.26 1.81 0.33 3.67 0.19 6.05C-0.07 10.53 -0.07 15.07 0.2 19.54C0.34 21.82 2.11 23.64 4.32 23.78C6.53 23.92 8.76 23.99 10.99 23.99C13.22 23.99 15.45 23.92 17.67 23.78C19.88 23.64 21.65 21.82 21.79 19.54C22.06 15.07 22.06 10.53 21.8 6.05ZM20.03 19.43C19.95 20.8 18.89 21.89 17.56 21.97C13.2 22.25 8.79 22.25 4.43 21.97C3.1 21.89 2.04 20.8 1.96 19.43C1.75 15.99 1.71 12.51 1.82 9.05L20.17 9.05C20.28 12.51 20.24 15.99 20.03 19.43ZM6.59 5.43C7.08 5.43 7.47 5.02 7.47 4.52L7.47 3.62L14.51 3.62L14.51 4.52C14.51 5.02 14.91 5.43 15.39 5.43C15.88 5.43 16.27 5.02 16.27 4.52L16.27 3.62L17.41 3.62C18.8 3.62 19.96 4.73 20.04 6.16C20.07 6.52 20.07 6.88 20.09 7.24L1.9 7.24C1.92 6.88 1.92 6.52 1.94 6.16C2.03 4.73 3.19 3.62 4.58 3.62L5.71 3.62L5.71 4.52C5.71 5.02 6.11 5.43 6.59 5.43Z" fill="#FFFFFF" fill-opacity="1.000000" fill-rule="nonzero"/>
	<ellipse id="circle" cx="6.599426" cy="13.131836" rx="1.320000" ry="1.358490" fill="#FFFFFF" fill-opacity="1.000000"/>
	<ellipse id="circle" cx="10.999451" cy="13.131836" rx="1.320000" ry="1.358490" fill="#FFFFFF" fill-opacity="1.000000"/>
	<ellipse id="circle" cx="6.599426" cy="17.660156" rx="1.320000" ry="1.358490" fill="#FFFFFF" fill-opacity="1.000000"/>
	<ellipse id="circle" cx="15.399475" cy="13.131836" rx="1.320000" ry="1.358490" fill="#FFFFFF" fill-opacity="1.000000"/>
	<circle id="circle" cx="16.000000" cy="18.000000" r="2.000000" fill="#55DB91" fill-opacity="1.000000"/>
	<ellipse id="circle" cx="10.999451" cy="17.660156" rx="1.320000" ry="1.358490" fill="#FFFFFF" fill-opacity="1.000000"/>
</svg>
