<svg width="24.000000" height="24.000000" viewBox="0 0 24 24" fill="none" xmlns="http://www.w3.org/2000/svg" xmlns:xlink="http://www.w3.org/1999/xlink">
	<desc>
			Created with Pixso.
	</desc>
	<defs>
		<clipPath id="clip21_755">
			<rect id="Phone" width="24.000000" height="24.000000" fill="white" fill-opacity="0"/>
		</clipPath>
	</defs>
	<g clip-path="url(#clip21_755)">
		<circle id="Эллипс 1" cx="11.699951" cy="11.699951" r="11.699999" fill="#008B45" fill-opacity="1.000000"/>
		<path id="Слияние" d="M9.72498 4.80005L13.9249 4.80005C17.3019 4.80005 20.0499 7.54736 20.0499 10.925C20.0499 11.2148 19.8148 11.4501 19.525 11.4501L18.0197 11.4501L18.6459 16.4601C18.65 17.5867 17.7859 18.4501 16.725 18.4501L6.92493 18.4501C5.86401 18.4501 5 17.5867 5 16.525L5.63074 11.4501L4.125 11.4501C3.83508 11.4501 3.59998 11.2148 3.59998 10.925C3.59998 7.54736 6.34802 4.80005 9.72498 4.80005ZM15.85 9.52502L15.85 10.4L18.9727 10.4C18.7087 7.84753 16.5459 5.8501 13.9249 5.8501L9.72498 5.8501C7.10413 5.8501 4.94116 7.84753 4.67737 10.4L7.79993 10.4L7.79993 9.52502C7.79993 8.46338 8.66406 7.6001 9.72498 7.6001L13.9249 7.6001C14.986 7.6001 15.85 8.46338 15.85 9.52502ZM16.725 17.4C17.2076 17.4 17.6 17.0077 17.6 16.525L16.9619 11.4501L15.325 11.4501C15.0352 11.4501 14.7999 11.2148 14.7999 10.925L14.7999 9.52502C14.7999 9.04248 14.4076 8.65002 13.9249 8.65002L9.72498 8.65002C9.24231 8.65002 8.84998 9.04248 8.84998 9.52502L8.84998 10.925C8.84998 11.2148 8.61487 11.4501 8.32495 11.4501L6.68835 11.4501L6.0459 16.59C6.04993 17.0077 6.44238 17.4 6.92493 17.4L16.725 17.4ZM11.825 10.75C10.3771 10.75 9.19995 11.9279 9.19995 13.375C9.19995 14.8223 10.3771 16 11.825 16C13.2728 16 14.45 14.8223 14.45 13.375C14.45 11.9279 13.2728 10.75 11.825 10.75ZM11.825 14.9501C10.9568 14.9501 10.25 14.2432 10.25 13.375C10.25 12.5068 10.9568 11.8 11.825 11.8C12.6931 11.8 13.3999 12.5068 13.3999 13.375C13.3999 14.2432 12.6931 14.9501 11.825 14.9501Z" clip-rule="evenodd" fill="#FFFFFF" fill-opacity="1.000000" fill-rule="evenodd"/>
	</g>
</svg>
