<svg width="16" height="16" viewBox="0 0 16 16" fill="none" xmlns="http://www.w3.org/2000/svg">
<g id="close 1" clip-path="url(#clip0_1642_567)">
<g id="Group">
<g id="close_1_">
<path id="Vector" d="M1.51672 15.8995C1.12445 15.9223 0.738661 15.7919 0.440711 15.5358C-0.146904 14.9447 -0.146904 13.99 0.440711 13.3989L13.3075 0.532C13.9187 -0.0398937 14.8777 -0.00810248 15.4496 0.603069C15.9668 1.15575 15.9969 2.00523 15.5202 2.59314L2.57756 15.5358C2.28346 15.7882 1.90386 15.9184 1.51672 15.8995Z" fill="white"/>
<path id="Vector_2" d="M14.3684 15.8996C13.9708 15.8979 13.5898 15.74 13.3075 15.4601L0.440589 2.59313C-0.103806 1.9574 -0.0297925 1.00067 0.605933 0.456224C1.17334 -0.0296788 2.01014 -0.0296788 2.57749 0.456224L15.5201 13.3231C16.1312 13.8952 16.1628 14.8542 15.5907 15.4653C15.5679 15.4896 15.5444 15.5131 15.5201 15.5358C15.2032 15.8114 14.7861 15.9431 14.3684 15.8996Z" fill="white"/>
</g>
</g>
</g>
<defs>
<clipPath id="clip0_1642_567">
<rect width="16" height="16" fill="white"/>
</clipPath>
</defs>
</svg>
