<svg width="24.000000" height="24.000000" viewBox="0 0 24 24" fill="none" xmlns="http://www.w3.org/2000/svg" xmlns:xlink="http://www.w3.org/1999/xlink">
	<desc>
			Created with Pixso.
	</desc>
	<defs>
		<clipPath id="clip21_1093">
			<rect id="menus" width="24.000000" height="24.000000" fill="white" fill-opacity="0"/>
		</clipPath>
	</defs>
	<g clip-path="url(#clip21_1093)">
		<path id="path" d="M3.59 6C3.59 5.68 3.72 5.37 3.95 5.15C4.17 4.92 4.48 4.79 4.79 4.79L19.2 4.79C19.51 4.79 19.82 4.92 20.04 5.15C20.27 5.37 20.4 5.68 20.4 6C20.4 6.31 20.27 6.62 20.04 6.84C19.82 7.07 19.51 7.2 19.2 7.2L4.79 7.2C4.48 7.2 4.17 7.07 3.95 6.84C3.72 6.62 3.59 6.31 3.59 6ZM3.59 12C3.59 11.68 3.72 11.37 3.95 11.15C4.17 10.92 4.48 10.8 4.79 10.8L12 10.8C12.31 10.8 12.62 10.92 12.84 11.15C13.07 11.37 13.2 11.68 13.2 12C13.2 12.31 13.07 12.62 12.84 12.84C12.62 13.07 12.31 13.2 12 13.2L4.79 13.2C4.48 13.2 4.17 13.07 3.95 12.84C3.72 12.62 3.59 12.31 3.59 12ZM3.59 18C3.59 17.68 3.72 17.37 3.95 17.15C4.17 16.92 4.48 16.79 4.79 16.79L19.2 16.79C19.51 16.79 19.82 16.92 20.04 17.15C20.27 17.37 20.4 17.68 20.4 18C20.4 18.31 20.27 18.62 20.04 18.84C19.82 19.07 19.51 19.2 19.2 19.2L4.79 19.2C4.48 19.2 4.17 19.07 3.95 18.84C3.72 18.62 3.59 18.31 3.59 18Z" fill="#55DB91" fill-opacity="1.000000" fill-rule="evenodd"/>
	</g>
</svg>
