<svg width="8.000000" height="8.000000" viewBox="0 0 8 8" fill="none" xmlns="http://www.w3.org/2000/svg" xmlns:xlink="http://www.w3.org/1999/xlink">
	<desc>
			Created with Pixso.
	</desc>
	<defs/>
	<path id="path" d="M7.8 3.52L4.47 0.19C4.21 -0.07 3.78 -0.07 3.52 0.19C3.26 0.45 3.26 0.88 3.52 1.14L6.37 4L3.52 6.85C3.26 7.11 3.26 7.54 3.52 7.8C3.78 8.06 4.21 8.06 4.47 7.8L7.8 4.47C8.06 4.21 8.06 3.78 7.8 3.52ZM3.8 3.32L1.16 0.53C0.89 0.25 0.46 0.25 0.19 0.53C-0.07 0.81 -0.07 1.27 0.19 1.55L2.36 3.82L0.19 6.1C-0.07 6.38 -0.07 6.84 0.19 7.12C0.46 7.4 0.89 7.4 1.16 7.12L3.8 4.33C4.06 4.05 4.06 3.6 3.8 3.32Z" fill="#55DB91" fill-opacity="1.000000" fill-rule="nonzero"/>
</svg>