<svg width="24.000000" height="24.000000" viewBox="0 0 24 24" fill="none" xmlns="http://www.w3.org/2000/svg" xmlns:xlink="http://www.w3.org/1999/xlink">
	<desc>
			Created with Pixso.
	</desc>
	<defs>
		<clipPath id="clip21_758">
			<rect id="Phone" width="24.000000" height="24.000000" fill="white" fill-opacity="0"/>
		</clipPath>
	</defs>
	<g clip-path="url(#clip21_758)">
		<circle id="Эллипс 1" cx="11.699951" cy="11.699951" r="11.699999" fill="#008B45" fill-opacity="1.000000"/>
		<path id="Слияние" d="M16.9636 17.7L7.03625 17.7C6.25342 17.6991 5.58521 17.4232 5.03162 16.8721C4.75269 16.5944 4.54382 16.2877 4.40527 15.9521C4.2688 15.6217 4.20032 15.2631 4.19995 14.8765L4.19995 8.52344C4.20032 8.13684 4.2688 7.7782 4.40527 7.44775C4.54382 7.11218 4.75269 6.80554 5.03162 6.52783C5.30627 6.25439 5.60913 6.04871 5.94019 5.91077C6.27649 5.77063 6.64185 5.70032 7.03625 5.69995L16.9636 5.69995C17.7465 5.70081 18.4147 5.97668 18.9683 6.52783C19.5219 7.07886 19.7991 7.74414 19.7999 8.52344L19.7999 14.8765C19.7991 15.6558 19.5219 16.321 18.9683 16.8721C18.4147 17.4232 17.7465 17.6991 16.9636 17.7ZM9.82288 11.9678C10.4629 12.4641 11.1886 12.7122 12 12.7119C12.8115 12.7119 13.5372 12.4639 14.177 11.9678L18.3817 8.71216L18.3817 14.8765C18.3816 15.0697 18.3473 15.249 18.2791 15.4143C18.2097 15.582 18.1053 15.7354 17.9659 15.8743C17.6891 16.1498 17.355 16.2877 16.9636 16.2882L7.03625 16.2882C6.6449 16.2877 6.31079 16.1498 6.03394 15.8743C5.89453 15.7354 5.79016 15.582 5.72083 15.4143C5.65259 15.249 5.61841 15.0697 5.61816 14.8765L5.61816 8.71216L9.82288 11.9678ZM6.20557 7.37793C6.29468 7.31213 6.38892 7.25854 6.48828 7.21716C6.65637 7.14709 6.83911 7.11194 7.03625 7.11169L16.9636 7.11169C17.2773 7.11206 17.5542 7.20081 17.7943 7.37781L13.3059 10.8531C13.1155 11.0009 12.9125 11.1119 12.6968 11.1865C12.4775 11.2622 12.2452 11.3 11.9999 11.3C11.7545 11.3 11.5222 11.2622 11.303 11.1865C11.0873 11.1119 10.8843 11.0009 10.6938 10.8531L6.20557 7.37793Z" clip-rule="evenodd" fill="#FFFFFF" fill-opacity="1.000000" fill-rule="evenodd"/>
	</g>
</svg>
