<svg width="24.000000" height="24.000000" viewBox="0 0 24 24" fill="none" xmlns="http://www.w3.org/2000/svg" xmlns:xlink="http://www.w3.org/1999/xlink">
	<desc>
			Created with Pixso.
	</desc>
	<defs>
		<clipPath id="clip21_766">
			<rect id="telegram" width="24.000000" height="24.000000" fill="white" fill-opacity="0"/>
		</clipPath>
	</defs>
	<g clip-path="url(#clip21_766)">
		<path id="Слияние" d="M17.1263 20.1672C16.7655 20.1672 16.4196 20.0576 16.1261 19.8503C16.12 19.8461 16.114 19.8417 16.1082 19.8373L11.7448 16.5708L9.94006 18.2283C9.65149 18.5062 9.26953 18.6591 8.86267 18.6591C8.19116 18.6591 7.60461 18.2456 7.4032 17.6304C7.39966 17.6194 7.39624 17.6084 7.39319 17.5973L6.34009 13.8022L3.01038 12.8561C2.42346 12.6893 2.02722 12.2013 2.00134 11.6127C1.97534 11.024 2.32727 10.5055 2.89783 10.2915L19.3794 4.11011C19.5743 4.03699 19.7775 4 19.9833 4C20.4823 4 20.9508 4.21594 21.2686 4.59229C21.5831 4.96484 21.7047 5.44946 21.6021 5.92163L18.788 18.8693C18.6246 19.6213 17.9258 20.1672 17.1263 20.1672ZM17.0876 18.5992C17.1007 18.6075 17.1127 18.6111 17.1263 18.6111C17.1331 18.6111 17.1926 18.6095 17.2056 18.5507L20.0194 5.60303C20.0226 5.5885 20.0215 5.58264 20.0137 5.57349C20.0054 5.56348 19.9922 5.55591 19.9833 5.55591C19.9791 5.55591 19.9731 5.55737 19.9664 5.55994L4.05042 11.5291L7.23291 12.4335C7.50305 12.5103 7.71228 12.717 7.78503 12.979L8.90784 17.0253L9.50598 16.4758L8.74353 13.3566C8.69653 13.1216 8.80615 12.8833 9.01843 12.7587L17.9729 7.50244C18.1808 7.37854 18.3936 7.65369 18.2103 7.80981L10.5956 13.8995C10.3854 14.0676 10.2883 14.3335 10.343 14.5913L10.5413 15.5251L11.1326 14.9819C11.4224 14.7158 11.871 14.6941 12.187 14.9307L17.0876 18.5992Z" clip-rule="evenodd" fill="#FFFFFF" fill-opacity="1.000000" fill-rule="evenodd"/>
	</g>
</svg>
