<svg width="24.000000" height="24.000000" viewBox="0 0 24 24" fill="none" xmlns="http://www.w3.org/2000/svg" xmlns:xlink="http://www.w3.org/1999/xlink">
	<desc>
			Created with Pixso.
	</desc>
	<defs>
		<clipPath id="clip21_767">
			<rect id="vk" width="24.000000" height="24.000000" fill="white" fill-opacity="0"/>
		</clipPath>
	</defs>
	<g clip-path="url(#clip21_767)">
		<path id="path" d="M18.93 13.32C19.56 14.04 20.06 14.65 20.43 15.14C20.77 15.58 21.05 15.98 21.27 16.34C21.58 16.83 21.79 17.27 21.9 17.68C21.99 18.01 22.01 18.32 21.98 18.62C21.96 18.88 21.89 19.11 21.79 19.33C21.73 19.45 21.65 19.56 21.57 19.68C21.48 19.79 21.38 19.9 21.27 19.99C21.09 20.13 20.89 20.25 20.67 20.34C20.39 20.44 20.09 20.5 19.77 20.5L17.8 20.5C17.54 20.5 17.29 20.46 17.06 20.38C16.74 20.28 16.44 20.12 16.17 19.89C16.02 19.76 15.85 19.59 15.68 19.4C15.59 19.29 15.46 19.12 15.27 18.89C14.98 18.53 14.73 18.23 14.52 17.98C14.52 18.04 14.52 18.09 14.52 18.14C14.52 18.68 14.39 19.14 14.13 19.51C14.01 19.68 13.86 19.83 13.69 19.97C13.4 20.18 13.06 20.33 12.65 20.41C12.36 20.47 12.02 20.5 11.61 20.5C10.93 20.5 10.24 20.38 9.56 20.16C8.89 19.94 8.24 19.62 7.61 19.21C6.99 18.8 6.4 18.3 5.85 17.72C5.29 17.14 4.79 16.48 4.34 15.76C3.22 14 2.35 12.28 1.73 10.59C1.49 9.95 1.31 9.37 1.18 8.83C1.06 8.32 1 7.92 1 7.62C1 7.21 1.08 6.84 1.26 6.53C1.32 6.41 1.4 6.31 1.48 6.21C1.56 6.11 1.65 6.03 1.75 5.95C1.92 5.82 2.1 5.72 2.31 5.64C2.57 5.54 2.86 5.5 3.17 5.5L5.14 5.5C5.57 5.5 5.95 5.59 6.28 5.77C6.46 5.87 6.62 6 6.77 6.15C6.95 6.33 7.1 6.55 7.23 6.81C7.28 6.92 7.34 7.05 7.39 7.2C7.39 7.19 7.39 7.19 7.39 7.19C7.41 7.05 7.45 6.92 7.5 6.79C7.55 6.66 7.6 6.54 7.67 6.43C7.73 6.33 7.8 6.24 7.88 6.16C7.98 6.05 8.08 5.95 8.2 5.87C8.3 5.79 8.41 5.73 8.53 5.68C8.64 5.63 8.75 5.59 8.87 5.56C9.03 5.52 9.2 5.5 9.37 5.5L12.46 5.5C12.77 5.5 13.05 5.55 13.31 5.66C13.32 5.67 13.33 5.67 13.34 5.68C13.5 5.75 13.65 5.84 13.78 5.95C13.92 6.07 14.04 6.21 14.15 6.37C14.3 6.6 14.4 6.86 14.46 7.16C14.5 7.35 14.52 7.57 14.52 7.81L14.52 8.82C14.55 8.74 14.59 8.66 14.63 8.57C14.8 8.22 14.96 7.87 15.1 7.51C15.17 7.34 15.23 7.2 15.26 7.1C15.41 6.71 15.61 6.39 15.88 6.13C15.92 6.1 15.95 6.07 15.98 6.04C16.08 5.96 16.18 5.89 16.29 5.82C16.42 5.75 16.56 5.68 16.7 5.63C16.96 5.54 17.23 5.5 17.52 5.5L19.49 5.5C19.84 5.5 20.16 5.56 20.44 5.68C20.66 5.77 20.85 5.89 21.01 6.04C21.14 6.16 21.24 6.29 21.33 6.44C21.39 6.53 21.44 6.62 21.48 6.71C21.57 6.94 21.62 7.18 21.63 7.43C21.64 7.66 21.61 7.9 21.55 8.14C21.46 8.56 21.25 9.11 20.92 9.8C20.67 10.31 20.36 10.9 19.97 11.57C19.7 12.05 19.41 12.55 19.09 13.06C19.04 13.16 18.98 13.24 18.93 13.32ZM20.09 7.81C20.21 7.34 20.09 7 19.49 7L17.52 7C17.02 7 16.79 7.29 16.67 7.62C16.67 7.62 15.79 10.02 14.52 11.79C14.48 11.83 14.45 11.87 14.42 11.92C14.36 11.99 14.31 12.07 14.25 12.14C13.79 12.65 13.58 12.82 13.33 12.82C13.21 12.82 13.02 12.65 13.02 12.18L13.02 7.81C13.02 7.25 12.88 7 12.46 7L9.37 7C9.05 7 8.87 7.26 8.87 7.5C8.87 7.84 9.16 8.02 9.39 8.49L9.39 8.5C9.51 8.76 9.62 9.12 9.65 9.66L9.65 12.91C9.65 13.63 9.53 13.76 9.28 13.76C9.05 13.76 8.69 13.41 8.28 12.82C8.24 12.76 8.19 12.69 8.15 12.62C7.44 11.53 6.61 9.76 6.03 7.85C5.83 7.24 5.64 7 5.14 7L3.17 7C2.61 7 2.5 7.29 2.5 7.62C2.5 8.21 3.16 11.11 5.61 14.95C7.23 17.57 9.53 19 11.61 19C12.86 19 13.02 18.68 13.02 18.14C13.02 17.76 13.01 17.43 13.01 17.15C13 15.57 13 15.4 13.53 15.4C13.82 15.4 14.32 15.56 15.49 16.82C16.83 18.32 17.05 19 17.8 19L19.77 19C20.33 19 20.61 18.68 20.45 18.06C20.07 16.75 17.55 14.06 17.43 13.88C17.14 13.46 17.22 13.27 17.43 12.89C17.44 12.89 19.84 9.1 20.09 7.81Z" fill="#FFFFFF" fill-opacity="1.000000" fill-rule="evenodd"/>
	</g>
</svg>
