<svg width="24.000000" height="24.000000" viewBox="0 0 24 24" fill="none" xmlns="http://www.w3.org/2000/svg" xmlns:xlink="http://www.w3.org/1999/xlink">
	<desc>
			Created with Pixso.
	</desc>
	<defs>
		<clipPath id="clip21_768">
			<rect id="vk" width="24.000000" height="24.000000" fill="white" fill-opacity="0"/>
		</clipPath>
	</defs>
	<g clip-path="url(#clip21_768)">
		<path id="path" d="M14.14 13.05C13.8 13.19 13.59 13.72 13.36 13.99C13.25 14.13 13.12 14.15 12.94 14.08C11.66 13.57 10.68 12.72 9.98 11.54C9.86 11.36 9.88 11.22 10.02 11.05C10.24 10.8 10.51 10.51 10.56 10.17C10.69 9.43 9.71 7.11 8.42 8.16C4.7 11.19 14.62 19.22 16.41 14.87C16.92 13.64 14.71 12.82 14.14 13.05ZM12 19.42C10.68 19.42 9.39 19.07 8.25 18.41C8.07 18.31 7.85 18.28 7.65 18.33L5.19 19.01L6.05 17.12C6.16 16.86 6.13 16.56 5.97 16.33C5.05 15.06 4.57 13.56 4.57 12C4.57 7.9 7.9 4.57 12 4.57C16.09 4.57 19.42 7.9 19.42 12C19.42 16.09 16.09 19.42 12 19.42ZM12 3C7.03 3 3 7.03 3 12C3 13.74 3.49 15.42 4.43 16.87L3.07 19.88C2.94 20.16 2.99 20.49 3.18 20.72C3.33 20.9 3.55 21 3.78 21C4.29 21 7.05 20.13 7.76 19.93C9.06 20.63 10.52 21 12 21C16.96 21 21 16.96 21 12C21 7.03 16.96 3 12 3Z" fill="#FFFFFF" fill-opacity="1.000000" fill-rule="evenodd"/>
	</g>
</svg>
