<svg width="225.000000" height="27.000000" viewBox="0 0 225 27" fill="none" xmlns="http://www.w3.org/2000/svg" xmlns:xlink="http://www.w3.org/1999/xlink">
	<desc>
			Created with Pixso.
	</desc>
	<defs/>
	<path id="Форма 1" d="M33.7 22.95C33.7 23.45 33.78 23.88 33.94 24.22C34.11 24.57 34.38 24.75 34.76 24.75C35.28 24.75 35.77 24.56 36.24 24.2C36.7 23.83 37.19 23.23 37.69 22.39C38.16 21.55 38.53 20.57 38.79 19.47C39.05 18.36 39.18 17.3 39.18 16.29C39.18 15.66 39.06 14.99 38.82 14.3C38.58 13.6 38.29 12.93 37.93 12.29C37.58 11.64 37.2 11.03 36.81 10.47C36.42 9.91 36.07 9.44 35.77 9.04C35.56 8.76 35.41 8.51 35.34 8.29C35.26 8.06 35.24 7.8 35.28 7.5C35.32 7.12 35.5 6.69 35.83 6.21C36.15 5.72 36.67 5.17 37.37 4.55C37.83 4.14 38.25 3.77 38.63 3.45C39.02 3.13 39.42 2.84 39.85 2.56C40.28 2.28 40.77 2 41.32 1.73C41.86 1.46 42.54 1.15 43.34 0.81C44.04 0.49 44.76 0.28 45.47 0.17C46.19 0.05 46.76 0 47.18 0C47.57 0 47.85 0.01 48.05 0.05C48.24 0.09 48.31 0.26 48.27 0.56C48.27 0.63 48.25 0.74 48.2 0.87C48.15 1 48.09 1.13 48.03 1.25C47.96 1.37 47.88 1.47 47.8 1.56C47.71 1.65 47.62 1.69 47.53 1.69C47.32 1.69 47 1.66 46.58 1.61C46.16 1.55 45.73 1.52 45.29 1.52C45.09 1.52 44.87 1.52 44.6 1.51C44.33 1.5 44.02 1.53 43.65 1.59C43.29 1.66 42.87 1.78 42.39 1.96C41.91 2.14 41.37 2.41 40.75 2.78C39.47 3.57 38.58 4.25 38.08 4.83C37.59 5.41 37.34 5.97 37.34 6.52C37.34 6.76 37.36 6.97 37.42 7.13C37.48 7.31 37.56 7.49 37.68 7.69C37.97 8.2 38.31 8.75 38.7 9.32C39.09 9.91 39.47 10.54 39.82 11.25C40.17 11.95 40.48 12.72 40.72 13.55C40.97 14.38 41.09 15.3 41.09 16.29C41.09 17.14 40.9 18.12 40.5 19.24C40.11 20.37 39.51 21.49 38.71 22.61C37.83 23.85 36.98 24.77 36.17 25.38C35.36 25.99 34.53 26.29 33.69 26.29C33 26.29 32.43 26.08 31.98 25.66C31.53 25.24 31.31 24.49 31.31 23.4C31.31 23.19 31.32 22.97 31.35 22.74C31.02 22.97 30.57 23.26 29.98 23.63C29.37 24.01 28.73 24.4 28.04 24.8C27.55 25.08 27.11 25.31 26.74 25.5C26.37 25.69 26.04 25.83 25.76 25.92C25.48 26.01 25.25 26.08 25.05 26.12C24.85 26.15 24.66 26.17 24.49 26.17C24.17 26.17 23.95 26.08 23.84 25.9C23.74 25.73 23.69 25.55 23.69 25.38C23.69 25.14 23.75 24.84 23.86 24.49C23.98 24.13 24.11 23.77 24.25 23.42C24.39 23.06 24.52 22.74 24.64 22.45C24.76 22.16 24.81 21.96 24.81 21.85C24.81 21.79 24.8 21.75 24.77 21.72C24.74 21.69 24.71 21.66 24.67 21.62C24.61 21.61 24.57 21.58 24.53 21.57C24.29 21.83 23.99 22.18 23.59 22.6C23.2 23.04 22.63 23.57 21.89 24.21C21.38 24.64 20.94 24.97 20.54 25.22C20.13 25.46 19.77 25.65 19.44 25.78C19.12 25.91 18.83 25.99 18.58 26.03C18.33 26.07 18.1 26.09 17.89 26.09C17.57 26.09 17.31 26.03 17.12 25.9C16.93 25.78 16.78 25.64 16.69 25.48C16.59 25.33 16.53 25.17 16.5 24.99C16.47 24.82 16.46 24.69 16.46 24.6C16.46 24.3 16.51 24.02 16.63 23.76C16.74 23.49 16.89 23.27 17.06 23.07C17.23 22.87 17.41 22.71 17.59 22.58C17.77 22.45 17.94 22.36 18.09 22.32C18.07 22.46 18.07 22.63 18.08 22.85C18.08 23.06 18.13 23.28 18.21 23.49C18.28 23.71 18.41 23.9 18.58 24.05C18.75 24.22 19 24.29 19.32 24.29C19.76 24.29 20.2 24.2 20.63 24.01C21.06 23.83 21.5 23.56 21.93 23.23C22.35 22.91 22.76 22.56 23.16 22.17C23.55 21.79 23.84 21.49 24.03 21.29C23.8 21.12 23.53 20.94 23.23 20.75C22.92 20.56 22.63 20.34 22.36 20.08C22.1 19.82 21.87 19.5 21.69 19.12C21.51 18.75 21.42 18.29 21.42 17.75C21.42 17.02 21.63 16.36 22.05 15.77C22.47 15.18 22.97 14.69 23.54 14.28C24.12 13.88 24.7 13.57 25.31 13.35C25.91 13.14 26.39 13.03 26.75 13.03C27.5 13.03 28.01 13.18 28.27 13.48C28.54 13.78 28.68 14.22 28.68 14.8C28.68 15.44 28.53 16.07 28.23 16.69C27.94 17.3 27.62 17.87 27.27 18.37C26.87 18.97 26.41 19.54 25.9 20.08C26.15 20.21 26.4 20.35 26.66 20.48C26.91 20.61 27.04 20.88 27.04 21.29C27.04 21.5 27 21.72 26.93 21.94C26.85 22.16 26.76 22.39 26.67 22.63C26.57 22.86 26.49 23.08 26.41 23.29C26.33 23.49 26.29 23.68 26.29 23.85C26.29 23.98 26.31 24.11 26.35 24.25C26.39 24.39 26.53 24.47 26.78 24.47C27.2 24.47 27.8 24.26 28.59 23.85C29.37 23.44 30.21 22.95 31.11 22.39L31.35 22.7C31.35 22.71 31.35 22.73 31.35 22.74C31.35 22.74 31.36 22.73 31.37 22.72L31.35 22.7C31.4 22.33 31.48 21.95 31.59 21.55C31.78 20.88 32.01 20.22 32.27 19.58C32.53 18.95 32.79 18.37 33.04 17.85C33.3 17.34 33.51 16.97 33.66 16.75C34.33 15.68 34.95 14.83 35.52 14.19C36.09 13.56 36.55 13.24 36.87 13.24C37.08 13.24 37.22 13.3 37.27 13.42C37.33 13.54 37.36 13.77 37.36 14.11C37.36 14.48 37.25 14.93 37.03 15.46C36.81 15.98 36.54 16.52 36.21 17.08C35.88 17.64 35.54 18.2 35.16 18.74C34.79 19.29 34.45 19.75 34.14 20.15C34.05 20.43 33.95 20.81 33.85 21.27C33.74 21.74 33.7 22.29 33.7 22.95ZM78.43 5.7C78.43 5.55 78.42 5.39 78.41 5.22C78.4 5.05 78.35 4.89 78.27 4.74C78.18 4.6 78.04 4.47 77.84 4.38C77.64 4.29 77.36 4.24 77 4.24C76.11 4.24 75.09 4.67 73.91 5.55C72.73 6.42 71.45 7.85 70.05 9.86C69.8 10.21 69.53 10.67 69.23 11.22C68.94 11.77 68.63 12.37 68.32 13C68 13.64 67.69 14.29 67.38 14.97C67.08 15.64 66.81 16.27 66.58 16.85C66.44 16.9 66.34 16.97 66.26 17.04C66.05 17.18 65.94 17.31 65.94 17.44C65.94 17.68 66.07 17.74 66.31 17.61C66.14 18.11 65.97 18.64 65.8 19.18C65.63 19.72 65.47 20.25 65.33 20.75C65.2 21.26 65.09 21.73 65 22.17C64.98 22.3 64.96 22.43 64.94 22.55C64.33 23 63.69 23.39 63.03 23.73C62.41 24.05 61.73 24.35 60.96 24.62C60.2 24.89 59.44 25.03 58.7 25.03C57.81 25.03 57.13 24.81 56.66 24.36C56.18 23.93 55.98 23.12 56.05 21.93C56.61 21.43 57.16 20.93 57.72 20.45C58.17 20.02 58.67 19.57 59.19 19.1C59.71 18.63 60.18 18.21 60.58 17.83C61.6 16.9 62.42 16.07 63.06 15.35C63.7 14.62 64.02 14.04 64.02 13.59C64.02 13.24 63.92 12.99 63.71 12.85C63.5 12.71 63.11 12.64 62.56 12.64C62.21 12.64 61.8 12.71 61.31 12.85C60.82 12.99 60.3 13.21 59.75 13.51C59.19 13.81 58.61 14.2 58.01 14.69C57.41 15.18 56.82 15.76 56.25 16.43C55.25 17.59 54.53 18.74 54.08 19.89C53.66 20.94 53.44 21.85 53.41 22.6C52.82 23.03 52.21 23.4 51.57 23.73C50.96 24.05 50.27 24.35 49.51 24.62C48.74 24.89 47.99 25.03 47.24 25.03C46.36 25.03 45.68 24.81 45.2 24.36C44.72 23.92 44.52 23.11 44.6 21.93C45.15 21.43 45.71 20.93 46.26 20.45C46.72 20.02 47.21 19.57 47.74 19.1C48.26 18.63 48.73 18.21 49.13 17.83C50.14 16.9 50.97 16.07 51.61 15.35C52.25 14.62 52.57 14.04 52.57 13.59C52.57 13.24 52.46 12.99 52.25 12.85C52.04 12.71 51.66 12.64 51.1 12.64C50.76 12.64 50.34 12.71 49.86 12.85C49.37 12.99 48.85 13.21 48.29 13.51C47.74 13.81 47.16 14.2 46.56 14.69C45.95 15.18 45.37 15.76 44.79 16.43C43.8 17.59 43.07 18.74 42.63 19.89C42.17 21.03 41.95 21.99 41.95 22.78C41.95 24 42.25 24.89 42.85 25.45C43.46 26.01 44.36 26.29 45.56 26.29C46.52 26.29 47.49 26.13 48.46 25.81C49.44 25.49 50.32 25.13 51.12 24.73C51.91 24.33 52.56 23.95 53.05 23.59C53.2 23.49 53.32 23.4 53.43 23.32C53.51 24.26 53.8 24.98 54.31 25.45C54.91 26.01 55.82 26.29 57.02 26.29C57.98 26.29 58.94 26.13 59.92 25.81C60.89 25.49 61.78 25.13 62.57 24.73C63.36 24.33 64.01 23.95 64.51 23.59C64.65 23.49 64.77 23.4 64.87 23.32C64.88 23.68 64.9 24.06 64.95 24.46C65 24.88 65.11 25.25 65.29 25.59C65.47 25.92 65.75 26.2 66.11 26.43C66.47 26.65 66.96 26.77 67.57 26.77C67.93 26.77 68.3 26.72 68.66 26.61C69.02 26.51 69.37 26.37 69.71 26.21C70.04 26.04 70.35 25.85 70.64 25.65C70.93 25.44 71.18 25.24 71.39 25.06C71.91 25.02 72.44 24.93 73.01 24.79C73.57 24.65 74.12 24.47 74.65 24.27C75.18 24.06 75.67 23.84 76.12 23.59C76.33 23.48 76.53 23.38 76.71 23.27C76.75 24.31 77.02 25.06 77.52 25.53C78.07 26.04 78.79 26.29 79.74 26.29C80.7 26.29 81.69 26.11 82.71 25.76C83.74 25.4 84.68 25 85.53 24.55C86.38 24.1 87.07 23.68 87.62 23.28C87.75 23.19 87.86 23.11 87.96 23.03C87.89 23.22 87.81 23.41 87.73 23.62C87.5 24.22 87.34 24.65 87.24 24.92C87.15 25.18 87.1 25.36 87.1 25.45C87.1 25.6 87.14 25.7 87.23 25.76C87.31 25.82 87.48 25.84 87.7 25.84C87.93 25.84 88.21 25.77 88.55 25.6C88.88 25.45 89.12 25.29 89.28 25.14C89.42 25.01 89.54 24.83 89.64 24.62C89.75 24.4 89.89 24.08 90.06 23.65C90.15 23.41 90.26 23.16 90.37 22.89C90.47 22.67 90.57 22.41 90.69 22.12C90.81 21.83 90.93 21.55 91.06 21.27C91.21 20.91 91.36 20.63 91.5 20.44C91.65 20.24 91.79 20.04 91.95 19.83C92.04 20.17 92.14 20.63 92.25 21.2C92.35 21.76 92.54 22.6 92.8 23.71C92.97 24.4 93.19 24.96 93.43 25.39C93.69 25.82 93.96 26.15 94.25 26.39C94.55 26.62 94.87 26.78 95.2 26.87C95.54 26.95 95.89 27 96.25 27C96.77 27 97.32 26.9 97.9 26.72C98.48 26.53 99.06 26.27 99.65 25.96C100.23 25.64 100.81 25.28 101.38 24.89C101.78 24.61 102.18 24.32 102.56 24.03C102.6 24.63 102.71 25.13 102.9 25.51C103.13 25.96 103.61 26.18 104.34 26.18C105.12 26.18 105.99 25.87 106.96 25.27C107.93 24.66 108.84 23.83 109.7 22.78L109.82 22.78C109.78 22.93 109.74 23.13 109.69 23.36C109.64 23.59 109.6 23.83 109.56 24.09C109.52 24.34 109.49 24.6 109.46 24.86C109.43 25.12 109.41 25.34 109.41 25.53C109.41 25.89 109.49 26.19 109.64 26.42C109.8 26.65 110.02 26.77 110.3 26.77C110.67 26.77 111.15 26.61 111.77 26.3C112.38 25.99 113.03 25.62 113.72 25.17C114.33 24.76 114.93 24.35 115.52 23.91C115.44 24.13 115.41 24.36 115.41 24.6C115.41 24.69 115.42 24.82 115.45 24.99C115.48 25.17 115.54 25.33 115.64 25.48C115.73 25.64 115.88 25.78 116.07 25.9C116.26 26.03 116.52 26.09 116.84 26.09C117.05 26.09 117.28 26.07 117.53 26.03C117.78 25.99 118.07 25.91 118.39 25.78C118.71 25.65 119.08 25.46 119.48 25.22C119.88 24.97 120.33 24.64 120.83 24.21C121.58 23.57 122.14 23.04 122.54 22.6C122.93 22.18 123.24 21.83 123.47 21.57C123.51 21.58 123.56 21.61 123.62 21.62L123.71 21.72C123.74 21.75 123.76 21.79 123.76 21.85C123.76 21.96 123.7 22.16 123.58 22.45C123.47 22.74 123.34 23.06 123.19 23.42C123.05 23.77 122.92 24.13 122.81 24.49C122.69 24.84 122.64 25.14 122.64 25.38C122.64 25.55 122.69 25.73 122.79 25.9C122.9 26.08 123.11 26.17 123.44 26.17C123.61 26.17 123.79 26.15 124 26.12C124.2 26.08 124.43 26.01 124.71 25.92C124.99 25.83 125.31 25.69 125.68 25.5C126.06 25.31 126.49 25.08 126.99 24.8C127.68 24.4 128.32 24.01 128.93 23.63C129.53 23.25 130 22.95 130.33 22.72L130.07 22.39C129.17 22.95 128.33 23.44 127.54 23.85C126.75 24.26 126.15 24.47 125.73 24.47C125.48 24.47 125.34 24.39 125.31 24.25C125.27 24.11 125.25 23.98 125.25 23.85C125.25 23.68 125.29 23.49 125.36 23.29C125.44 23.08 125.52 22.86 125.62 22.63C125.72 22.39 125.81 22.16 125.88 21.94C125.96 21.72 126 21.5 126 21.29C126 20.88 125.87 20.61 125.61 20.48C125.35 20.35 125.1 20.21 124.85 20.08C125.37 19.54 125.82 18.97 126.23 18.37C126.57 17.87 126.89 17.3 127.19 16.69C127.48 16.07 127.63 15.44 127.63 14.8C127.63 14.22 127.5 13.78 127.23 13.48C126.96 13.18 126.45 13.03 125.71 13.03C125.35 13.03 124.86 13.14 124.26 13.35C123.66 13.57 123.07 13.88 122.49 14.28C121.92 14.69 121.42 15.18 121 15.77C120.58 16.36 120.37 17.02 120.37 17.75C120.37 18.29 120.46 18.75 120.64 19.12C120.83 19.5 121.05 19.82 121.32 20.08C121.59 20.34 121.87 20.56 122.18 20.75C122.48 20.94 122.75 21.12 122.98 21.29C122.79 21.49 122.5 21.79 122.1 22.17C121.71 22.56 121.3 22.91 120.88 23.23C120.45 23.56 120.01 23.83 119.58 24.01C119.15 24.2 118.71 24.29 118.27 24.29C117.95 24.29 117.7 24.22 117.53 24.05C117.35 23.89 117.23 23.71 117.15 23.49C117.08 23.28 117.03 23.06 117.02 22.85C117.02 22.81 117.02 22.77 117.02 22.73C117.15 22.62 117.27 22.51 117.39 22.41L117.13 22.09C116.68 22.41 116.24 22.74 115.78 23.09C115.32 23.43 114.87 23.75 114.43 24.03C113.98 24.31 113.56 24.53 113.15 24.71C112.74 24.89 112.36 24.98 112.02 24.98C111.86 24.98 111.74 24.92 111.63 24.8C111.53 24.67 111.47 24.41 111.47 24C111.47 23.81 111.62 23.29 111.91 22.45C112.21 21.61 112.58 20.6 113.02 19.42C113.25 18.82 113.46 18.35 113.66 18C113.86 17.65 114.04 17.27 114.19 16.86C114.39 16.69 114.55 16.54 114.68 16.41C114.82 16.28 114.92 16.16 115 16.05C115.08 15.93 115.13 15.81 115.16 15.67C115.19 15.53 115.2 15.35 115.2 15.15C115.2 14.83 115.1 14.56 114.9 14.36C114.7 14.15 114.46 13.99 114.19 13.87C113.91 13.74 113.63 13.66 113.34 13.61C113.05 13.57 112.82 13.54 112.63 13.54C111.57 13.54 110.49 13.76 109.38 14.2C108.27 14.65 107.1 15.45 105.86 16.61C105.34 17.09 104.88 17.64 104.48 18.24C104.08 18.83 103.73 19.45 103.45 20.09C103.16 20.72 102.94 21.36 102.78 21.98C102.67 22.46 102.6 22.9 102.57 23.31C102.35 23.49 102.11 23.67 101.83 23.87C101.47 24.13 101.07 24.39 100.64 24.63C100.21 24.87 99.76 25.07 99.28 25.23C98.8 25.39 98.3 25.47 97.79 25.47C97.06 25.47 96.48 25.2 96.06 24.66C95.64 24.11 95.33 23.37 95.12 22.44C94.96 21.84 94.83 21.2 94.7 20.51C94.58 19.83 94.47 19.23 94.37 18.7C94.33 18.48 94.26 18.33 94.15 18.27C94.05 18.2 93.95 18.17 93.86 18.17C93.82 18.17 93.77 18.17 93.71 18.18C93.65 18.19 93.6 18.2 93.57 18.2L93.39 18.2C93.59 17.97 93.81 17.73 94.06 17.47C94.27 17.24 94.53 16.99 94.84 16.71C95.16 16.43 95.53 16.13 95.95 15.81C96.58 15.32 97.17 14.97 97.73 14.76C98.28 14.54 98.72 14.43 99.05 14.43C99.43 14.43 99.62 14.56 99.62 14.83C99.62 15.01 99.55 15.29 99.42 15.64C99.28 15.99 99.03 16.31 98.67 16.57L98.84 16.82C99.93 16.17 100.69 15.57 101.12 15.02C101.55 14.48 101.77 14.05 101.77 13.73C101.77 13.57 101.72 13.43 101.65 13.34C101.57 13.25 101.48 13.18 101.38 13.13C101.27 13.08 101.16 13.05 101.05 13.04C100.93 13.04 100.83 13.03 100.76 13.03C100.45 13.03 100.1 13.07 99.71 13.16C99.32 13.24 98.91 13.37 98.49 13.54C98.07 13.71 97.65 13.92 97.23 14.16C96.81 14.4 96.41 14.67 96.02 14.97C95.51 15.38 95.06 15.75 94.67 16.08C94.29 16.41 93.94 16.73 93.63 17.03C93.31 17.34 93.01 17.65 92.72 17.96C92.44 18.27 92.12 18.6 91.78 18.96L91.63 18.93C91.84 18.33 92.08 17.69 92.35 17.01C92.62 16.32 92.91 15.59 93.24 14.8C93.37 14.5 93.51 14.18 93.64 13.85C93.77 13.51 93.84 13.28 93.84 13.14C93.84 12.94 93.77 12.83 93.64 12.83C93.51 12.83 93.35 12.85 93.15 12.89C92.96 12.93 92.76 12.98 92.56 13.04C92.36 13.11 92.17 13.19 91.99 13.3C91.81 13.4 91.66 13.52 91.55 13.65C91.4 13.8 91.27 14 91.18 14.25C91.08 14.51 90.97 14.81 90.83 15.17C90.68 15.56 90.43 16.24 90.09 17.19C89.74 18.14 89.34 19.24 88.88 20.48C88.76 20.8 88.66 21.09 88.56 21.35C88.47 21.61 88.37 21.86 88.29 22.11C88.28 22.14 88.26 22.18 88.25 22.22C88.2 22.21 88.15 22.21 88.1 22.21C88.06 22.21 87.95 22.27 87.78 22.4C87.6 22.53 87.36 22.7 87.05 22.89C86.73 23.09 86.35 23.31 85.91 23.55C85.48 23.8 84.99 24.03 84.45 24.25C84.11 24.41 83.65 24.56 83.08 24.71C82.5 24.85 81.94 24.93 81.38 24.93C80.91 24.93 80.53 24.83 80.25 24.64C79.97 24.44 79.76 24.19 79.62 23.89C79.48 23.59 79.39 23.26 79.35 22.89C79.31 22.53 79.29 22.19 79.29 21.87C79.29 20.97 79.45 20.07 79.78 19.16C80.1 18.25 80.52 17.43 81.02 16.7C81.53 15.98 82.1 15.38 82.72 14.92C83.34 14.46 83.96 14.23 84.57 14.23C84.8 14.23 84.96 14.28 85.04 14.37C85.13 14.47 85.17 14.62 85.17 14.83C85.17 14.92 85.16 15.05 85.15 15.21C85.12 15.36 85.04 15.61 84.89 15.95L84.6 16.57C84.66 16.68 84.73 16.74 84.83 16.74C84.96 16.74 85.17 16.7 85.45 16.61C85.72 16.52 86.02 16.35 86.35 16.09C86.73 15.77 86.99 15.39 87.12 14.94C87.26 14.49 87.32 14.13 87.32 13.87C87.32 13.36 87.19 13.06 86.92 12.96C86.65 12.86 86.36 12.8 86.03 12.8C85.75 12.8 85.38 12.87 84.94 13C84.5 13.13 84.02 13.33 83.49 13.6C82.96 13.88 82.42 14.2 81.87 14.59C81.31 14.97 80.79 15.42 80.29 15.92C79.74 16.48 79.24 17.08 78.78 17.69C78.34 18.31 77.96 18.93 77.65 19.55C77.35 20.17 77.11 20.77 76.95 21.36C76.82 21.84 76.74 22.29 76.71 22.71C76.56 22.81 76.38 22.91 76.2 23.01C75.75 23.25 75.28 23.48 74.78 23.68C74.28 23.89 73.79 24.06 73.32 24.2C72.84 24.34 72.43 24.41 72.08 24.41C72.6 23.96 73.06 23.46 73.47 22.91C73.88 22.36 74.22 21.8 74.49 21.24C74.76 20.68 74.97 20.14 75.11 19.61C75.25 19.09 75.32 18.63 75.32 18.24C75.32 17.47 75.16 16.84 74.84 16.35C74.51 15.87 73.88 15.62 72.94 15.62C72.65 15.62 72.3 15.68 71.86 15.81C71.43 15.93 70.98 16.12 70.51 16.37C70.04 16.62 69.57 16.94 69.11 17.33C68.64 17.73 68.22 18.19 67.86 18.71L67.78 18.71C67.83 18.54 67.92 18.31 68.04 18.02C68.15 17.73 68.25 17.46 68.35 17.19C68.47 16.87 68.6 16.55 68.75 16.21C69.31 15.76 69.91 15.27 70.55 14.75C71.19 14.22 71.8 13.72 72.37 13.23C73.49 12.3 74.45 11.43 75.22 10.63C75.99 9.84 76.62 9.12 77.08 8.48C77.55 7.85 77.89 7.29 78.1 6.82C78.31 6.36 78.43 5.98 78.43 5.7ZM117.02 22.73C117.02 22.57 117.02 22.43 117.04 22.32C116.89 22.36 116.72 22.45 116.54 22.58C116.35 22.71 116.18 22.87 116.01 23.07C115.84 23.27 115.69 23.49 115.58 23.76C115.55 23.81 115.53 23.86 115.52 23.91C115.59 23.86 115.66 23.8 115.74 23.75C116.23 23.38 116.65 23.04 117.02 22.73ZM88.25 22.22C88.28 22.22 88.31 22.23 88.34 22.23C88.43 22.25 88.46 22.38 88.44 22.58C88.44 22.64 88.28 22.79 87.96 23.03C87.98 22.97 88.01 22.9 88.03 22.84C88.11 22.63 88.18 22.42 88.25 22.22ZM76.71 22.71C76.94 22.58 77.14 22.45 77.3 22.33L77.33 22.89C77.14 23.02 76.93 23.14 76.71 23.27C76.71 23.18 76.7 23.09 76.7 23C76.7 22.91 76.71 22.81 76.71 22.71ZM53.43 23.32C53.41 23.15 53.41 22.97 53.41 22.78C53.41 22.72 53.41 22.66 53.41 22.6C53.5 22.54 53.58 22.48 53.67 22.41C53.74 22.53 53.79 22.61 53.81 22.67C53.83 22.72 53.83 22.81 53.81 22.95C53.81 23 53.68 23.13 53.43 23.32ZM64.87 23.32L64.87 23.28C64.87 23.07 64.9 22.83 64.94 22.55C65 22.5 65.06 22.46 65.12 22.41C65.2 22.53 65.25 22.61 65.26 22.67C65.28 22.72 65.27 22.81 65.25 22.95C65.25 23 65.13 23.12 64.87 23.32ZM76.47 6.6C76.47 6.99 76.39 7.38 76.23 7.78C76.07 8.17 75.82 8.58 75.51 9C75.19 9.42 74.81 9.87 74.35 10.36C73.89 10.85 73.36 11.38 72.77 11.96C71.95 12.77 71.21 13.42 70.56 13.92C69.91 14.41 69.4 14.82 69.04 15.14C69.64 13.62 70.23 12.26 70.83 11.07C71.44 9.87 72.01 8.86 72.57 8.05C73.12 7.23 73.66 6.61 74.16 6.18C74.67 5.74 75.13 5.53 75.55 5.53C75.91 5.53 76.16 5.61 76.28 5.78C76.41 5.95 76.47 6.22 76.47 6.6ZM19.1 9.52C19.1 10.51 18.78 11.48 18.15 12.41C17.52 13.35 16.69 14.2 15.65 14.96C14.62 15.71 13.45 16.34 12.14 16.84C10.83 17.33 9.5 17.63 8.14 17.72C7.83 18.68 7.56 19.48 7.32 20.14C7.08 20.8 6.91 21.43 6.82 22.05C6.72 22.59 6.69 23.02 6.72 23.33C6.75 23.64 6.76 23.92 6.76 24.18C6.76 24.26 6.7 24.43 6.58 24.71C6.45 24.98 6.34 25.18 6.25 25.31C6.04 25.59 5.81 25.83 5.56 26.03C5.31 26.22 5 26.32 4.64 26.32C4.52 26.32 4.39 26.26 4.25 26.12C4.11 25.99 4.04 25.77 4.04 25.45C4.04 24.79 4.16 24.04 4.41 23.17C4.66 22.31 4.94 21.43 5.27 20.53C5.34 20.31 5.44 20.05 5.55 19.75C5.66 19.44 5.77 19.16 5.87 18.91C5.99 18.59 6.1 18.26 6.21 17.92C5.7 17.9 5.29 17.84 4.99 17.72C4.7 17.61 4.55 17.45 4.55 17.25C4.55 17.08 4.57 16.89 4.61 16.67C4.65 16.45 4.77 16.34 4.98 16.32C5.15 16.32 5.28 16.39 5.35 16.54C5.43 16.69 5.57 16.81 5.78 16.9C5.97 17 6.14 17.04 6.3 17.04C6.38 17.06 6.47 17.06 6.59 17.04C7.06 15.79 7.55 14.5 8.03 13.18C8.52 11.86 9.07 10.4 9.68 8.79C9.95 8.54 10.22 8.37 10.5 8.27C10.78 8.16 11.03 8.09 11.24 8.06C11.49 8.02 11.73 8.02 11.98 8.06C11.89 8.36 11.7 8.86 11.42 9.56C11.15 10.26 10.83 11.04 10.48 11.91C10.12 12.77 9.76 13.65 9.4 14.56C9.04 15.47 8.73 16.27 8.48 16.99C9.47 16.97 10.48 16.77 11.48 16.4C12.49 16.02 13.39 15.53 14.19 14.92C15 14.31 15.65 13.6 16.16 12.79C16.66 11.97 16.92 11.1 16.92 10.19C16.92 9.21 16.55 8.44 15.8 7.88C15.05 7.32 13.9 7.04 12.36 7.04C11.32 7.04 10.27 7.13 9.2 7.32C8.13 7.51 7.11 7.77 6.15 8.09C5.18 8.42 4.31 8.81 3.52 9.26C2.74 9.71 2.12 10.19 1.66 10.69C1.51 10.86 1.41 11.03 1.37 11.21C1.33 11.39 1.3 11.55 1.27 11.7C1.25 11.85 1.2 11.97 1.14 12.06C1.09 12.16 0.97 12.2 0.8 12.2C0.59 12.2 0.4 12.18 0.24 12.13C0.08 12.09 0 11.91 0 11.59C0 11.36 0.17 11.06 0.53 10.69C0.88 10.31 1.38 9.92 2.02 9.49C2.66 9.07 3.41 8.64 4.27 8.22C5.14 7.79 6.07 7.39 7.09 7.03C8.1 6.68 9.16 6.39 10.27 6.18C11.38 5.96 12.51 5.85 13.65 5.85C14.67 5.85 15.52 5.94 16.22 6.12C16.92 6.3 17.48 6.55 17.91 6.88C18.34 7.2 18.65 7.59 18.83 8.04C19.01 8.49 19.1 9 19.1 9.52ZM197.01 22.11L197.25 22.42C197.13 22.5 196.99 22.6 196.82 22.71C196.86 22.58 196.9 22.47 196.93 22.36L197.01 22.11ZM210.52 22.32C210.23 22.49 209.95 22.67 209.65 22.84C209.2 23.11 208.76 23.36 208.33 23.57C207.9 23.78 207.48 23.96 207.09 24.09C206.7 24.23 206.33 24.29 205.99 24.29C205.82 24.29 205.73 24.23 205.71 24.09C205.69 23.96 205.69 23.83 205.69 23.71C205.69 23.51 205.73 23.21 205.81 22.82C205.9 22.42 206.02 21.97 206.18 21.47C206.34 20.97 206.52 20.42 206.71 19.83C206.91 19.23 207.12 18.64 207.35 18.05C207.99 17.19 208.5 16.39 208.87 15.64C209.24 14.9 209.43 14.28 209.43 13.8C209.43 13.6 209.39 13.47 209.31 13.41C209.22 13.35 209.11 13.31 208.98 13.31C208.88 13.31 208.77 13.32 208.64 13.34C208.51 13.36 208.37 13.41 208.22 13.48C208 13.58 207.83 13.67 207.71 13.73C207.6 13.8 207.45 13.92 207.24 14.12C206.86 14.5 206.58 14.93 206.39 15.43C206.21 15.92 206.01 16.47 205.8 17.09C205.69 17.41 205.61 17.64 205.56 17.76C205.51 17.89 205.43 18.09 205.32 18.36C205.21 18.52 204.86 18.75 204.27 19.04C203.68 19.34 202.81 19.56 201.69 19.7C201.3 19.76 200.96 19.78 200.68 19.78L200.25 19.78C200.4 19.35 200.55 18.91 200.7 18.46C200.83 18.08 200.98 17.68 201.14 17.25C201.3 16.82 201.45 16.41 201.6 16.01C201.68 15.79 201.77 15.57 201.87 15.32C201.98 15.08 202.08 14.85 202.17 14.65C202.26 14.44 202.33 14.26 202.39 14.11C202.45 13.95 202.47 13.85 202.47 13.8C202.47 13.6 202.41 13.5 202.28 13.5C202.02 13.5 201.68 13.59 201.25 13.77C200.83 13.95 200.46 14.3 200.14 14.82C200.03 15 199.9 15.24 199.79 15.54C199.67 15.83 199.54 16.16 199.39 16.53C199.25 16.9 199.11 17.28 198.95 17.69C198.8 18.09 198.65 18.48 198.48 18.86L198.22 19.45C197.91 19.49 197.65 19.58 197.45 19.72C197.25 19.86 197.16 20.03 197.16 20.23C197.16 20.47 197.16 20.61 197.18 20.65C197.2 20.7 197.27 20.79 197.4 20.93L197.01 22.11L197 22.09C196.12 22.63 195.29 23.1 194.52 23.49C193.75 23.89 193.16 24.09 192.75 24.09C192.51 24.09 192.36 24.02 192.32 23.89C192.28 23.75 192.26 23.62 192.26 23.5C192.26 23.34 192.3 23.16 192.37 22.96C192.45 22.76 192.53 22.55 192.63 22.33C192.72 22.1 192.81 21.89 192.89 21.67C192.96 21.46 193 21.25 193 21.05C193 20.66 192.87 20.4 192.62 20.27C192.36 20.15 192.11 20.02 191.87 19.9C192.37 19.38 192.83 18.83 193.22 18.25C193.57 17.77 193.88 17.22 194.17 16.64C194.45 16.04 194.61 15.44 194.61 14.83C194.61 14.28 194.47 13.86 194.21 13.57C193.95 13.28 193.45 13.14 192.72 13.14C192.36 13.14 191.89 13.25 191.3 13.45C190.71 13.66 190.13 13.95 189.57 14.34C189.01 14.73 188.52 15.2 188.1 15.77C187.69 16.33 187.48 16.97 187.48 17.67C187.48 18.19 187.57 18.63 187.75 18.99C187.93 19.35 188.15 19.65 188.41 19.9C188.67 20.15 188.95 20.37 189.25 20.55C189.56 20.73 189.82 20.9 190.05 21.06C189.86 21.26 189.58 21.54 189.19 21.91C188.8 22.28 188.4 22.62 187.99 22.92C187.56 23.24 187.14 23.49 186.71 23.67C186.29 23.86 185.86 23.94 185.43 23.94C185.11 23.94 184.87 23.87 184.7 23.71C184.53 23.56 184.4 23.38 184.33 23.17C184.26 22.97 184.21 22.76 184.2 22.55C184.2 22.49 184.2 22.43 184.2 22.37C184.33 22.28 184.44 22.21 184.53 22.15L184.29 21.84C183.86 22.1 183.42 22.37 182.98 22.64C182.54 22.91 182.11 23.16 181.7 23.37C181.29 23.58 180.91 23.76 180.56 23.89C180.21 24.03 179.91 24.09 179.65 24.09C179.4 24.09 179.27 24.01 179.27 23.86C179.25 23.71 179.25 23.57 179.25 23.44C179.25 23.3 179.31 22.99 179.42 22.51C179.54 22.04 179.68 21.5 179.85 20.9C180.02 20.3 180.2 19.68 180.41 19.04C180.62 18.4 180.82 17.84 181.03 17.36C181.2 17.03 181.38 16.69 181.56 16.32C181.73 15.95 181.9 15.59 182.05 15.24C182.2 14.89 182.32 14.57 182.41 14.28C182.51 14 182.56 13.78 182.56 13.64C182.56 13.39 182.46 13.26 182.25 13.26C182.15 13.26 182.01 13.27 181.82 13.3C181.63 13.33 181.43 13.38 181.22 13.45C181 13.53 180.78 13.61 180.57 13.71C180.35 13.8 180.18 13.93 180.04 14.1C179.78 14.56 179.53 15.07 179.31 15.62C179.08 16.16 178.88 16.73 178.69 17.32C178.52 17.58 178.34 17.83 178.14 18.08C177.94 18.33 177.72 18.61 177.47 18.91C177.21 19.22 176.92 19.56 176.58 19.94C176.24 20.32 175.85 20.75 175.39 21.23C174.92 21.74 174.53 22.12 174.21 22.39C173.89 22.66 173.61 22.86 173.39 22.99C173.17 23.11 172.98 23.18 172.83 23.2C172.68 23.22 172.54 23.22 172.4 23.22C172.18 23.22 172.01 23.14 171.89 22.98C171.78 22.82 171.7 22.63 171.65 22.42C171.6 22.2 171.59 21.99 171.59 21.76C171.61 21.54 171.61 21.36 171.61 21.23C171.42 21.29 171.23 21.37 171.02 21.47C170.81 21.57 170.63 21.69 170.48 21.83C170.37 21.95 170.27 22.1 170.19 22.29C170.15 22.37 170.11 22.46 170.08 22.55C169.21 23.11 168.36 23.57 167.52 23.91C166.5 24.33 165.59 24.54 164.78 24.54C164.48 24.54 164.24 24.53 164.07 24.51C163.9 24.48 163.81 24.46 163.79 24.44C164.52 24.03 165.2 23.49 165.82 22.85C166.44 22.2 166.98 21.5 167.45 20.76C167.92 20.01 168.29 19.26 168.55 18.48C168.81 17.71 168.94 17 168.94 16.35C168.94 15.3 168.7 14.55 168.22 14.1C167.75 13.66 167.15 13.45 166.44 13.45C165.88 13.45 165.38 13.51 164.95 13.65C164.52 13.78 164.12 13.95 163.75 14.16C163.38 14.37 163.04 14.6 162.72 14.86C162.4 15.12 162.1 15.39 161.79 15.65L161.71 15.65C161.65 15.6 161.59 15.55 161.5 15.49C161.42 15.44 161.28 15.41 161.09 15.41C160.83 15.41 160.6 15.46 160.39 15.56C160.18 15.66 160.02 15.77 159.88 15.9C159.71 16.06 159.52 16.29 159.33 16.59C159.13 16.88 158.94 17.21 158.75 17.58C158.56 17.95 158.38 18.34 158.2 18.76C158.03 19.18 157.87 19.61 157.74 20.05C157.57 20.58 157.44 21.07 157.35 21.5C157.3 21.72 157.26 21.95 157.24 22.18C157 22.33 156.75 22.48 156.5 22.63C156.04 22.91 155.61 23.16 155.21 23.37C154.81 23.58 154.43 23.76 154.08 23.91C153.74 24.05 153.46 24.12 153.25 24.12C153.06 24.12 152.98 24.08 152.98 24.01C153 23.94 153 23.84 153 23.72C153 23.62 153.06 23.4 153.17 23.03C153.28 22.66 153.41 22.25 153.56 21.8C153.71 21.35 153.85 20.92 154 20.5C154.14 20.07 154.23 19.75 154.29 19.54C154.67 18.35 155 17.31 155.29 16.4C155.58 15.49 155.74 14.81 155.78 14.34C155.8 14.2 155.79 14.08 155.74 13.98C155.7 13.88 155.6 13.83 155.45 13.83C155.25 13.83 154.93 13.92 154.51 14.1C154.09 14.28 153.56 14.59 152.93 15.04C152.3 15.49 151.56 16.08 150.71 16.82C149.85 17.56 148.91 18.47 147.87 19.56L147.79 19.56C147.9 19.26 148 18.98 148.08 18.73C148.17 18.48 148.26 18.21 148.37 17.94C148.47 17.66 148.58 17.35 148.69 17.01C148.81 16.67 148.95 16.24 149.12 15.74C149.25 15.37 149.38 14.97 149.52 14.57C149.67 14.17 149.75 13.9 149.77 13.75C149.77 13.56 149.7 13.46 149.57 13.46C149.44 13.46 149.25 13.5 149.02 13.56C148.78 13.64 148.54 13.74 148.29 13.88C148.03 14.02 147.8 14.19 147.58 14.4C147.36 14.62 147.21 14.87 147.14 15.16C147.1 15.25 147.06 15.4 147 15.62C146.95 15.83 146.87 16.07 146.8 16.34C146.73 16.61 146.65 16.89 146.58 17.16C146.51 17.44 146.43 17.7 146.36 17.93L145.23 21.65C145.13 21.87 145.05 22.06 144.98 22.24C144.9 22.42 144.79 22.66 144.64 22.97C144.43 23.38 144.28 23.73 144.21 24.02C144.14 24.31 144.1 24.54 144.1 24.74C144.1 24.79 144.11 24.89 144.14 25.04C144.17 25.18 144.28 25.25 144.47 25.25C144.62 25.25 144.76 25.23 144.91 25.17C145.05 25.11 145.2 25.01 145.36 24.84C145.52 24.68 145.7 24.44 145.89 24.13C146.09 23.81 146.32 23.39 146.58 22.85C146.84 22.33 147.13 21.82 147.44 21.34C147.75 20.85 148.17 20.31 148.69 19.7C149.1 19.21 149.54 18.74 149.97 18.29C150.41 17.85 150.83 17.46 151.2 17.11C151.58 16.77 151.9 16.5 152.2 16.3C152.49 16.11 152.7 16.01 152.81 16.01C153.02 16.01 153.13 16.04 153.13 16.1C153.15 16.17 153.15 16.25 153.15 16.34C153.13 16.51 153.08 16.76 152.99 17.07C152.91 17.39 152.81 17.75 152.68 18.16C152.56 18.58 152.41 19.02 152.26 19.51C152.1 19.99 151.94 20.5 151.77 21.02C151.64 21.45 151.5 21.89 151.36 22.36C151.22 22.83 151.09 23.27 150.97 23.68C150.85 24.09 150.75 24.46 150.67 24.79C150.6 25.11 150.56 25.35 150.56 25.49C150.56 25.63 150.58 25.76 150.62 25.88C150.66 26 150.76 26.05 150.93 26.05C151.21 26.05 151.68 25.9 152.35 25.6C153.01 25.29 153.83 24.84 154.78 24.25C155.01 24.11 155.28 23.94 155.6 23.75C155.91 23.56 156.23 23.37 156.56 23.19C156.78 23.05 157 22.92 157.2 22.79C157.2 22.83 157.2 22.87 157.2 22.91C157.2 23.44 157.27 23.9 157.42 24.28C157.58 24.66 157.78 24.96 158.03 25.2C158.29 25.43 158.58 25.6 158.89 25.7C159.21 25.8 159.54 25.85 159.88 25.85C160.85 25.85 161.78 25.62 162.66 25.17C162.89 25.24 163.2 25.28 163.59 25.28C165 25.28 166.28 25.01 167.41 24.49C168.23 24.12 169.07 23.66 169.93 23.12C169.91 23.22 169.89 23.32 169.88 23.41C169.85 23.59 169.84 23.74 169.84 23.84C169.84 24.23 169.91 24.57 170.06 24.88C170.21 25.2 170.5 25.35 170.93 25.35C171.18 25.35 171.45 25.31 171.74 25.23C172.03 25.15 172.37 24.99 172.74 24.76C173.12 24.53 173.54 24.21 174.01 23.79C174.47 23.38 175.01 22.83 175.61 22.15C176.15 21.54 176.65 20.95 177.09 20.4C177.53 19.84 177.91 19.4 178.23 19.08L178.34 19.13L178.06 20.21C177.7 21.55 177.43 22.59 177.25 23.33C177.08 24.07 176.98 24.62 176.98 24.98C176.98 25.14 177.02 25.31 177.09 25.48C177.17 25.65 177.33 25.73 177.57 25.73C177.72 25.73 177.89 25.71 178.08 25.68C178.27 25.65 178.49 25.57 178.77 25.46C179.04 25.36 179.38 25.21 179.77 25.02C180.17 24.83 180.65 24.58 181.21 24.25C181.47 24.11 181.76 23.94 182.08 23.74C182.35 23.57 182.61 23.41 182.87 23.24C182.84 23.3 182.81 23.36 182.78 23.42C182.67 23.67 182.61 23.94 182.61 24.23C182.61 24.32 182.62 24.44 182.65 24.61C182.67 24.77 182.74 24.93 182.83 25.08C182.92 25.23 183.07 25.36 183.26 25.48C183.45 25.6 183.69 25.66 184.02 25.66C184.22 25.66 184.45 25.64 184.69 25.6C184.93 25.56 185.21 25.48 185.53 25.36C185.85 25.23 186.21 25.05 186.61 24.82C187 24.59 187.44 24.26 187.93 23.85C188.66 23.24 189.22 22.73 189.6 22.32C189.99 21.9 190.29 21.57 190.52 21.32C190.56 21.34 190.6 21.36 190.66 21.38C190.7 21.42 190.73 21.45 190.76 21.47C190.79 21.5 190.8 21.54 190.8 21.59C190.8 21.7 190.74 21.89 190.63 22.17C190.52 22.45 190.39 22.76 190.25 23.11C190.1 23.45 189.98 23.79 189.87 24.13C189.76 24.48 189.7 24.76 189.7 24.99C189.7 25.16 189.75 25.32 189.86 25.5C189.96 25.66 190.17 25.75 190.49 25.75C190.66 25.75 190.84 25.73 191.04 25.7C191.24 25.66 191.47 25.6 191.75 25.51C192.02 25.42 192.34 25.28 192.7 25.1C193.07 24.92 193.49 24.69 193.98 24.43C194.66 24.05 195.29 23.67 195.89 23.31C196.25 23.08 196.56 22.88 196.82 22.71C196.79 22.81 196.75 22.93 196.7 23.05C196.61 23.31 196.52 23.56 196.44 23.81C196.36 24.05 196.28 24.28 196.21 24.48C196.15 24.69 196.12 24.84 196.12 24.93C196.12 25.16 196.15 25.33 196.21 25.44C196.28 25.55 196.47 25.6 196.79 25.6C197.01 25.6 197.24 25.55 197.48 25.46C197.71 25.37 197.99 25.18 198.31 24.87C198.5 24.69 198.67 24.43 198.83 24.09C198.99 23.75 199.14 23.39 199.27 23.01C199.4 22.63 199.52 22.26 199.61 21.9C199.7 21.54 199.77 21.25 199.81 21.04C199.96 21.04 200.13 21.02 200.32 20.98C200.47 20.95 200.64 20.92 200.85 20.89C201.06 20.86 201.28 20.81 201.5 20.74C202.11 20.58 202.65 20.4 203.09 20.21C203.53 20.03 203.9 19.86 204.2 19.71C204.53 19.53 204.83 19.36 205.07 19.18L204.82 19.9C204.74 20.1 204.67 20.3 204.61 20.51C204.54 20.72 204.49 20.88 204.45 21.01C204.32 21.44 204.19 21.89 204.04 22.35C203.91 22.82 203.78 23.26 203.65 23.67C203.53 24.09 203.43 24.46 203.36 24.78C203.29 25.11 203.25 25.34 203.25 25.48C203.25 25.63 203.27 25.76 203.33 25.89C203.39 26.01 203.54 26.08 203.78 26.08C204.06 26.08 204.55 25.94 205.22 25.67C205.9 25.4 206.75 25.01 207.76 24.51C208.55 24.12 209.25 23.72 209.86 23.33C210.07 23.19 210.27 23.06 210.44 22.94C210.43 23.07 210.43 23.2 210.43 23.32C210.43 24.06 210.54 24.64 210.77 25.08C210.99 25.51 211.46 25.72 212.17 25.72C212.95 25.72 213.8 25.43 214.75 24.84C215.7 24.26 216.6 23.47 217.44 22.46L217.55 22.46C217.51 22.6 217.47 22.79 217.43 23.01C217.38 23.24 217.34 23.47 217.3 23.71C217.26 23.96 217.23 24.2 217.2 24.45C217.18 24.7 217.17 24.92 217.17 25.09C217.17 25.44 217.24 25.72 217.39 25.95C217.54 26.17 217.75 26.28 218.04 26.28C218.4 26.28 218.87 26.13 219.47 25.84C220.08 25.55 220.71 25.18 221.39 24.75C222.06 24.32 222.73 23.87 223.38 23.39C224.03 22.92 224.56 22.5 225 22.12L224.74 21.8C224.31 22.1 223.87 22.42 223.42 22.76C222.97 23.09 222.53 23.39 222.1 23.66C221.67 23.92 221.25 24.14 220.84 24.31C220.44 24.48 220.07 24.57 219.73 24.57C219.58 24.57 219.45 24.51 219.35 24.39C219.25 24.28 219.19 24.02 219.19 23.62C219.19 23.44 219.34 22.95 219.63 22.14C219.92 21.33 220.29 20.37 220.72 19.23C220.94 18.66 221.16 18.21 221.35 17.88C221.55 17.54 221.72 17.18 221.88 16.79C222.06 16.62 222.22 16.48 222.35 16.35C222.48 16.23 222.59 16.11 222.66 16C222.73 15.9 222.78 15.77 222.82 15.64C222.84 15.5 222.86 15.34 222.86 15.14C222.86 14.83 222.76 14.58 222.56 14.38C222.37 14.18 222.13 14.03 221.86 13.92C221.58 13.8 221.31 13.72 221.02 13.67C220.74 13.63 220.51 13.6 220.32 13.6C219.29 13.6 218.23 13.82 217.13 14.23C216.05 14.65 214.89 15.42 213.67 16.54C213.16 17.01 212.71 17.52 212.31 18.1C211.91 18.68 211.58 19.27 211.3 19.88C211.02 20.49 210.8 21.09 210.65 21.7C210.6 21.91 210.55 22.12 210.52 22.32ZM210.52 22.32C210.67 22.22 210.82 22.13 210.97 22.04L211.25 22.36C211.04 22.52 210.77 22.72 210.44 22.94C210.46 22.74 210.48 22.53 210.52 22.32ZM169.93 23.12C169.95 23.03 169.97 22.94 169.99 22.85C170.01 22.75 170.04 22.64 170.08 22.55C170.27 22.42 170.47 22.29 170.66 22.15L170.92 22.47C170.59 22.7 170.26 22.92 169.93 23.12ZM182.87 23.24C182.97 23.06 183.08 22.91 183.2 22.77C183.37 22.58 183.55 22.42 183.73 22.3C183.9 22.17 184.07 22.09 184.22 22.05C184.21 22.14 184.2 22.25 184.2 22.37C184.11 22.43 184.01 22.5 183.89 22.58C183.62 22.76 183.33 22.95 183.02 23.14C182.97 23.17 182.92 23.21 182.87 23.24ZM157.2 22.79C157.21 22.58 157.22 22.38 157.24 22.18C157.44 22.06 157.64 21.93 157.84 21.81L158.11 22.12C157.95 22.27 157.74 22.44 157.46 22.62C157.37 22.68 157.29 22.73 157.2 22.79ZM27.1 15.81C27.1 16.07 27.06 16.38 26.98 16.73C26.91 17.07 26.79 17.43 26.62 17.79C26.46 18.16 26.27 18.52 26.05 18.87C25.83 19.23 25.58 19.56 25.29 19.86C24.95 19.64 24.66 19.43 24.42 19.24C24.18 19.05 23.99 18.85 23.84 18.64C23.7 18.42 23.59 18.18 23.53 17.91C23.46 17.64 23.43 17.3 23.43 16.91C23.43 16.05 23.67 15.36 24.16 14.84C24.65 14.33 25.24 14.07 25.93 14.07C26.02 14.07 26.14 14.09 26.27 14.13C26.41 14.17 26.54 14.25 26.66 14.37C26.79 14.49 26.89 14.67 26.98 14.9C27.06 15.14 27.1 15.43 27.1 15.81ZM126.05 15.81C126.05 16.07 126.01 16.38 125.93 16.73C125.85 17.07 125.73 17.43 125.57 17.79C125.41 18.16 125.22 18.52 125 18.87C124.78 19.23 124.53 19.56 124.24 19.86C123.9 19.64 123.61 19.43 123.36 19.24C123.13 19.05 122.94 18.85 122.79 18.64C122.65 18.42 122.54 18.18 122.47 17.91C122.41 17.64 122.38 17.3 122.38 16.91C122.38 16.05 122.62 15.36 123.11 14.84C123.6 14.33 124.19 14.07 124.88 14.07C124.97 14.07 125.09 14.09 125.22 14.13C125.35 14.17 125.48 14.25 125.61 14.37C125.73 14.49 125.84 14.67 125.93 14.9C126.01 15.14 126.05 15.43 126.05 15.81ZM192.95 16.67C193.02 16.34 193.06 16.04 193.06 15.79C193.06 15.44 193.03 15.15 192.94 14.93C192.86 14.7 192.76 14.53 192.64 14.42C192.51 14.3 192.39 14.22 192.26 14.18C192.13 14.15 192.01 14.13 191.92 14.13C191.24 14.13 190.66 14.37 190.18 14.87C189.71 15.35 189.46 16.02 189.46 16.84C189.46 17.22 189.5 17.54 189.56 17.8C189.63 18.06 189.73 18.29 189.87 18.5C190.01 18.71 190.2 18.9 190.43 19.08C190.67 19.26 190.95 19.46 191.29 19.68C191.57 19.39 191.82 19.08 192.03 18.73C192.25 18.39 192.44 18.04 192.6 17.69C192.76 17.34 192.88 17 192.95 16.67ZM50.14 14.86C50.14 14.56 50.05 14.37 49.88 14.3C49.71 14.22 49.52 14.18 49.31 14.18C48.94 14.18 48.49 14.32 47.94 14.6C47.4 14.88 46.89 15.32 46.41 15.92C46.2 16.19 45.99 16.51 45.78 16.88C45.57 17.26 45.37 17.67 45.19 18.11C45 18.56 44.85 19.04 44.73 19.53C44.6 20.03 44.53 20.52 44.51 21.01C44.9 20.69 45.29 20.36 45.69 20.02C46.03 19.72 46.4 19.4 46.81 19.04C47.21 18.68 47.59 18.31 47.96 17.94C48.59 17.31 49.11 16.73 49.52 16.23C49.93 15.72 50.14 15.27 50.14 14.86ZM61.58 14.86C61.58 14.56 61.5 14.37 61.32 14.3C61.15 14.22 60.96 14.18 60.75 14.18C60.39 14.18 59.93 14.32 59.39 14.6C58.84 14.88 58.33 15.32 57.85 15.92C57.64 16.19 57.43 16.51 57.22 16.88C57.01 17.26 56.82 17.67 56.63 18.11C56.45 18.56 56.3 19.04 56.17 19.53C56.05 20.03 55.98 20.52 55.96 21.01C56.34 20.69 56.73 20.36 57.13 20.02C57.48 19.72 57.85 19.4 58.25 19.04C58.65 18.68 59.04 18.31 59.4 17.94C60.03 17.31 60.56 16.73 60.97 16.23C61.38 15.72 61.58 15.27 61.58 14.86ZM113.28 15.42C113.24 15.29 113.16 15.16 113.02 15.05C112.89 14.94 112.74 14.84 112.56 14.76C112.39 14.68 112.22 14.62 112.04 14.58C111.87 14.54 111.75 14.52 111.67 14.52C111.18 14.52 110.71 14.58 110.27 14.69C109.83 14.8 109.4 14.98 108.99 15.23C108.58 15.49 108.17 15.82 107.77 16.23C107.37 16.64 106.96 17.16 106.54 17.78C106.31 18.11 106.09 18.52 105.89 18.98C105.69 19.45 105.51 19.93 105.35 20.4C105.19 20.88 105.06 21.34 104.98 21.78C104.89 22.22 104.85 22.58 104.85 22.86C104.85 23.46 104.97 23.87 105.2 24.08C105.44 24.29 105.7 24.4 105.96 24.4C106.61 24.4 107.35 24.09 108.17 23.46C108.99 22.84 109.74 21.82 110.41 20.42C110.7 19.82 110.92 19.26 111.09 18.74C111.25 18.23 111.43 17.75 111.62 17.33C111.68 17.18 111.77 16.99 111.89 16.77C112.02 16.54 112.16 16.33 112.32 16.13C112.48 15.94 112.65 15.77 112.81 15.63C112.97 15.48 113.13 15.42 113.28 15.42ZM220.51 15.62C220.67 15.49 220.82 15.42 220.97 15.42C220.93 15.29 220.85 15.16 220.72 15.05C220.59 14.95 220.44 14.85 220.27 14.77C220.1 14.69 219.93 14.63 219.76 14.6C219.59 14.56 219.46 14.54 219.39 14.54C218.9 14.54 218.44 14.6 218.01 14.7C217.58 14.81 217.16 14.99 216.75 15.23C216.35 15.47 215.95 15.79 215.56 16.19C215.16 16.58 214.76 17.07 214.35 17.67C214.12 17.99 213.91 18.38 213.71 18.83C213.52 19.27 213.33 19.73 213.18 20.18C213.02 20.64 212.89 21.08 212.81 21.5C212.72 21.93 212.68 22.27 212.68 22.54C212.68 23.12 212.8 23.51 213.04 23.71C213.27 23.92 213.52 24.03 213.78 24.03C214.43 24.03 215.15 23.72 215.96 23.12C216.77 22.52 217.5 21.55 218.15 20.2C218.43 19.63 218.66 19.1 218.81 18.6C218.98 18.11 219.15 17.66 219.34 17.24C219.4 17.1 219.48 16.92 219.61 16.71C219.73 16.49 219.87 16.29 220.03 16.1C220.19 15.91 220.35 15.75 220.51 15.62ZM36.17 14.77C36.01 14.77 35.83 14.97 35.63 15.35C35.43 15.74 35.24 16.17 35.04 16.66C34.85 17.14 34.69 17.61 34.56 18.07C34.42 18.53 34.35 18.84 34.33 18.99C34.48 18.84 34.65 18.63 34.82 18.36C34.99 18.09 35.16 17.8 35.33 17.5C35.5 17.2 35.66 16.9 35.79 16.59C35.93 16.27 36.03 16 36.11 15.76C36.19 15.5 36.26 15.27 36.34 15.07C36.42 14.87 36.35 14.77 36.17 14.77ZM166.43 19.16C166.6 18.46 166.69 17.82 166.69 17.24C166.69 16.6 166.56 16.05 166.28 15.64C166 15.22 165.5 15 164.79 15C164.58 15 164.28 15.06 163.87 15.17C163.47 15.27 163.11 15.45 162.79 15.7C162.6 15.85 162.39 16.06 162.17 16.35C161.95 16.64 161.73 16.99 161.52 17.4C161.31 17.81 161.13 18.29 160.97 18.84C160.81 19.39 160.7 20 160.64 20.66C160.64 20.82 160.65 21.08 160.66 21.43C160.66 21.78 160.74 22.15 160.87 22.54C161 22.92 161.21 23.28 161.51 23.61C161.81 23.94 162.25 24.16 162.83 24.24C163.44 23.96 163.98 23.54 164.46 22.99C164.93 22.45 165.34 21.85 165.67 21.19C165.99 20.53 166.25 19.86 166.43 19.16ZM73.11 19.12C73.11 19.33 73.09 19.61 73.03 19.96C72.97 20.32 72.88 20.71 72.74 21.13C72.61 21.55 72.44 21.98 72.24 22.42C72.04 22.86 71.79 23.28 71.48 23.67C71.25 23.99 71.02 24.24 70.79 24.43C70.39 24.45 70.03 24.42 69.7 24.35C69.38 24.27 69.1 24.12 68.87 23.9C68.64 23.67 68.46 23.37 68.33 22.98C68.19 22.6 68.12 22.11 68.12 21.54C68.12 20.73 68.25 20.04 68.5 19.47C68.75 18.9 69.05 18.43 69.4 18.05C69.75 17.68 70.13 17.4 70.53 17.22C70.93 17.04 71.29 16.96 71.62 16.96C72.14 16.96 72.51 17.11 72.75 17.42C72.99 17.73 73.11 18.3 73.11 19.12ZM160.95 24.68L161.23 24.68C160.78 24.41 160.45 24.08 160.24 23.67C160.02 23.26 159.87 22.82 159.8 22.39C159.73 21.94 159.7 21.52 159.73 21.1C159.75 20.69 159.79 20.34 159.83 20.05L159.74 20.05C159.69 20.21 159.62 20.44 159.53 20.73C159.45 21.02 159.39 21.46 159.35 22.07C159.31 22.63 159.35 23.07 159.47 23.42C159.6 23.76 159.75 24.03 159.94 24.21C160.12 24.4 160.32 24.53 160.51 24.59C160.71 24.65 160.86 24.68 160.95 24.68ZM69.96 25.11C69.85 25.2 69.71 25.29 69.56 25.36C69.43 25.44 69.28 25.5 69.12 25.55C68.96 25.59 68.79 25.62 68.62 25.62C68.23 25.62 67.88 25.43 67.57 25.06C67.25 24.68 67.11 24.17 67.15 23.51L67.24 23.48C67.45 23.94 67.76 24.32 68.17 24.67C68.58 25 69.18 25.14 69.96 25.11Z" fill="#FFFFFF" fill-opacity="1.000000" fill-rule="evenodd"/>
</svg>
