<svg width="88.000000" height="88.000000" viewBox="0 0 88 88" fill="none" xmlns="http://www.w3.org/2000/svg" xmlns:xlink="http://www.w3.org/1999/xlink">
	<desc>
			Created with Pixso.
	</desc>
	<defs>
		<clipPath id="clip69_14379">
			<rect id="grill" width="88.000000" height="88.000000" fill="white" fill-opacity="0"/>
		</clipPath>
	</defs>
	<g clip-path="url(#clip69_14379)">
		<path id="path" d="M50.73 27.05C50.44 26.76 50.28 26.38 50.28 25.97C50.28 25.57 50.44 25.18 50.73 24.9C51.23 24.39 51.23 23.58 50.73 23.07C50.22 22.57 49.41 22.57 48.9 23.07C48.13 23.85 47.7 24.88 47.7 25.97C47.7 27.07 48.13 28.1 48.9 28.87C49.5 29.47 49.5 30.43 48.9 31.03C48.4 31.53 48.4 32.35 48.9 32.85C49.16 33.1 49.49 33.23 49.82 33.23C50.15 33.23 50.48 33.1 50.73 32.85C52.33 31.25 52.33 28.65 50.73 27.05Z" fill="#008B45" fill-opacity="1.000000" fill-rule="nonzero"/>
		<path id="path" d="M63.42 27.05C63.13 26.76 62.97 26.38 62.97 25.97C62.97 25.56 63.13 25.18 63.42 24.89C63.92 24.39 63.92 23.58 63.42 23.07C62.92 22.57 62.1 22.57 61.6 23.07C60 24.67 60 27.27 61.6 28.87C61.88 29.16 62.04 29.54 62.04 29.95C62.04 30.36 61.88 30.74 61.6 31.03C61.09 31.53 61.09 32.34 61.6 32.85C61.85 33.1 62.18 33.23 62.51 33.23C62.84 33.23 63.17 33.1 63.42 32.85C64.19 32.07 64.62 31.04 64.62 29.95C64.62 28.85 64.19 27.82 63.42 27.05Z" fill="#008B45" fill-opacity="1.000000" fill-rule="nonzero"/>
		<path id="path" d="M70.81 41.16L69.12 41.16C69.13 41.06 69.14 40.96 69.14 40.86L69.14 38.49C69.14 36.9 67.85 35.61 66.26 35.61L64.29 35.61C63.58 35.61 63.01 36.18 63.01 36.9C63.01 37.61 63.58 38.19 64.29 38.19L66.26 38.19C66.43 38.19 66.56 38.32 66.56 38.49L66.56 40.86C66.56 41.03 66.43 41.16 66.26 41.16L42.11 41.16C41.94 41.16 41.81 41.03 41.81 40.86L41.81 38.49C41.81 38.32 41.94 38.19 42.11 38.19L58.21 38.19C58.92 38.19 59.5 37.61 59.5 36.9C59.5 36.18 58.92 35.61 58.21 35.61L42.11 35.61C40.52 35.61 39.23 36.9 39.23 38.49L39.23 40.86C39.23 40.96 39.23 41.06 39.24 41.16L28.1 41.16C28.02 40.91 27.91 40.66 27.79 40.42L57.99 10.22C59.09 9.12 59.09 7.34 57.99 6.24L56.61 4.86C53.47 1.72 49.3 0 44.87 0C40.44 0 36.27 1.72 33.13 4.86L31.5 6.49L30.55 5.53C29.35 4.34 27.49 4.26 26.38 5.36L21.07 10.68C19.97 11.78 20.04 13.65 21.24 14.84L22.19 15.8L20.56 17.43C14.25 23.74 14.1 33.9 20.09 40.41C19.76 41.02 19.58 41.71 19.58 42.45C19.58 44.41 20.88 46.07 22.66 46.62C22.67 46.84 22.68 47.07 22.7 47.29L17.97 47.29C15.99 47.29 14.37 48.91 14.37 50.89C14.37 52.88 15.99 54.5 17.97 54.5L25.03 54.5C27.18 58.05 30.62 60.74 34.69 61.9L30.75 77.15C30.57 77.84 30.99 78.54 31.68 78.72C31.79 78.75 31.9 78.76 32 78.76C32.58 78.76 33.1 78.38 33.25 77.8L37.22 62.41C37.89 62.49 38.56 62.53 39.24 62.53L40.08 62.53L34.45 84.37C34.29 84.98 33.73 85.42 33.09 85.42C32.97 85.42 32.86 85.4 32.74 85.37C32.38 85.28 32.07 85.05 31.88 84.73C31.69 84.4 31.64 84.03 31.73 83.67L32.24 81.7C32.42 81.02 32 80.31 31.31 80.13C30.62 79.96 29.92 80.37 29.74 81.06L29.24 83.02C28.97 84.05 29.12 85.12 29.66 86.04C30.2 86.95 31.07 87.6 32.09 87.87C32.42 87.95 32.76 88 33.09 88C34.9 88 36.49 86.77 36.94 85.01L38.84 77.65L57.44 77.65L58.02 79.87C57.6 80.64 57.37 81.52 57.37 82.46C57.37 85.51 59.85 88 62.9 88C65.95 88 68.43 85.51 68.43 82.46C68.43 80.42 67.32 78.63 65.67 77.67L61.58 61.9C65.87 60.67 69.45 57.76 71.56 53.94C71.61 53.86 71.65 53.79 71.69 53.71C72.92 51.39 73.62 48.74 73.62 45.94L73.62 43.98C73.62 42.43 72.36 41.16 70.81 41.16ZM22.89 12.5L28.21 7.19C28.26 7.13 28.51 7.14 28.72 7.36L29.68 8.31L24.02 13.97L23.06 13.02C22.9 12.86 22.87 12.69 22.87 12.63C22.86 12.57 22.87 12.52 22.89 12.5ZM22.38 19.25L34.96 6.68C37.61 4.03 41.13 2.57 44.87 2.57C48.61 2.57 52.13 4.03 54.78 6.68L56.17 8.06C56.26 8.16 56.26 8.31 56.17 8.4L25.97 38.6C25.36 38.28 24.67 38.09 23.94 38.09C23.21 38.09 22.52 38.27 21.92 38.59C16.92 33.1 17.08 24.56 22.38 19.25ZM17.97 51.92C17.41 51.92 16.95 51.46 16.95 50.89C16.95 50.33 17.41 49.87 17.97 49.87L23.12 49.87C23.29 50.57 23.51 51.26 23.76 51.92L17.97 51.92ZM23.94 44.23C22.95 44.23 22.16 43.43 22.16 42.45C22.16 41.47 22.95 40.67 23.94 40.67C24.92 40.67 25.72 41.47 25.72 42.45C25.72 43.43 24.92 44.23 23.94 44.23ZM39.51 75.07L40.23 72.27L56.05 72.27L56.77 75.07L39.51 75.07ZM40.9 69.69L42.75 62.53L53.53 62.53L55.38 69.69L40.9 69.69ZM65.86 82.46C65.86 84.09 64.53 85.42 62.9 85.42C61.27 85.42 59.95 84.09 59.95 82.46C59.95 80.83 61.27 79.51 62.9 79.51C64.53 79.51 65.86 80.83 65.86 82.46ZM62.81 76.93C61.83 76.95 60.91 77.22 60.11 77.68L56.19 62.53L57.02 62.53C57.71 62.53 58.39 62.49 59.05 62.41L62.81 76.93ZM57.02 59.95L39.24 59.95C34.74 59.95 30.72 57.81 28.16 54.5L68.11 54.5C65.55 57.81 61.53 59.95 57.02 59.95ZM69.7 51.92L26.57 51.92C25.8 50.3 25.33 48.5 25.24 46.61C26.6 46.18 27.68 45.1 28.1 43.74L70.81 43.74C70.94 43.74 71.04 43.85 71.04 43.98L71.04 45.94C71.04 48.08 70.56 50.1 69.7 51.92Z" fill="#55DB91" fill-opacity="1.000000" fill-rule="nonzero"/>
		<path id="path" d="M57.07 27.05C56.79 26.76 56.63 26.38 56.63 25.97C56.63 25.57 56.79 25.18 57.07 24.89C57.58 24.39 57.58 23.58 57.07 23.07C56.57 22.57 55.75 22.57 55.25 23.07C53.65 24.67 53.65 27.27 55.25 28.87C55.54 29.16 55.7 29.54 55.7 29.95C55.7 30.36 55.54 30.74 55.25 31.03C54.75 31.53 54.75 32.34 55.25 32.85C55.5 33.1 55.83 33.23 56.16 33.23C56.49 33.23 56.82 33.1 57.07 32.85C57.85 32.07 58.27 31.04 58.27 29.95C58.27 28.85 57.85 27.82 57.07 27.05Z" fill="#008B45" fill-opacity="1.000000" fill-rule="nonzero"/>
	</g>
</svg>
