<svg width="88.000000" height="88.000000" viewBox="0 0 88 88" fill="none" xmlns="http://www.w3.org/2000/svg" xmlns:xlink="http://www.w3.org/1999/xlink">
	<desc>
			Created with Pixso.
	</desc>
	<defs>
		<clipPath id="clip69_14324">
			<rect id="map" width="88.000000" height="88.000000" fill="white" fill-opacity="0"/>
		</clipPath>
	</defs>
	<g clip-path="url(#clip69_14324)">
		<path id="path2638" d="M40.78 27.17L40.76 27.15C39.92 27.15 39.26 27.81 39.26 28.65C39.26 29.49 39.92 30.15 40.76 30.15L40.78 30.13L40.78 27.17ZM63.99 30.13L64.01 30.15C64.85 30.15 65.51 29.49 65.51 28.65C65.51 27.81 64.85 27.15 64.01 27.15L63.99 27.17L63.99 30.13Z" fill="#000000" fill-opacity="0" fill-rule="nonzero"/>
		<path id="path2638" d="M40.76 28.65L64.01 28.65" stroke="#55DB91" stroke-opacity="1.000000" stroke-width="3.000000" stroke-linejoin="round" stroke-linecap="round"/>
		<path id="path2650" d="M6.25 71.51L6.23 71.5C5.39 71.5 4.73 72.16 4.73 73C4.73 73.83 5.39 74.5 6.23 74.5L6.25 74.48L6.25 71.51ZM30.61 45.52L30.59 45.5C29.75 45.5 29.09 46.16 29.09 47C29.09 47.84 29.75 48.5 30.59 48.5L30.61 48.48L30.61 45.52Z" fill="#000000" fill-opacity="0" fill-rule="nonzero"/>
		<path id="path2650" d="M6.23 73L19.99 73C22.34 73 24.32 71.09 24.29 68.72C24.26 66.3 26.19 64.33 28.59 64.33L50.94 64.33C53.31 64.33 55.23 62.39 55.23 60C55.23 57.6 53.31 55.66 50.94 55.66L45.78 55.66C43.4 55.66 41.48 53.72 41.48 51.33C41.48 48.93 39.56 47 37.18 47L30.59 47" stroke="#55DB91" stroke-opacity="1.000000" stroke-width="3.000000" stroke-linejoin="round" stroke-linecap="round"/>
		<path id="path2654" d="M6.02 45.41L6 45.39C5.15 45.39 4.5 46.05 4.5 46.89C4.5 47.73 5.15 48.39 6 48.39L6.02 48.37L6.02 45.41ZM26.49 48.37L26.51 48.39C27.35 48.39 28.01 47.73 28.01 46.89C28.01 46.05 27.35 45.39 26.51 45.39L26.49 45.41L26.49 48.37Z" fill="#000000" fill-opacity="0" fill-rule="nonzero"/>
		<path id="path2654" d="M6 46.89L26.51 46.89" stroke="#55DB91" stroke-opacity="1.000000" stroke-width="3.000000" stroke-linejoin="round" stroke-linecap="round"/>
		<path id="path2658" d="M28.51 22.33C25.67 22.33 23.36 20.02 23.36 17.17C23.36 14.33 25.67 12.02 28.51 12.02C31.35 12.02 33.67 14.33 33.67 17.17C33.67 20.02 31.35 22.33 28.51 22.33Z" fill="#000000" fill-opacity="0" fill-rule="nonzero"/>
		<path id="path2658" d="M23.36 17.17C23.36 14.33 25.67 12.02 28.51 12.02C31.35 12.02 33.67 14.33 33.67 17.17C33.67 20.02 31.35 22.33 28.51 22.33C25.67 22.33 23.36 20.02 23.36 17.17Z" stroke="#008B45" stroke-opacity="1.000000" stroke-width="3.000000" stroke-linejoin="round"/>
		<path id="path2666" d="M64.21 48.48L64.23 48.5C65.07 48.5 65.73 47.84 65.73 47C65.73 46.16 65.07 45.5 64.23 45.5L64.21 45.52L64.21 48.48ZM64.21 39.48L64.23 39.5C65.07 39.5 65.73 38.84 65.73 38C65.73 37.16 65.07 36.5 64.23 36.5L64.21 36.52L64.21 39.48Z" fill="#000000" fill-opacity="0" fill-rule="nonzero"/>
		<path id="path2666" d="M64.23 47L55.57 47C53.17 47 51.23 44.98 51.23 42.5C51.23 40.01 53.17 38 55.57 38L64.23 38" stroke="#55DB91" stroke-opacity="1.000000" stroke-width="3.000000" stroke-linejoin="round" stroke-linecap="round"/>
		<path id="path2670" d="M43.23 82.5C43.23 83.32 42.56 84 41.73 84C40.91 84 40.23 83.32 40.23 82.5C40.23 81.67 40.91 81 41.73 81C42.56 81 43.23 81.67 43.23 82.5Z" fill="#55DB91" fill-opacity="1.000000" fill-rule="nonzero"/>
		<path id="path2670" d="M41.73 84C40.91 84 40.23 83.32 40.23 82.5C40.23 81.67 40.91 81 41.73 81C42.56 81 43.23 81.67 43.23 82.5C43.23 83.32 42.56 84 41.73 84Z" stroke="#000000" stroke-opacity="0" stroke-width="3.000000"/>
		<path id="path2674" d="M16.48 30.48L16.5 30.5C17.34 30.5 18 29.84 18 29C18 28.16 17.34 27.5 16.5 27.5L16.48 27.52L16.48 30.48ZM35.21 84.48L35.23 84.5C36.07 84.5 36.73 83.84 36.73 83C36.73 82.16 36.07 81.5 35.23 81.5L35.21 81.51L35.21 84.48Z" fill="#000000" fill-opacity="0" fill-rule="nonzero"/>
		<path id="path2674" d="M16.5 29L6.23 29L6.23 83L35.23 83" stroke="#55DB91" stroke-opacity="1.000000" stroke-width="3.000000" stroke-linejoin="round" stroke-linecap="round"/>
		<path id="path2678" d="M48.23 81.5L48.25 81.51L48.25 84.48L48.23 84.5C47.39 84.5 46.73 83.84 46.73 83C46.73 82.16 47.39 81.5 48.23 81.5ZM64.25 65.5L64.25 20L68.58 20C73.36 20 77.23 23.91 77.23 28.75L77.23 74.25C77.23 69.41 73.36 65.5 68.58 65.5L64.25 65.5Z" fill="#000000" fill-opacity="0" fill-rule="evenodd"/>
		<path id="path2678" d="M48.23 83L68.58 83C73.36 83 77.23 79.08 77.23 74.25C77.23 69.41 73.36 65.5 68.58 65.5L64.25 65.5L64.25 20L68.58 20C73.36 20 77.23 23.91 77.23 28.75L77.23 74.25" stroke="#55DB91" stroke-opacity="1.000000" stroke-width="3.000000" stroke-linejoin="round" stroke-linecap="round"/>
		<path id="path2662" d="M28.51 48.1L15.11 24.89C14.65 24.08 14.25 23.22 13.93 22.33C13.36 20.72 13.05 18.98 13.05 17.17C13.05 8.63 19.97 1.71 28.51 1.71C37.05 1.71 43.97 8.63 43.97 17.17C43.97 18.98 43.66 20.72 43.09 22.33C42.78 23.22 42.38 24.08 41.91 24.89L28.51 48.1Z" fill="#000000" fill-opacity="0" fill-rule="nonzero"/>
		<path id="path2662" d="M15.11 24.89C14.65 24.08 14.25 23.22 13.93 22.33C13.36 20.72 13.05 18.98 13.05 17.17C13.05 8.63 19.97 1.71 28.51 1.71C37.05 1.71 43.97 8.63 43.97 17.17C43.97 18.98 43.66 20.72 43.09 22.33C42.78 23.22 42.38 24.08 41.91 24.89L28.51 48.1L15.11 24.89Z" stroke="#008B45" stroke-opacity="1.000000" stroke-width="3.000000" stroke-linejoin="round"/>
	</g>
</svg>
